<?xml version="1.0" encoding="UTF-8" standalone="no"?><!-- Generator: Gravit.io --><svg xmlns="http://www.w3.org/2000/svg" xmlns:xlink="http://www.w3.org/1999/xlink" style="isolation:isolate" viewBox="0 0 459.092 440.186" width="459.092pt" height="440.186pt"><defs><clipPath id="_clipPath_P2TeBiU3rl0aC1sGD4ALNmYqHiFPJ3Tl"><rect width="459.092" height="440.186"/></clipPath></defs><g clip-path="url(#_clipPath_P2TeBiU3rl0aC1sGD4ALNmYqHiFPJ3Tl)"><path d=" M 69.122 405.346 C -20.09 358.893 -20.091 283.577 69.12 237.123 C 158.331 190.67 302.971 190.67 392.183 237.123 C 481.395 283.577 481.395 358.893 392.184 405.346 C 302.974 451.8 158.333 451.8 69.122 405.346 Z " fill="rgb(239,238,237)"/><path d=" M 420.09 276.721 C 443.885 290.459 443.885 312.733 420.09 326.471 C 396.295 340.209 357.716 340.209 333.921 326.471 C 310.127 312.733 310.127 290.459 333.922 276.722 C 357.717 262.983 396.296 262.983 420.09 276.721 Z " fill="rgb(224,224,223)"/><path d=" M 131.613 280.716 C 154.926 294.176 155.873 316.397 132.559 329.857 C 109.246 343.317 70.502 342.918 47.189 329.459 C 23.875 315.999 23.876 294.176 47.189 280.716 C 70.502 267.256 108.301 267.256 131.613 280.716 Z " fill="rgb(224,224,223)"/><path d=" M 321.766 353.246 L 245.245 309.067 C 242.855 307.686 238.977 307.686 236.586 309.067 L 160.067 353.246 C 157.676 354.626 157.676 356.865 160.067 358.246 L 194.919 378.367 L 162.369 397.15 C 155.757 400.967 144.998 400.964 138.386 397.147 L 87.188 367.587 C 84.363 365.956 82.807 363.909 82.807 361.821 C 82.807 359.732 84.363 357.683 87.188 356.052 L 132.559 329.857 C 133.516 329.304 133.843 328.081 133.292 327.124 C 132.738 326.168 131.515 325.839 130.559 326.392 L 85.188 352.587 C 81.073 354.963 78.807 358.243 78.807 361.821 C 78.807 365.398 81.074 368.676 85.188 371.052 L 136.386 400.612 C 140.31 402.877 145.345 404.009 150.381 404.009 C 155.414 404.009 160.447 402.877 164.369 400.615 L 198.92 380.677 L 236.586 402.424 C 238.977 403.805 242.855 403.805 245.245 402.424 L 321.766 358.246 C 324.156 356.865 324.156 354.626 321.766 353.246 Z " fill="rgb(224,224,223)"/><path d=" M 409.209 285.074 C 409.209 285.074 411.986 243.896 411.168 228.709 C 410.52 216.676 408.885 211.717 408.544 209.003 C 408.544 209.003 405.598 180.951 405.354 157.112 C 405.237 145.639 404.174 137.472 397.889 123.831 L 357.454 133.504 C 356.633 139.563 353.855 179.863 353.199 215.695 C 352.624 247.063 353.519 274.528 353.519 274.528 L 353.56 276.179 C 353.56 278.012 353.157 279.293 351.979 282.235 C 350.784 285.215 348.605 289.48 345.716 292.596 C 344.884 293.494 339.118 298.539 338.357 299.614 C 335.88 302.503 341.012 304.131 344.822 303.622 C 348.843 303.086 355.088 301.559 356.859 299.11 C 358.039 297.479 358.925 291.765 360.138 290.111 C 364.229 284.535 365.908 282.137 365.938 280.354 C 365.992 277.135 364.885 275.861 364.49 274.043 C 364.82 270.245 373.022 238.989 373.163 227.925 C 373.232 222.652 372.875 215.391 372.875 215.391 L 379.24 178.872 C 381.698 187.99 386.019 210.639 387.472 219.329 C 389.249 229.944 393.879 257.202 396.615 273.465 C 397.67 279.738 398.161 282.904 398.642 285.811 L 398.761 287.057 C 398.847 288.629 399.995 305.536 400.616 309.075 C 401.916 316.468 408.488 315.538 409.54 309.558 C 410.435 304.47 409.315 288.716 409.29 286.784 L 409.209 285.074 Z " fill="rgb(245,160,165)"/><path d=" M 409.209 285.074 C 411.063 285.105 409.844 292.282 410.322 296.898 C 410.835 301.847 412.457 305.461 412.921 309.519 C 413.452 314.155 413.039 316.097 411.376 319.909 C 410.083 322.872 403.587 326.935 401.121 322.696 C 398.625 318.406 398.12 313.615 398.404 308.998 C 398.697 304.227 398.404 301.273 398.5 297.644 C 398.586 294.446 396.24 286.27 398.642 285.811 L 398.761 287.057 C 399.623 288.781 408.405 289.125 409.29 286.784 L 409.209 285.074 Z " fill="rgb(56,79,86)"/><path d=" M 366.329 284.25 C 366.897 286.563 366.309 292.903 366.309 292.903 C 366.309 292.903 365.308 295.09 361.739 296.546 L 360.138 287.727 L 366.329 284.25 Z " fill="rgb(44,61,67)"/><path d=" M 361.739 296.546 L 353.873 293.964 L 351.979 286.983 L 360.816 291.456 L 361.739 296.546 Z " fill="rgb(34,34,36)"/><path d=" M 353.56 276.179 L 353.519 274.528 C 352.451 275.047 350.099 283.651 346.92 289.553 C 344.017 294.942 338.264 297.945 336.397 300.29 C 333.898 303.427 338.754 307.471 346.549 305.804 C 350.418 304.976 356.277 302.501 357.864 299.891 C 359.453 297.28 359.99 292.484 361.289 290.565 C 362.588 288.646 365.674 286.435 366.329 284.25 C 366.689 283.05 366.977 280.386 366.313 278.219 C 365.702 276.231 365.169 273.826 364.49 274.043 L 364.445 275.555 C 363.923 276.619 362.04 277.857 358.104 278.07 C 356.232 278.171 354.417 277.885 353.56 276.179 Z " fill="rgb(56,79,86)"/><path d=" M 356.681 133.015 C 356.681 133.015 354.008 162.681 353.148 188.957 C 352.286 215.234 353.057 249.127 353.057 249.127 C 353.057 249.127 355.769 251.067 361.739 251.335 C 367.709 251.603 369.775 249.613 369.775 249.613 C 369.775 249.613 373.422 237.706 373.993 229.327 C 374.565 220.947 373.993 215.696 373.993 215.696 L 379.324 180.638 C 379.324 180.638 386.084 215.155 386.852 219.329 C 387.618 223.502 394.098 260.379 394.098 260.379 C 394.098 260.379 396.641 262.727 403.16 262.603 C 408.922 262.494 410.598 260.426 410.598 260.426 C 410.598 260.426 411.987 237.807 411.67 228.143 C 411.392 219.627 409.447 212.842 409.058 207.319 C 408.669 201.796 408.442 170.331 408.053 158.352 C 407.664 146.374 406.588 135.965 396.353 121.549 L 356.681 133.015 Z " fill="rgb(67,96,105)"/><path d=" M 379.324 180.638 L 374.891 158.677 C 374.891 158.677 367.153 156.658 363.547 151.933 C 363.547 151.933 364.55 157.171 372.503 160.52 L 377.223 182.4 L 375.618 205.006 L 379.324 180.638 Z " fill="rgb(56,79,86)"/><path d=" M 300.189 127.518 C 304.266 128.344 308.697 126.888 308.697 126.888 C 307.175 126.03 305.992 125.325 305.327 124.654 C 304.004 123.322 304.464 121.937 304.93 121.432 C 305.292 121.039 306.212 121.965 308.294 122.555 C 310.953 123.309 312.882 123.463 315.447 124.943 C 316.403 125.495 317.54 125.715 318.647 125.507 C 324.891 124.33 339.441 117.516 346.103 113.943 C 347.471 108.399 349.824 100.233 352.739 90.058 C 355.427 80.677 359.748 76.572 366.613 76.729 L 365.663 97.094 C 365.663 97.094 362.388 111.165 358.328 122.652 C 357.613 124.675 354.767 126.988 349.549 128.927 C 342.789 131.437 334.628 133.801 324.658 136.53 C 320.931 137.55 316.004 138.622 312.277 138.94 C 301.737 139.84 297.698 136.909 296.259 134.867 C 292.239 129.164 294.662 126.399 300.189 127.518 Z " fill="rgb(245,160,165)"/><path d=" M 384.348 76.572 L 393.967 77.318 C 391.349 91.344 401.203 98.851 401.203 98.851 L 396.914 116.139 C 397.056 118.272 400.599 125.472 404.03 133.219 C 397.579 141.856 365.938 144.805 355.618 137.226 C 357.211 129.084 358.4 122.9 358.715 119.814 L 358.193 108.645 C 345.26 98.031 360.869 81.869 366.613 76.729 L 373.837 76.407 L 384.348 76.572 Z " fill="rgb(0,179,169)"/><path d=" M 424.856 162.661 C 423.448 161.686 422.635 159.641 422.8 158.027 C 422.966 156.413 423.339 154.392 424.001 153.611 C 424.663 152.831 428.874 147.125 430.736 150.446 C 432.768 154.069 432.328 155.531 432.328 155.531 L 424.856 162.661 Z " fill="rgb(243,142,146)"/><path d=" M 411.901 238.977 C 407.94 238.977 403.6 237.681 399.149 235.111 L 349.22 206.285 C 341.507 201.83 335.23 190.96 335.23 182.052 L 335.229 140.165 C 335.229 137.283 333.739 134.702 331.243 133.261 C 328.748 131.82 325.766 131.82 323.27 133.26 L 305.733 143.385 C 304.775 143.938 303.553 143.609 303 142.653 C 302.448 141.696 302.776 140.473 303.733 139.921 L 321.27 129.796 C 325.017 127.631 329.494 127.632 333.243 129.797 C 336.99 131.961 339.229 135.837 339.229 140.165 L 339.23 182.052 C 339.23 189.557 344.721 199.068 351.22 202.82 L 401.149 231.646 C 407.537 235.335 413.462 235.978 417.825 233.459 C 422.191 230.939 424.595 225.488 424.595 218.11 L 424.595 164.634 C 424.595 155.576 430.386 145.136 437.781 140.867 L 449.966 133.831 C 450.921 133.276 452.145 133.606 452.698 134.563 C 453.25 135.519 452.924 136.743 451.966 137.295 L 439.781 144.33 C 433.717 147.831 428.595 157.129 428.595 164.634 L 428.595 218.11 C 428.595 226.977 425.48 233.659 419.825 236.923 C 417.449 238.295 414.774 238.977 411.901 238.977 Z " fill="rgb(56,79,86)"/><path d=" M 325.597 146.275 L 325.597 149.545 C 325.597 154.778 321.923 161.142 317.391 163.759 L 287.104 181.244 L 256.316 163.465 L 256.309 136.803 L 286.203 122.995 C 290.954 120.801 298.48 121.143 303.012 123.759 L 317.391 132.061 C 321.923 134.678 325.597 141.041 325.597 146.275 Z " fill="rgb(56,79,86)"/><path d=" M 286.203 122.995 C 290.954 120.801 298.48 121.143 303.012 123.759 L 317.391 132.061 C 321.923 134.678 321.745 138.578 316.994 140.772 L 287.108 154.577 L 256.309 136.803 L 286.203 122.995 Z " fill="rgb(67,96,105)"/><path d=" M 290.959 179.019 L 290.959 179.019 L 294.116 177.196 L 294.116 177.196 L 290.959 179.019 Z  M 260.597 134.822 L 260.597 134.822 L 264.105 133.202 L 260.597 134.822 Z " fill="rgb(209,211,211)"/><path d=" M 290.959 179.019 L 290.959 157.09 C 290.959 155.863 290.556 154.513 289.894 153.29 L 293.204 151.761 C 293.775 152.904 294.116 154.138 294.116 155.267 L 294.116 177.196 L 290.959 179.019 Z " fill="rgb(50,69,75)"/><path d=" M 289.894 153.29 C 289.144 151.903 288.061 150.679 286.857 149.983 L 260.597 134.822 L 264.105 133.202 L 290.013 148.161 C 291.302 148.905 292.451 150.254 293.204 151.761 L 289.894 153.29 Z " fill="rgb(59,84,92)"/><path d=" M 253.693 132.213 C 254.429 131.788 255.446 131.848 256.573 132.499 L 286.857 149.983 C 289.123 151.292 290.959 154.473 290.959 157.09 L 290.959 183.17 C 290.959 184.48 290.497 185.394 289.752 185.816 C 289.06 186.208 286.586 187.636 285.901 188.039 C 285.162 188.475 284.14 188.418 283.004 187.763 L 252.721 170.279 C 250.455 168.971 248.618 165.789 248.618 163.172 L 248.618 137.092 C 248.618 135.789 249.072 134.866 249.811 134.44 C 250.504 134.04 252.998 132.613 253.693 132.213 Z " fill="rgb(56,79,86)"/><path d=" M 283.004 152.207 L 252.721 134.723 C 250.454 133.415 248.618 134.476 248.618 137.092 L 248.618 163.172 C 248.618 165.789 250.454 168.971 252.721 170.279 L 283.004 187.763 C 285.27 189.071 287.108 188.011 287.108 185.394 L 287.108 159.314 C 287.108 156.698 285.271 153.515 283.004 152.207 Z " fill="rgb(67,96,105)"/><path d=" M 258.468 176.947 C 258.552 177.263 258.609 177.623 258.609 178.018 C 258.609 180.473 256.885 183.457 254.76 184.685 C 254.417 184.882 254.091 185.002 253.776 185.087 C 253.692 184.771 253.633 184.43 253.633 184.036 C 253.633 181.581 255.357 178.596 257.483 177.369 C 257.824 177.171 258.152 177.033 258.468 176.947 Z  M 247.136 182.561 L 247.137 187.074 C 247.137 188.903 247.771 190.178 248.804 190.772 C 249.264 191.037 251.069 192.079 251.53 192.349 C 252.574 192.957 254.017 192.881 255.605 191.964 L 280.653 177.503 L 280.65 159.725 L 277.927 158.151 L 252.879 172.612 C 249.707 174.444 247.136 178.898 247.136 182.561 Z " fill="rgb(0,179,169)"/><path d=" M 251.541 192.355 L 251.537 192.353 L 251.52 192.343 C 251.523 192.345 251.527 192.347 251.53 192.349 C 251.534 192.351 251.537 192.353 251.541 192.355 Z  M 248.268 190.369 C 247.671 189.807 247.286 188.939 247.173 187.804 C 247.289 188.932 247.678 189.8 248.268 190.369 Z  M 247.517 179.962 C 247.621 179.589 247.744 179.216 247.887 178.847 C 247.745 179.217 247.621 179.589 247.517 179.962 Z  M 247.891 178.836 C 247.891 178.836 247.891 178.836 247.891 178.836 C 247.891 178.836 247.891 178.836 247.891 178.836 Z " fill="rgb(195,197,197)"/><path d=" M 251.558 192.363 L 251.541 192.355 C 251.537 192.353 251.534 192.351 251.53 192.349 C 251.527 192.347 251.523 192.345 251.52 192.343 L 251.438 192.293 C 250.837 191.943 249.228 191.013 248.808 190.763 C 248.613 190.655 248.433 190.524 248.268 190.369 C 247.678 189.8 247.289 188.932 247.173 187.804 C 247.15 187.571 247.138 187.328 247.138 187.073 L 247.138 182.563 C 247.138 181.722 247.271 180.842 247.517 179.962 C 247.621 179.589 247.745 179.217 247.887 178.847 C 247.888 178.844 247.889 178.84 247.891 178.836 C 247.891 178.836 247.891 178.836 247.891 178.836 C 248.147 178.172 248.462 177.519 248.827 176.893 L 248.827 176.893 L 248.827 176.893 L 251.548 178.463 C 250.508 180.283 249.867 182.293 249.867 184.133 L 249.867 188.643 C 249.867 190.073 250.258 191.163 250.917 191.863 C 251.052 192.015 251.215 192.136 251.382 192.247 L 251.558 192.363 Z " fill="rgb(0,175,156)"/><path d=" M 251.548 178.463 L 251.548 178.463 L 251.548 178.463 L 248.827 176.893 C 249.867 175.093 251.298 173.533 252.878 172.613 L 277.928 158.153 L 280.638 159.723 L 255.608 174.183 C 254.018 175.103 252.587 176.663 251.548 178.463 Z " fill="rgb(110,200,199)"/><path d=" M 251.667 192.433 L 251.598 192.393 L 251.642 192.411 C 251.645 192.412 251.647 192.413 251.649 192.414 L 251.667 192.433 Z " fill="rgb(254,254,254)"/><path d=" M 251.649 192.414 C 251.647 192.413 251.645 192.412 251.642 192.411 L 251.648 192.413 L 251.649 192.414 Z " fill="rgb(110,200,199)"/><path d=" M 251.642 192.411 L 251.598 192.393 L 251.567 192.37 C 251.592 192.384 251.617 192.398 251.642 192.411 Z " fill="rgb(195,197,197)"/><path d=" M 251.648 192.413 L 251.642 192.411 C 251.617 192.398 251.592 192.384 251.567 192.37 L 251.558 192.363 L 251.648 192.413 Z " fill="rgb(0,175,156)"/><path d=" M 253.776 185.087 C 253.775 185.085 253.774 185.082 253.774 185.08 C 253.868 185.057 253.963 185.032 254.057 185.002 C 253.962 185.034 253.869 185.062 253.776 185.087 Z  M 254.621 184.761 C 254.666 184.736 254.71 184.711 254.755 184.683 C 256.877 183.451 258.603 180.476 258.603 178.012 C 258.603 177.614 258.544 177.25 258.468 176.947 L 258.468 176.947 C 258.552 177.263 258.609 177.623 258.609 178.018 C 258.609 180.473 256.885 183.457 254.76 184.685 C 254.713 184.711 254.667 184.737 254.621 184.761 Z " fill="rgb(195,197,197)"/><path d=" M 255.769 186.786 C 254.787 186.786 254.043 186.173 253.77 185.081 C 253.771 185.08 253.772 185.08 253.774 185.08 C 253.774 185.082 253.775 185.085 253.776 185.087 C 253.869 185.062 253.962 185.034 254.057 185.002 C 254.242 184.943 254.429 184.866 254.621 184.761 C 254.667 184.737 254.713 184.711 254.76 184.685 C 256.885 183.457 258.609 180.473 258.609 178.018 C 258.609 177.623 258.552 177.263 258.468 176.947 C 258.726 176.875 258.974 176.84 259.209 176.84 C 260.466 176.84 261.331 177.849 261.331 179.585 C 261.331 182.049 259.607 185.024 257.484 186.256 C 256.869 186.615 256.286 186.786 255.769 186.786 Z " fill="rgb(0,175,156)"/><path d=" M 235.376 163.613 C 235.459 163.929 235.517 164.29 235.517 164.684 C 235.517 167.139 233.793 170.123 231.668 171.35 C 231.325 171.548 231 171.668 230.683 171.753 C 230.6 171.438 230.542 171.096 230.542 170.702 C 230.542 168.247 232.264 165.263 234.391 164.035 C 234.733 163.837 235.06 163.699 235.376 163.613 Z  M 224.044 169.228 L 224.045 173.74 C 224.046 175.569 224.679 176.844 225.712 177.438 C 226.172 177.703 227.976 178.745 228.439 179.015 C 229.482 179.623 230.925 179.547 232.513 178.63 L 257.561 164.169 L 257.558 146.391 L 254.834 144.817 L 229.788 159.278 C 226.615 161.11 224.044 165.564 224.044 169.228 Z " fill="rgb(0,179,169)"/><path d=" M 228.558 179.083 L 228.508 179.063 L 228.438 179.023 C 228.238 178.904 227.799 178.647 227.325 178.37 C 227.742 178.611 228.131 178.836 228.354 178.966 C 228.42 179.008 228.488 179.047 228.558 179.083 Z  M 225.035 176.889 C 224.647 176.463 224.363 175.895 224.201 175.196 C 224.364 175.893 224.65 176.462 225.035 176.889 Z  M 225.512 163.951 C 225.582 163.821 225.654 163.691 225.728 163.563 L 225.728 163.563 C 225.654 163.691 225.582 163.821 225.512 163.951 Z " fill="rgb(195,197,197)"/><path d=" M 228.354 178.966 C 228.131 178.836 227.742 178.611 227.325 178.37 C 226.683 177.994 225.977 177.583 225.717 177.433 C 225.464 177.291 225.236 177.109 225.035 176.889 C 224.65 176.462 224.364 175.893 224.201 175.196 C 224.1 174.758 224.048 174.27 224.048 173.733 L 224.048 169.223 C 224.048 168.303 224.208 167.343 224.498 166.383 C 224.747 165.56 225.091 164.736 225.512 163.951 C 225.582 163.821 225.654 163.691 225.728 163.563 L 225.737 163.573 L 225.737 163.573 L 228.458 165.133 L 228.447 165.143 C 228.188 165.593 227.958 166.053 227.757 166.523 C 227.138 167.943 226.778 169.423 226.778 170.803 L 226.778 175.313 C 226.778 176.733 227.168 177.833 227.827 178.533 C 227.984 178.697 228.162 178.844 228.354 178.966 Z " fill="rgb(0,175,156)"/><path d=" M 228.754 159.983 C 229.089 159.717 229.435 159.479 229.788 159.273 L 248.618 148.403 L 248.618 148.406 L 229.788 159.278 C 229.435 159.482 229.089 159.718 228.754 159.983 Z " fill="rgb(254,254,254)"/><path d=" M 248.618 148.406 L 248.618 148.403 L 254.837 144.813 L 255.99 145.485 L 254.834 144.817 L 248.618 148.406 Z " fill="rgb(150,168,174)"/><path d=" M 228.458 165.133 L 228.458 165.133 L 225.737 163.573 C 226.545 162.168 227.588 160.907 228.754 159.983 C 229.089 159.718 229.435 159.482 229.788 159.278 L 248.618 148.406 L 254.834 144.817 L 255.99 145.485 L 257.548 146.393 L 232.518 160.853 C 230.918 161.773 229.498 163.333 228.458 165.133 Z " fill="rgb(110,200,199)"/><path d=" M 228.577 179.103 L 228.508 179.063 L 228.558 179.083 L 228.577 179.103 Z " fill="rgb(254,254,254)"/><path d=" M 230.683 171.753 C 230.683 171.751 230.682 171.748 230.681 171.746 C 230.778 171.723 230.875 171.697 230.972 171.665 C 230.875 171.699 230.779 171.728 230.683 171.753 Z  M 231.536 171.423 C 231.578 171.4 231.621 171.375 231.663 171.349 C 233.785 170.117 235.51 167.142 235.51 164.678 C 235.51 164.28 235.452 163.916 235.376 163.613 L 235.376 163.613 C 235.459 163.929 235.517 164.29 235.517 164.684 C 235.517 167.139 233.793 170.123 231.668 171.35 C 231.624 171.376 231.58 171.4 231.536 171.423 Z " fill="rgb(195,197,197)"/><path d=" M 232.677 173.452 C 231.695 173.452 230.951 172.839 230.678 171.746 C 230.679 171.746 230.68 171.746 230.681 171.746 C 230.682 171.748 230.683 171.751 230.683 171.753 C 230.779 171.728 230.875 171.699 230.972 171.665 C 231.157 171.606 231.344 171.529 231.536 171.423 C 231.58 171.4 231.624 171.376 231.668 171.35 C 233.793 170.123 235.517 167.139 235.517 164.684 C 235.517 164.29 235.459 163.929 235.376 163.613 C 235.635 163.541 235.883 163.506 236.117 163.506 C 237.374 163.506 238.24 164.515 238.24 166.251 C 238.24 168.715 236.515 171.69 234.392 172.922 C 233.777 173.281 233.194 173.452 232.677 173.452 Z " fill="rgb(0,175,156)"/><path d=" M 233.069 150.66 L 229.041 134.979 C 228.835 134.176 228.018 133.693 227.215 133.899 C 226.413 134.105 225.93 134.923 226.136 135.725 L 230.164 151.407 C 230.37 152.209 231.187 152.693 231.99 152.486 C 232.792 152.28 233.275 151.463 233.069 150.66 Z " fill="rgb(216,217,217)"/><path d=" M 221.3 156.399 L 206.402 144.63 C 205.752 144.116 204.808 144.227 204.295 144.877 C 203.781 145.527 203.892 146.47 204.542 146.984 L 219.44 158.753 C 220.09 159.266 221.033 159.155 221.547 158.505 C 222.06 157.855 221.95 156.912 221.3 156.399 Z " fill="rgb(216,217,217)"/><path d=" M 217.142 169.091 L 199.733 170.441 C 198.907 170.505 198.289 171.226 198.353 172.052 C 198.417 172.878 199.139 173.496 199.965 173.432 L 217.374 172.082 C 218.199 172.018 218.817 171.296 218.753 170.47 C 218.689 169.644 217.967 169.027 217.142 169.091 Z " fill="rgb(216,217,217)"/><path d=" M 438.467 146.343 C 438.075 143.337 437.748 139.069 436.827 135.339 C 434.502 125.914 429.436 113.717 427.768 110.523 C 426.099 107.33 422.327 102.683 419.655 98.755 C 415.876 93.202 413.221 90.089 410.346 86.323 C 404.03 78.05 401.34 77.579 393.967 77.318 C 392.971 79.947 390.688 90.726 398.072 99.439 L 413.917 116.139 C 414.816 117.589 424.495 134.134 426.107 140.247 C 426.392 141.33 426.238 142.48 425.731 143.479 C 424.37 146.159 423.564 149.522 422.957 152.233 C 422.483 154.355 421.228 156.034 421.655 156.36 C 422.204 156.78 423.562 157.298 425.163 156.08 C 425.934 155.494 427.109 153.553 427.896 151.967 C 429.226 151.972 430.082 152.744 430.183 154.15 C 430.272 155.381 429.713 157.097 429.291 159.229 C 429.209 159.641 429.108 160.121 428.912 161.282 C 428.781 161.913 428.654 162.755 428.639 163.665 C 430.656 164.039 432.722 162.812 436.083 159.627 C 439.12 156.749 439.321 152.882 438.467 146.343 Z " fill="rgb(245,160,165)"/><path d=" M 386.069 71.715 C 386.121 69.743 392.628 65.03 395.917 60.052 C 398.965 55.439 403.227 42.737 393.13 38.676 C 393.13 38.676 395.302 32.581 391.349 28.995 C 387.396 25.41 382.057 27.62 381.216 29.126 C 381.216 29.126 379.744 22.817 372.76 22.481 C 365.776 22.144 364.479 28.659 364.479 28.659 C 364.479 28.659 358.962 26.13 355.261 31.238 C 351.56 36.346 356.475 41.029 356.475 41.029 C 356.475 41.029 354.254 42.43 354.594 44.931 C 354.888 47.094 356.954 47.627 357.199 48.702 C 357.445 49.777 356.084 50.41 355.384 49.644 C 355.384 49.644 355.612 51.498 357.945 51.371 C 360.279 51.244 362.353 48.078 362.353 48.078 L 386.069 71.715 Z " fill="rgb(44,61,67)"/><path d=" M 364.863 38.037 C 361.876 39.332 359.036 43.901 359.079 56.683 C 359.115 67.517 362.437 70.257 364.115 71.061 C 365.794 71.865 369.069 71.459 372.253 70.969 L 372.241 77.197 C 372.241 77.197 366.481 84.353 371.646 87.911 C 384.963 85.581 385.99 76.843 385.99 76.843 L 386.226 63.263 C 386.226 63.263 388.058 65.188 391.28 62.366 C 393.941 60.036 394.898 56.039 392.9 53.847 C 390.903 51.654 388.335 51.476 386.019 53.928 C 386.019 53.928 381.768 54.201 375.381 50.189 C 368.842 46.083 366.613 42.118 364.863 38.037 Z " fill="rgb(245,160,165)"/><path d=" M 372.541 63.467 C 372.573 64.352 371.908 65.093 371.056 65.122 C 370.204 65.15 369.488 64.455 369.455 63.571 C 369.423 62.685 370.088 61.944 370.94 61.916 C 371.791 61.888 372.509 62.582 372.541 63.467 Z " fill="rgb(195,110,112)"/><path d=" M 364.302 53.002 C 364.332 53.827 363.713 54.517 362.919 54.544 C 362.125 54.571 361.457 53.924 361.428 53.099 C 361.398 52.274 362.017 51.584 362.811 51.558 C 363.605 51.531 364.272 52.178 364.302 53.002 Z " fill="rgb(44,61,67)"/><path d=" M 375.379 53.645 C 375.412 54.53 374.747 55.271 373.895 55.3 C 373.043 55.329 372.326 54.634 372.294 53.749 C 372.262 52.863 372.927 52.123 373.779 52.094 C 374.63 52.065 375.348 52.76 375.379 53.645 Z " fill="rgb(44,61,67)"/><path d=" M 363.305 47.258 L 360.256 49.041 C 360.696 49.94 361.814 50.185 362.656 49.693 C 363.497 49.2 363.744 48.155 363.305 47.258 Z " fill="rgb(44,61,67)"/><path d=" M 385.996 52.161 L 385.96 58.18 C 384.35 58.234 383.053 56.93 383.064 55.268 C 383.074 53.607 384.388 52.216 385.996 52.161 Z " fill="rgb(44,61,67)"/><path d=" M 368.248 51.557 L 367.632 60.192 L 363.079 59.125 L 368.248 51.557 Z " fill="rgb(243,142,146)"/><path d=" M 372.253 70.969 C 375.608 70.577 382.529 68.651 383.655 65.839 C 383.655 65.839 383.264 67.612 381.174 69.408 C 379.082 71.202 372.249 73.065 372.249 73.065 L 372.253 70.969 Z " fill="rgb(243,142,146)"/><path d=" M 405.405 28.062 C 405.704 28.175 405.923 28.383 406.058 28.683 C 406.196 28.984 406.206 29.285 406.093 29.585 L 404.735 33.192 C 404.621 33.493 404.414 33.712 404.113 33.847 C 403.813 33.984 403.513 33.995 403.212 33.882 L 399.688 32.556 C 399.387 32.441 399.168 32.235 399.032 31.933 C 398.895 31.633 398.883 31.333 398.997 31.032 L 400.356 27.425 C 400.469 27.124 400.675 26.906 400.977 26.769 C 401.278 26.634 401.577 26.622 401.879 26.735 L 405.405 28.062 Z  M 412.53 4.165 C 413.815 4.648 414.998 5.297 416.08 6.11 C 417.161 6.923 418.044 7.856 418.724 8.908 C 419.405 9.959 419.839 11.105 420.027 12.347 C 420.214 13.587 420.056 14.877 419.552 16.216 C 419.141 17.308 418.612 18.194 417.967 18.872 C 417.322 19.549 416.612 20.108 415.838 20.55 C 415.064 20.991 414.26 21.36 413.432 21.656 C 412.603 21.952 411.817 22.234 411.078 22.5 C 410.337 22.768 409.657 23.082 409.039 23.441 C 408.419 23.801 407.956 24.267 407.648 24.836 C 407.48 25.117 407.259 25.329 406.987 25.476 C 406.712 25.623 406.425 25.639 406.125 25.526 L 403.01 24.353 C 402.709 24.24 402.484 24.031 402.334 23.724 C 402.185 23.418 402.179 23.121 402.321 22.83 C 402.776 21.785 403.353 20.933 404.053 20.277 C 404.753 19.62 405.503 19.076 406.306 18.644 C 407.108 18.213 407.928 17.86 408.765 17.582 C 409.603 17.305 410.384 17.03 411.112 16.757 C 411.837 16.485 412.469 16.176 413.003 15.832 C 413.539 15.489 413.915 15.029 414.131 14.454 C 414.522 13.417 414.406 12.398 413.784 11.399 C 413.161 10.401 412.126 9.629 410.678 9.083 C 408.356 8.208 406.21 8.727 404.243 10.638 C 403.993 10.888 403.765 11.058 403.56 11.152 C 403.352 11.247 403.071 11.226 402.715 11.092 L 399.396 9.842 C 399.151 9.749 398.968 9.587 398.853 9.357 C 398.738 9.126 398.731 8.874 398.833 8.601 C 399.22 7.655 399.883 6.788 400.819 6.002 C 401.753 5.216 402.845 4.598 404.091 4.146 C 405.337 3.696 406.694 3.449 408.159 3.409 C 409.626 3.368 411.082 3.62 412.53 4.165 Z " fill="rgb(0,179,169)"/><path d=" M 429.22 29.133 C 430.156 30.023 430.946 31.021 431.586 32.123 C 432.227 33.227 432.652 34.36 432.855 35.522 C 433.059 36.685 433.015 37.839 432.723 38.985 C 432.431 40.132 431.82 41.194 430.891 42.171 C 430.132 42.969 429.349 43.543 428.541 43.894 C 427.732 44.246 426.91 44.471 426.076 44.57 C 425.24 44.669 424.409 44.694 423.581 44.648 C 422.752 44.6 421.967 44.557 421.227 44.517 C 420.487 44.477 419.78 44.5 419.112 44.585 C 418.443 44.67 417.869 44.904 417.393 45.286 C 417.144 45.467 416.874 45.571 416.583 45.598 C 416.291 45.625 416.036 45.534 415.818 45.325 L 413.543 43.163 C 413.324 42.954 413.205 42.69 413.188 42.37 C 413.169 42.049 413.274 41.789 413.503 41.588 C 414.283 40.848 415.097 40.321 415.946 40.008 C 416.794 39.695 417.646 39.498 418.5 39.417 C 419.354 39.337 420.195 39.33 421.026 39.398 C 421.854 39.464 422.634 39.512 423.365 39.543 C 424.095 39.573 424.755 39.537 425.348 39.435 C 425.938 39.331 426.434 39.071 426.831 38.652 C 427.552 37.894 427.824 36.969 427.652 35.873 C 427.478 34.778 426.862 33.728 425.807 32.723 C 424.111 31.111 422.057 30.773 419.649 31.709 C 419.339 31.834 419.078 31.9 418.865 31.905 C 418.651 31.91 418.415 31.79 418.155 31.544 L 415.733 29.239 C 415.553 29.069 415.455 28.862 415.44 28.62 C 415.424 28.376 415.511 28.156 415.699 27.956 C 416.383 27.276 417.275 26.767 418.376 26.428 C 419.478 26.089 420.652 25.952 421.9 26.018 C 423.146 26.084 424.414 26.368 425.701 26.871 C 426.99 27.373 428.161 28.128 429.22 29.133 Z  M 414.26 47.262 C 414.479 47.471 414.593 47.73 414.601 48.042 C 414.609 48.354 414.508 48.619 414.3 48.838 L 411.797 51.47 C 411.588 51.69 411.328 51.804 411.017 51.811 C 410.705 51.819 410.441 51.719 410.221 51.51 L 407.649 49.064 C 407.429 48.855 407.316 48.597 407.308 48.285 C 407.299 47.973 407.4 47.709 407.61 47.489 L 410.112 44.856 C 410.32 44.637 410.579 44.523 410.892 44.515 C 411.202 44.508 411.467 44.607 411.688 44.816 L 414.26 47.262 Z " fill="rgb(0,179,169)"/><path d=" M 410.981 51.811 C 410.685 51.811 410.432 51.711 410.221 51.51 L 407.649 49.064 C 407.429 48.855 407.316 48.597 407.308 48.285 C 407.307 48.273 407.307 48.261 407.307 48.249 C 407.307 47.952 407.408 47.7 407.61 47.489 L 410.112 44.856 C 410.32 44.637 410.579 44.523 410.892 44.515 C 410.902 44.515 410.913 44.515 410.923 44.515 C 411.22 44.515 411.474 44.614 411.688 44.816 L 414.26 47.262 C 414.479 47.471 414.593 47.73 414.601 48.042 C 414.601 48.054 414.601 48.066 414.601 48.078 C 414.601 48.374 414.5 48.627 414.3 48.838 L 411.797 51.47 C 411.588 51.69 411.328 51.804 411.017 51.811 C 411.005 51.811 410.993 51.811 410.981 51.811 Z " fill="rgb(134,208,207)"/><path d=" M 416.484 45.602 C 416.233 45.602 416.011 45.51 415.818 45.325 L 413.543 43.163 C 413.324 42.954 413.205 42.69 413.188 42.37 C 413.186 42.344 413.186 42.32 413.186 42.296 C 413.186 42.008 413.292 41.773 413.503 41.588 C 414.283 40.848 415.097 40.321 415.946 40.008 C 416.794 39.695 417.646 39.498 418.5 39.417 C 418.965 39.374 419.427 39.352 419.885 39.352 C 420.267 39.352 420.648 39.367 421.026 39.398 C 421.854 39.464 422.634 39.512 423.365 39.543 C 423.532 39.55 423.694 39.553 423.853 39.553 C 424.392 39.553 424.89 39.514 425.348 39.435 C 425.938 39.331 426.434 39.071 426.831 38.652 C 427.411 38.042 427.701 37.324 427.702 36.495 C 427.702 36.294 427.685 36.087 427.652 35.873 C 427.478 34.778 426.862 33.728 425.807 32.723 C 424.734 31.703 423.518 31.193 422.16 31.193 C 421.371 31.193 420.534 31.365 419.649 31.709 C 419.339 31.834 419.078 31.9 418.865 31.905 C 418.861 31.905 418.857 31.905 418.853 31.905 C 418.641 31.905 418.41 31.785 418.155 31.544 L 415.733 29.239 C 415.553 29.069 415.455 28.862 415.44 28.62 C 415.438 28.601 415.438 28.582 415.438 28.563 C 415.438 28.342 415.526 28.14 415.699 27.956 C 416.383 27.276 417.275 26.767 418.376 26.428 C 419.298 26.144 420.271 26.002 421.295 26.002 C 421.494 26.002 421.696 26.007 421.9 26.018 C 423.146 26.084 424.414 26.368 425.701 26.871 C 426.99 27.373 428.161 28.128 429.22 29.133 C 430.156 30.023 430.946 31.021 431.586 32.123 C 432.227 33.227 432.652 34.36 432.855 35.522 C 432.939 36.004 432.981 36.484 432.981 36.962 C 432.98 37.64 432.894 38.314 432.723 38.985 C 432.431 40.132 431.82 41.194 430.891 42.171 C 430.132 42.969 429.349 43.543 428.541 43.894 C 427.732 44.246 426.91 44.471 426.076 44.57 C 425.508 44.637 424.942 44.67 424.378 44.67 C 424.112 44.67 423.847 44.663 423.581 44.648 C 422.752 44.6 421.967 44.557 421.227 44.517 C 420.993 44.504 420.762 44.498 420.535 44.498 C 420.044 44.498 419.569 44.527 419.112 44.585 C 418.443 44.67 417.869 44.904 417.393 45.286 C 417.144 45.467 416.874 45.571 416.583 45.598 C 416.549 45.601 416.516 45.602 416.484 45.602 Z " fill="rgb(134,208,207)"/><path d=" M 58.44 298.694 C 61.611 300.622 65.82 300.706 69.79 299.305 L 72.838 278.339 L 58.786 274.751 L 58.44 298.694 Z " fill="rgb(245,160,165)"/><path d=" M 81.03 318.795 C 81.372 319.152 81.161 321.78 80.732 322.381 C 80.271 323.025 77.891 324.971 73.461 325.05 C 69.227 325.125 65.491 324.353 63.1 322.648 C 60.709 320.943 59.603 319.144 59.499 316.729 C 59.396 314.314 59.788 312.011 58.742 310.099 C 57.776 308.335 56.453 306.596 56.136 305.65 C 55.446 303.594 56.112 300.48 56.112 300.48 L 81.03 318.795 Z " fill="rgb(44,61,67)"/><path d=" M 70.761 298.42 C 70.784 299.316 70.887 300.209 71.132 301.12 C 71.643 303.015 72.478 304.819 73.431 306.543 C 73.922 307.431 74.444 308.305 75.056 309.118 C 76.25 310.705 77.767 312.037 79.039 313.565 C 80.312 315.094 81.364 316.921 81.365 318.883 C 81.367 322.2 77.716 323.131 74.926 323.474 C 71.946 323.841 68.804 323.514 65.967 322.54 C 62.811 321.457 60.632 318.849 60.272 315.623 C 60.169 314.697 60.276 313.76 60.217 312.831 C 60.082 310.709 59.095 308.724 57.955 306.905 C 57.295 305.849 56.57 304.814 56.152 303.649 C 55.399 301.555 56.214 299.288 56.875 297.279 C 57.447 295.542 57.902 293.45 58.513 293.649 C 58.496 294.005 58.496 294.782 58.496 294.782 C 58.679 295.176 59.121 295.458 59.225 295.912 C 59.334 296.385 59.462 296.854 59.654 297.301 C 59.947 297.983 60.399 298.617 61.034 299 C 61.143 297.754 61.251 296.507 61.36 295.261 C 61.393 294.875 61.441 294.457 61.707 294.176 C 61.977 293.891 62.4 293.825 62.789 293.773 C 65.149 293.465 67.553 293.157 69.897 293.569 C 70.248 293.63 70.634 293.733 70.824 294.035 C 70.98 294.283 70.961 294.598 70.936 294.889 C 70.835 296.091 70.73 297.256 70.761 298.42 Z " fill="rgb(0,179,169)"/><path d=" M 72.517 323.621 C 70.293 323.621 68.048 323.254 65.967 322.54 C 62.811 321.457 60.632 318.849 60.272 315.623 C 60.234 315.283 60.224 314.941 60.225 314.599 C 60.225 314.243 60.235 313.886 60.236 313.529 C 60.236 313.296 60.231 313.063 60.217 312.831 C 60.082 310.709 59.095 308.724 57.955 306.905 C 57.295 305.849 56.57 304.814 56.152 303.649 C 55.937 303.052 55.85 302.44 55.85 301.825 C 55.851 300.283 56.403 298.715 56.875 297.279 C 57.421 295.62 57.861 293.636 58.432 293.636 C 58.459 293.636 58.486 293.64 58.513 293.649 C 58.513 293.651 58.513 293.652 58.513 293.653 C 58.496 294.01 58.496 294.782 58.496 294.782 L 58.496 294.782 L 58.496 294.782 C 58.679 295.176 59.121 295.458 59.225 295.912 C 59.334 296.385 59.462 296.854 59.654 297.301 C 59.947 297.983 60.399 298.617 61.034 299 C 61.143 297.754 61.251 296.507 61.36 295.261 C 61.393 294.875 61.441 294.457 61.707 294.176 C 61.977 293.891 62.4 293.825 62.789 293.773 C 64.332 293.571 65.895 293.37 67.447 293.37 C 68.268 293.37 69.086 293.426 69.897 293.569 C 70.248 293.63 70.634 293.733 70.824 294.035 C 70.925 294.196 70.953 294.384 70.953 294.577 C 70.953 294.681 70.945 294.787 70.936 294.889 C 70.847 295.95 70.755 296.983 70.755 298.011 C 70.755 298.147 70.757 298.284 70.761 298.42 C 70.784 299.316 70.887 300.209 71.132 301.12 C 71.643 303.015 72.478 304.819 73.431 306.543 C 73.922 307.431 74.444 308.305 75.056 309.118 C 76.25 310.705 77.767 312.037 79.039 313.565 C 80.312 315.094 81.364 316.921 81.365 318.883 C 81.367 322.2 77.716 323.131 74.926 323.474 C 74.132 323.572 73.326 323.621 72.517 323.621 Z " fill="rgb(0,175,156)"/><path d=" M 73.839 307.261 C 72.657 306.272 69.898 306.111 68.38 306.191 C 66.479 306.292 64.913 306.872 64.01 307.466 C 63.609 307.729 63.073 307.651 62.752 307.298 C 62.365 306.874 62.439 306.214 62.921 305.898 C 63.878 305.27 65.596 304.406 67.844 304.369 C 71.572 304.307 72.627 305.002 72.627 305.002 C 72.627 305.002 74.262 306.184 73.839 307.261 Z " fill="rgb(67,96,105)"/><path d=" M 76.49 310.802 C 74.99 309.804 71.948 309.772 70.429 309.852 C 68.529 309.954 67.075 310.621 66.172 311.215 C 65.772 311.478 65.236 311.4 64.914 311.047 C 64.528 310.622 64.601 309.962 65.083 309.646 C 66.041 309.018 67.87 308.018 70.118 307.981 C 73.846 307.919 74.773 308.73 74.773 308.73 C 74.773 308.73 76.307 309.421 76.49 310.802 Z " fill="rgb(67,96,105)"/><path d=" M 66.556 300.735 C 69.137 300.608 70.21 300.954 71.204 301.378 C 71.839 301.78 72.214 302.837 71.779 303.076 C 70.977 302.572 69.499 302.302 67.671 302.285 C 66.444 302.273 64.876 302.686 63.595 303.172 C 63.27 303.296 62.884 303.474 62.544 303.638 C 62.087 303.86 61.532 303.655 61.343 303.193 C 61.183 302.8 61.342 302.351 61.722 302.149 C 62.649 301.654 64.471 300.837 66.556 300.735 Z " fill="rgb(67,96,105)"/><path d=" M 97.895 290.807 C 100.332 296.919 104.156 295.034 109.972 291.517 L 110.853 270.658 L 96.044 269.287 L 97.895 290.807 Z " fill="rgb(245,160,165)"/><path d=" M 132.319 305.511 C 132.627 306.254 132.453 307.607 131.996 308.447 C 131.538 309.286 126.902 311.581 120.855 310.846 C 114.807 310.109 110.771 307.44 108.539 305.783 C 106.307 304.127 103.914 303.711 100.917 303.377 C 97.921 303.043 95.663 301.999 95.08 300.558 C 94.496 299.117 95.385 296.737 95.385 296.737 L 132.319 305.511 Z " fill="rgb(44,61,67)"/><path d=" M 108.758 286.283 C 109.315 286.184 109.778 286.01 110.371 285.829 C 110.666 285.738 110.991 285.649 111.274 285.773 C 111.654 285.94 111.781 286.406 111.863 286.813 C 112.03 287.645 112.059 288.714 112.383 289.485 C 112.677 290.186 113.449 290.856 113.99 291.366 C 115.396 292.69 117.035 293.757 118.679 294.758 C 120.605 295.931 122.503 296.862 124.5 297.893 C 126.538 298.944 129.279 299.667 130.853 300.857 C 133.149 302.59 133.239 306.64 130.441 308.087 C 128.026 309.335 121.786 310.493 115.424 308.315 C 111.959 307.129 108.255 303.159 103.656 302.549 C 100.73 302.16 96.829 301.703 95.058 299.371 C 94.412 298.345 94.973 295.477 95.497 292.081 C 95.966 289.042 96.396 284.287 97.361 284.6 L 97.441 285.521 C 97.441 285.521 98.32 286.584 98.606 286.934 C 98.858 287.241 99.15 287.437 99.427 287.71 C 99.783 288.06 100.069 288.459 100.462 288.775 C 100.947 289.164 101.533 289.455 102.155 289.48 C 102.449 289.493 102.752 289.443 103.008 289.296 C 103.506 289.011 103.572 288.355 103.976 287.948 C 104.435 287.484 105.004 287.127 105.609 286.887 C 106.455 286.552 107.36 286.42 108.262 286.347 C 108.438 286.332 108.602 286.31 108.758 286.283 Z " fill="rgb(0,179,169)"/><path d=" M 122.882 309.535 C 120.583 309.535 118.014 309.202 115.424 308.315 C 111.959 307.129 108.255 303.159 103.656 302.549 C 100.73 302.16 96.829 301.703 95.058 299.371 C 94.851 299.043 94.768 298.525 94.768 297.861 C 94.768 296.454 95.141 294.39 95.497 292.081 C 95.951 289.138 96.369 284.585 97.271 284.585 C 97.301 284.585 97.331 284.59 97.361 284.6 L 97.441 285.521 C 97.441 285.521 98.32 286.584 98.606 286.934 C 98.858 287.241 99.15 287.437 99.427 287.71 C 99.783 288.06 100.069 288.459 100.462 288.775 C 100.947 289.164 101.533 289.455 102.155 289.48 C 102.183 289.482 102.212 289.482 102.24 289.482 C 102.507 289.482 102.777 289.429 103.008 289.296 C 103.506 289.011 103.572 288.355 103.976 287.948 C 104.435 287.484 105.004 287.127 105.609 286.887 C 106.455 286.552 107.36 286.42 108.262 286.347 C 108.438 286.332 108.602 286.31 108.758 286.283 C 109.315 286.184 109.778 286.01 110.371 285.829 C 110.562 285.77 110.765 285.712 110.962 285.712 C 111.069 285.712 111.174 285.729 111.274 285.773 C 111.654 285.94 111.781 286.406 111.863 286.813 C 112.03 287.645 112.059 288.714 112.383 289.485 C 112.677 290.186 113.449 290.856 113.99 291.366 C 115.396 292.69 117.035 293.757 118.679 294.758 C 120.605 295.931 122.503 296.862 124.5 297.893 C 126.538 298.944 129.279 299.667 130.853 300.857 C 131.965 301.696 132.56 303.08 132.559 304.447 C 132.559 305.903 131.884 307.341 130.441 308.087 C 129.009 308.827 126.231 309.535 122.882 309.535 Z " fill="rgb(0,175,156)"/><path d=" M 116.022 293.013 C 116.022 293.013 115.66 291.864 113.93 291.445 C 112.607 291.124 110.194 291.982 108.661 293.112 C 108.034 293.575 108.061 294.518 108.722 294.931 C 109.116 295.177 109.615 295.145 109.982 294.859 C 110.988 294.074 113.227 292.669 116.022 293.013 Z " fill="rgb(67,96,105)"/><path d=" M 120.039 295.556 C 120.039 295.556 119.248 294.16 117.54 294.094 C 117.54 294.094 114.044 294.006 111.776 295.904 C 111.197 296.388 111.189 297.264 111.829 297.662 C 112.21 297.898 112.692 297.867 113.043 297.587 C 114.062 296.77 116.112 295.049 120.039 295.556 Z " fill="rgb(67,96,105)"/><path d=" M 124.5 297.893 C 124.5 297.893 123.604 296.62 121.895 296.554 C 121.895 296.554 118.637 296.5 116.369 298.397 C 115.79 298.881 115.781 299.758 116.422 300.156 C 116.803 300.392 117.285 300.361 117.634 300.081 C 118.655 299.264 120.572 297.386 124.5 297.893 Z " fill="rgb(67,96,105)"/><path d=" M 58.042 242.394 C 58.492 232.329 60.635 227.081 60.939 224.29 C 60.939 224.29 61.761 168.898 63.107 152.084 L 112.708 149.976 C 113.44 167.931 114.1 216.339 113.716 222.735 C 113.347 228.862 110.853 282.036 110.853 282.036 C 103.839 284.22 96.386 281.071 96.386 281.071 C 96.386 281.071 92.225 250.827 91.542 244.157 C 90.657 235.523 92.01 226.148 92.01 226.148 L 88.841 183.079 C 88.841 183.079 85.008 216.471 83.115 229.048 C 80.945 243.458 71.651 288.123 71.651 288.123 C 64.96 289.798 58.44 286.905 58.44 286.905 C 58.44 286.905 57.388 256.99 58.042 242.394 Z " fill="rgb(67,96,105)"/><path d=" M 88.839 183.08 L 89.777 177.147 C 92.667 176.718 99.983 172.147 104.318 168.154 C 104.318 168.154 100.401 174.793 92.157 179.362 L 92.01 226.148 L 88.839 183.08 Z " fill="rgb(56,79,86)"/><path d=" M 109.176 120.795 C 105.801 113.103 100.007 100.152 100.007 100.152 L 98.532 79.104 C 98.532 79.104 101.818 79.189 104.943 79.677 C 108.069 80.165 113.012 83.147 115.28 88.763 C 116.964 92.935 125.745 118.378 125.745 118.378 L 141.048 110.313 C 144.965 107.82 146.353 103.697 148.855 101.354 C 151.358 99.011 153.887 98.613 156.622 96.705 C 159.357 94.796 160.491 93.265 161.187 95.17 C 161.883 97.076 158.786 100.012 158.226 100.744 C 157.667 101.476 154.613 103.037 158.461 103.237 C 162.308 103.437 170.069 99.697 171.927 99.057 C 173.785 98.416 173.622 100.622 172.657 101.99 C 171.692 103.358 171.586 107.382 169.964 109.639 C 168.244 112.034 167.316 113.065 163.629 114.49 C 160.195 115.818 153.091 116.153 149.426 118.268 C 145.761 120.383 136.902 128.389 130.997 132.496 C 123.067 138.013 118.603 138.373 115.498 133.975 C 112.393 129.577 110.364 123.503 109.176 120.795 Z " fill="rgb(245,160,165)"/><path d=" M 96.468 78.706 C 101.661 78.307 107.792 78.626 111.19 81.728 C 113.894 84.196 114.913 85.773 117.934 94.261 C 119.975 99.991 124.212 113.19 124.212 113.19 C 124.212 113.19 115.212 114.793 109.162 122.389 L 99.416 100.479 L 96.468 78.706 Z " fill="rgb(216,217,217)"/><path d=" M 125.745 118.378 C 122.357 119.592 120.092 121.97 119.279 123.341 C 119.279 123.341 119.644 119.318 125.253 116.955 L 125.745 118.378 Z " fill="rgb(243,142,146)"/><path d=" M 84.018 77.769 C 84.018 77.769 80.678 77.515 76.71 78.564 C 72.139 79.772 63.949 82.072 63.949 82.072 C 61.349 83.426 60.333 87.928 59.745 90.516 C 57.863 98.8 62.788 117.552 63.5 124.808 C 64.213 132.062 62.656 154.429 62.656 154.429 C 68.248 160.903 98.533 165.202 113.283 154.43 C 113.283 154.43 113.926 103.161 112.472 95.799 C 110.273 84.668 107.01 79.375 95.499 78.706 L 84.018 77.769 Z " fill="rgb(239,238,237)"/><path d=" M 90.49 50.259 L 87.199 52.076 C 86.714 51.13 87.058 49.957 87.966 49.455 C 88.875 48.954 90.005 49.314 90.49 50.259 Z " fill="rgb(44,61,67)"/><path d=" M 104.792 51.584 L 101.791 49.273 C 102.403 48.414 103.571 48.234 104.4 48.873 C 105.228 49.511 105.404 50.724 104.792 51.584 Z " fill="rgb(44,61,67)"/><path d=" M 75.366 39.789 C 75.366 39.789 71.828 40.283 70.531 42.949 C 69.402 45.269 69.811 50.868 71.314 56.97 C 72.818 63.072 74.235 66.748 75.119 68.436 C 76.004 70.125 77.821 70.6 77.821 70.6 L 77.644 63.359 L 77.382 58.314 C 77.382 58.314 80.621 53.892 80.977 50.267 C 81.434 45.602 80.452 43.693 80.452 43.693 L 75.366 39.789 Z " fill="rgb(44,61,67)"/><path d=" M 81.079 46.796 C 81.103 54.263 87.177 60.297 94.644 60.272 C 102.111 60.248 107.708 54.123 107.684 46.656 C 107.66 39.188 102.023 33.207 94.556 33.231 C 87.089 33.256 81.055 39.329 81.079 46.796 Z " fill="rgb(44,61,67)"/><path d=" M 77.573 57.509 C 76.356 58.564 75.365 55.833 74.342 54.768 C 73.318 53.704 69.981 52.255 68.331 55.763 C 66.649 59.337 69.786 64.363 72.353 65.349 C 75.135 66.417 76.71 64.014 76.71 64.014 L 76.71 80.059 C 80.558 86.991 87.35 86.778 90.975 86.388 C 94.6 85.998 95.397 82.226 92.747 79.183 L 92.718 74.222 C 92.718 74.222 96.815 74.83 98.812 74.515 C 102.134 73.99 103.871 71.484 104.868 67.882 C 106.469 62.098 107.112 52.376 104.888 41.145 C 101.166 38.267 88.261 38.743 80.452 43.693 C 81.024 53.654 78.789 56.454 77.573 57.509 Z " fill="rgb(245,160,165)"/><path d=" M 105.504 35.476 C 106.005 33.395 106.231 31.248 106.176 29.108 C 106.154 28.261 105.969 27.243 105.182 26.929 C 104.418 26.625 103.614 27.186 102.933 27.646 C 100.057 29.589 96.472 30.136 93.007 30.326 C 87.025 30.655 77.832 30.264 74.782 36.832 C 73.936 38.653 73.791 40.572 75.463 41.832 C 76.889 42.906 78.717 43.392 80.452 43.693 C 83.483 44.221 86.489 44.888 89.541 45.293 C 92.649 45.705 96.273 46.109 99.328 45.167 C 101.893 44.375 104.502 43.695 106.418 41.652 C 108.063 39.899 109.018 37.516 109.04 35.113 C 109.043 34.771 108.962 34.341 108.63 34.259 C 108.463 34.218 108.29 34.286 108.132 34.354 C 107.256 34.728 106.38 35.103 105.504 35.476 Z " fill="rgb(44,61,67)"/><path d=" M 92.718 74.222 C 92.718 74.222 85.293 72.751 82.694 71.38 C 80.955 70.463 79.519 68.868 79.096 67.844 C 79.096 67.844 79.59 70.044 81.147 72.022 C 83.053 74.441 92.724 76.196 92.724 76.196 L 92.718 74.222 Z " fill="rgb(243,142,146)"/><path d=" M 91.225 55.179 C 91.228 56.135 90.485 56.91 89.565 56.911 C 88.645 56.911 87.897 56.137 87.893 55.181 C 87.89 54.225 88.634 53.45 89.553 53.449 C 90.473 53.449 91.221 54.224 91.225 55.179 Z " fill="rgb(44,61,67)"/><path d=" M 93.622 66.726 C 93.625 67.625 92.926 68.353 92.061 68.354 C 91.196 68.354 90.493 67.626 90.49 66.728 C 90.487 65.829 91.186 65.1 92.051 65.099 C 92.916 65.099 93.619 65.828 93.622 66.726 Z " fill="rgb(195,110,112)"/><path d=" M 89.125 49.924 L 85.681 52.093 C 85.097 51.102 85.395 49.812 86.346 49.213 C 87.297 48.614 88.541 48.933 89.125 49.924 Z " fill="rgb(44,61,67)"/><path d=" M 101.268 47.804 L 104.887 49.42 C 104.474 50.444 103.33 50.913 102.331 50.466 C 101.332 50.019 100.856 48.828 101.268 47.804 Z " fill="rgb(44,61,67)"/><path d=" M 103.176 54.675 C 103.179 55.599 102.461 56.348 101.572 56.348 C 100.683 56.348 99.96 55.601 99.957 54.676 C 99.954 53.753 100.672 53.004 101.561 53.003 C 102.45 53.003 103.174 53.751 103.176 54.675 Z " fill="rgb(44,61,67)"/><path d=" M 94.998 51.854 L 95.591 62.97 L 100.863 61.574 L 94.998 51.854 Z " fill="rgb(243,142,146)"/><path d=" M 1.597 97.655 C 3.326 98.589 10.375 103.543 14.203 103.973 C 15.825 104.154 16.265 103.893 16.2 103.471 C 16.112 102.895 15.09 102.02 14.841 101.551 C 14.408 100.737 11.83 97.336 12.827 95.569 C 13.824 93.803 14.693 95.498 17.081 97.827 C 19.469 100.155 21.9 100.959 23.988 103.679 C 26.075 106.398 26.773 110.691 30.231 113.788 L 44.018 123.192 C 44.018 123.192 50.436 93.4 53.253 89.892 C 56.212 86.207 69.13 94.245 66.429 105.972 C 63.729 117.698 57.598 138.04 53.344 142.037 C 50.591 144.622 44.776 142.18 37.525 135.73 C 31.798 130.637 23.942 122.956 20.671 120.273 C 17.399 117.59 10.444 116.103 7.272 114.234 C 3.866 112.227 3.119 111.059 1.811 108.416 C 0.579 105.925 1.129 101.937 0.399 100.431 C -0.33 98.924 -0.132 96.721 1.597 97.655 Z " fill="rgb(245,160,165)"/><path d=" M 63.949 82.072 C 68.363 84.838 68.587 88.859 68.806 93.454 C 69.008 97.685 68.157 103.522 66.288 109.292 C 64.413 115.08 61.443 125.654 61.443 125.654 C 61.443 125.654 49.902 125.921 43.964 120.791 C 43.964 120.791 46.673 109.397 48.584 100.83 C 50.496 92.262 52.821 83.042 63.949 82.072 Z " fill="rgb(216,217,217)"/><path d=" M 44.018 123.192 C 47.163 124.941 49.01 128.702 49.589 130.187 C 49.589 130.187 49.491 124.904 44.342 121.659 L 44.018 123.192 Z " fill="rgb(243,142,146)"/><path d=" M 163.737 339.328 L 240.916 383.888 L 240.916 400.305 L 163.737 355.745 L 163.737 339.328 Z " fill="rgb(0,179,169)"/><path d=" M 240.916 400.305 L 163.737 355.745 L 163.737 339.328 L 240.916 383.888 L 240.916 400.305 Z  M 201.196 375.454 C 201.87 375.83 202.507 376.008 203.074 376.008 C 203.567 376.008 204.007 375.873 204.372 375.616 C 204.814 375.352 205.962 374.661 206.098 374.583 C 206.89 374.127 207.382 373.152 207.382 371.758 C 207.382 368.969 205.424 365.579 203.009 364.184 C 202.31 363.781 201.65 363.59 201.064 363.59 C 200.638 363.59 200.252 363.691 199.919 363.884 C 199.78 363.965 198.564 364.696 198.15 364.943 C 197.288 365.368 196.748 366.374 196.748 367.838 C 196.748 370.626 198.706 374.017 201.121 375.411 L 201.121 375.411 C 201.146 375.426 201.171 375.44 201.196 375.454 Z " fill="rgb(0,160,138)"/><path d=" M 318.095 339.328 L 240.916 383.888 L 240.916 400.305 L 318.095 355.745 L 318.095 339.328 Z " fill="rgb(0,179,169)"/><path d=" M 240.916 400.305 L 240.916 383.888 L 318.095 339.328 L 318.095 355.745 L 240.916 400.305 Z " fill="rgb(0,175,156)"/><path d=" M 318.095 339.328 L 240.915 294.769 L 163.737 339.328 L 240.916 383.888 L 318.095 339.328 Z " fill="rgb(0,179,169)"/><path d=" M 240.916 383.888 L 240.916 379.198 L 171.86 339.328 L 163.737 339.328 L 240.915 294.769 L 318.095 339.328 L 240.915 294.769 L 240.916 299.46 L 309.971 339.328 L 318.095 339.328 L 240.916 383.888 Z " fill="rgb(0,176,160)"/><path d=" M 240.916 383.888 L 240.916 383.888 L 163.737 339.328 L 171.86 339.328 L 240.916 379.198 L 240.916 383.888 Z " fill="rgb(0,174,153)"/><path d=" M 318.095 339.328 L 309.971 339.328 L 240.916 299.46 L 240.915 294.769 L 318.095 339.328 Z " fill="rgb(0,174,153)"/><path d=" M 318.095 339.329 L 309.971 339.329 L 240.916 379.198 L 240.916 383.888 L 318.095 339.329 Z " fill="rgb(0,179,169)"/><path d=" M 240.915 294.769 L 240.916 299.46 L 171.86 339.329 L 163.737 339.329 L 240.915 294.769 Z " fill="rgb(0,179,169)"/><path d=" M 241.195 320.02 L 274.359 339.168 C 276.84 340.6 276.84 342.923 274.359 344.356 L 249.624 358.637 C 247.142 360.069 243.119 360.069 240.637 358.637 L 207.473 339.489 C 204.992 338.057 204.992 335.734 207.473 334.301 L 232.208 320.02 C 234.689 318.588 238.712 318.588 241.195 320.02 Z " fill="rgb(56,79,86)"/><path d=" M 249.624 358.637 L 273.541 344.828 L 241.195 326.153 C 238.712 324.72 234.689 324.72 232.208 326.153 L 208.291 339.961 L 240.637 358.637 C 243.119 360.069 247.142 360.069 249.624 358.637 Z " fill="rgb(67,96,105)"/><path d=" M 221.171 339.357 L 235.678 330.981 C 236.156 330.704 236.933 330.704 237.411 330.978 L 239.197 332.003 C 239.675 332.278 239.676 332.725 239.197 333.001 L 224.69 341.378 C 224.212 341.654 223.436 341.655 222.957 341.38 L 221.172 340.355 C 220.693 340.079 220.693 339.633 221.171 339.357 Z " fill="rgb(44,61,67)"/><path d=" M 242.841 351.887 L 257.348 343.511 C 257.826 343.235 258.602 343.234 259.081 343.509 L 260.866 344.533 C 261.345 344.809 261.346 345.255 260.867 345.531 L 246.361 353.908 C 245.882 354.184 245.106 354.185 244.627 353.91 L 242.842 352.885 C 242.363 352.61 242.363 352.163 242.841 351.887 Z " fill="rgb(44,61,67)"/><path d=" M 207.382 371.758 C 207.382 368.969 205.424 365.579 203.009 364.184 C 201.801 363.487 200.71 363.425 199.919 363.884 C 199.76 363.977 198.188 364.922 198.026 365.016 C 197.238 365.473 196.749 366.448 196.749 367.838 C 196.749 370.626 198.706 374.017 201.121 375.411 C 202.331 376.11 203.423 376.171 204.214 375.71 C 204.372 375.618 205.938 374.675 206.098 374.583 C 206.89 374.127 207.382 373.152 207.382 371.758 Z " fill="rgb(0,179,169)"/><path d=" M 203.074 376.008 C 202.507 376.008 201.87 375.83 201.196 375.454 C 201.868 375.828 202.502 376.006 203.066 376.006 C 203.493 376.006 203.88 375.904 204.214 375.71 C 204.238 375.696 204.294 375.663 204.372 375.616 C 204.007 375.873 203.567 376.008 203.074 376.008 Z  M 201.121 375.411 L 201.121 375.411 C 198.706 374.017 196.748 370.626 196.748 367.838 C 196.748 366.374 197.288 365.368 198.15 364.943 C 198.09 364.979 198.046 365.005 198.026 365.016 C 197.238 365.473 196.749 366.448 196.749 367.838 C 196.749 370.626 198.706 374.017 201.121 375.411 L 201.121 375.411 Z " fill="rgb(0,143,124)"/><path d=" M 203.066 376.006 C 202.502 376.006 201.868 375.828 201.196 375.454 C 201.171 375.44 201.146 375.426 201.121 375.411 L 201.121 375.411 C 198.706 374.017 196.749 370.626 196.749 367.838 C 196.749 366.448 197.238 365.473 198.026 365.016 C 198.046 365.005 198.09 364.979 198.15 364.943 C 198.453 364.794 198.795 364.716 199.168 364.716 C 199.756 364.716 200.419 364.908 201.121 365.313 C 203.536 366.708 205.493 370.098 205.493 372.887 C 205.493 374.185 205.069 375.124 204.372 375.616 C 204.294 375.663 204.238 375.696 204.214 375.71 C 203.88 375.904 203.493 376.006 203.066 376.006 Z " fill="rgb(0,177,163)"/><path d=" M 150.382 397.257 C 145.346 397.257 140.31 396.124 136.386 393.86 L 85.188 364.3 C 81.073 361.924 78.807 358.645 78.807 355.067 C 78.807 351.49 81.074 348.211 85.188 345.835 L 144.51 311.585 C 151.009 307.833 156.501 298.323 156.501 290.818 L 156.501 103.088 C 156.501 101.983 157.396 101.088 158.501 101.088 C 159.605 101.088 160.501 101.983 160.501 103.088 L 160.501 290.818 C 160.501 299.876 154.355 310.521 146.51 315.05 L 87.188 349.3 C 84.363 350.931 82.807 352.979 82.807 355.067 C 82.807 357.156 84.363 359.204 87.188 360.835 L 138.386 390.395 C 144.998 394.212 155.758 394.213 162.369 390.398 L 200.121 368.614 C 201.079 368.061 202.301 368.39 202.853 369.346 C 203.405 370.303 203.077 371.527 202.121 372.079 L 164.369 393.863 C 160.447 396.125 155.415 397.257 150.382 397.257 Z " fill="rgb(56,79,86)"/><path d=" M 56.484 10.238 C 56.429 9.956 56.485 9.692 56.651 9.446 C 56.818 9.199 57.042 9.048 57.324 8.994 L 62.194 8.056 C 62.478 8.001 62.741 8.058 62.986 8.224 C 63.234 8.391 63.384 8.616 63.438 8.898 L 66.646 25.551 C 66.7 25.834 66.645 26.098 66.478 26.343 C 66.313 26.59 66.088 26.739 65.804 26.794 L 60.935 27.732 C 60.653 27.786 60.388 27.731 60.143 27.565 C 59.896 27.399 59.747 27.174 59.692 26.891 L 56.484 10.238 Z  M 60.541 31.295 C 60.487 31.012 60.541 30.748 60.708 30.5 C 60.875 30.255 61.1 30.105 61.382 30.051 L 66.251 29.113 C 66.535 29.058 66.799 29.115 67.044 29.279 C 67.29 29.446 67.441 29.671 67.495 29.954 L 68.247 33.856 C 68.302 34.14 68.246 34.405 68.078 34.649 C 67.913 34.896 67.689 35.046 67.405 35.101 L 62.536 36.039 C 62.254 36.093 61.99 36.038 61.742 35.87 C 61.497 35.705 61.347 35.48 61.293 35.197 L 60.541 31.295 Z " fill="rgb(0,179,169)"/><path d=" M 38.115 31.64 C 37.923 31.425 37.835 31.169 37.851 30.872 C 37.868 30.575 37.982 30.331 38.196 30.14 L 41.89 26.832 C 42.106 26.639 42.362 26.551 42.657 26.568 C 42.955 26.582 43.198 26.699 43.39 26.914 L 54.704 39.546 C 54.897 39.76 54.986 40.016 54.968 40.313 C 54.952 40.609 54.837 40.853 54.621 41.046 L 50.928 44.354 C 50.714 44.545 50.459 44.633 50.161 44.618 C 49.867 44.601 49.622 44.487 49.429 44.27 L 38.115 31.64 Z  M 52.422 47.612 C 52.229 47.398 52.141 47.142 52.157 46.845 C 52.175 46.547 52.289 46.304 52.503 46.113 L 56.197 42.805 C 56.413 42.612 56.668 42.523 56.963 42.54 C 57.261 42.557 57.505 42.671 57.697 42.886 L 60.348 45.847 C 60.542 46.063 60.63 46.317 60.612 46.614 C 60.597 46.909 60.48 47.154 60.265 47.347 L 56.572 50.655 C 56.358 50.847 56.103 50.935 55.806 50.918 C 55.51 50.904 55.265 50.787 55.073 50.573 L 52.422 47.612 Z " fill="rgb(0,179,169)"/><path d=" M 55.876 50.92 C 55.853 50.92 55.829 50.92 55.806 50.918 C 55.51 50.904 55.265 50.787 55.073 50.573 L 52.422 47.612 C 52.244 47.415 52.155 47.182 52.155 46.914 C 52.155 46.891 52.155 46.868 52.157 46.845 C 52.175 46.547 52.289 46.304 52.503 46.113 L 56.197 42.805 C 56.395 42.627 56.627 42.538 56.892 42.538 C 56.915 42.538 56.939 42.539 56.963 42.54 C 57.261 42.557 57.505 42.671 57.697 42.886 L 60.348 45.847 C 60.525 46.044 60.614 46.273 60.614 46.539 C 60.614 46.563 60.614 46.589 60.612 46.614 C 60.597 46.909 60.48 47.154 60.265 47.347 L 56.572 50.655 C 56.375 50.832 56.143 50.92 55.876 50.92 Z  M 50.225 44.62 C 50.204 44.62 50.183 44.619 50.161 44.618 C 49.867 44.601 49.622 44.487 49.429 44.27 L 38.115 31.64 C 37.938 31.442 37.85 31.209 37.849 30.941 C 37.849 30.919 37.85 30.896 37.851 30.872 C 37.868 30.575 37.982 30.331 38.196 30.14 L 41.89 26.832 C 42.088 26.655 42.321 26.566 42.586 26.566 C 42.61 26.566 42.633 26.566 42.657 26.568 C 42.955 26.582 43.198 26.699 43.39 26.914 L 54.704 39.546 C 54.881 39.742 54.97 39.972 54.97 40.238 C 54.97 40.263 54.969 40.288 54.968 40.313 C 54.952 40.609 54.837 40.853 54.621 41.046 L 50.928 44.354 C 50.729 44.531 50.495 44.62 50.225 44.62 Z " fill="rgb(134,208,207)"/><path d=" M 143.61 9.254 L 147.54 9.254 C 148.504 9.254 149.272 9.064 149.847 8.684 C 150.422 8.304 150.71 7.641 150.71 6.693 C 150.71 5.747 150.422 5.092 149.847 4.728 C 149.272 4.365 148.504 4.184 147.54 4.184 L 143.61 4.184 L 143.61 9.254 Z  M 147.667 1.014 C 149.712 1.014 151.301 1.496 152.433 2.459 C 153.565 3.423 154.133 4.834 154.133 6.693 C 154.133 8.553 153.565 9.973 152.433 10.953 C 151.301 11.933 149.712 12.424 147.667 12.424 L 143.61 12.424 L 143.61 18.078 C 143.61 18.264 143.543 18.424 143.407 18.56 C 143.272 18.695 143.111 18.762 142.926 18.762 L 140.872 18.762 C 140.685 18.762 140.525 18.695 140.39 18.56 C 140.255 18.424 140.187 18.264 140.187 18.078 L 140.187 1.699 C 140.187 1.513 140.255 1.352 140.39 1.217 C 140.525 1.082 140.685 1.014 140.872 1.014 L 147.667 1.014 Z " fill="rgb(67,96,105)"/><path d=" M 160.623 15.973 C 161.197 15.973 161.709 15.893 162.157 15.732 C 162.604 15.572 162.981 15.356 163.285 15.086 C 163.59 14.815 163.818 14.511 163.969 14.173 C 164.122 13.835 164.198 13.489 164.198 13.134 L 164.198 12.88 L 160.75 13.489 C 160.056 13.607 159.558 13.78 159.254 14.008 C 158.95 14.236 158.798 14.545 158.798 14.933 C 158.798 15.289 158.979 15.551 159.342 15.72 C 159.706 15.889 160.133 15.973 160.623 15.973 Z  M 156.388 8.823 C 156.456 8.468 156.613 8.088 156.858 7.683 C 157.102 7.277 157.449 6.896 157.897 6.541 C 158.345 6.186 158.894 5.895 159.546 5.667 C 160.196 5.438 160.953 5.325 161.814 5.325 C 162.676 5.325 163.454 5.438 164.147 5.667 C 164.841 5.895 165.436 6.229 165.934 6.668 C 166.433 7.108 166.818 7.662 167.089 8.329 C 167.358 8.997 167.494 9.761 167.494 10.623 L 167.494 18.078 C 167.494 18.264 167.426 18.424 167.291 18.56 C 167.156 18.695 166.995 18.762 166.809 18.762 L 164.883 18.762 C 164.696 18.762 164.536 18.695 164.401 18.56 C 164.265 18.424 164.198 18.264 164.198 18.078 L 164.198 17.241 C 163.842 17.731 163.332 18.15 162.664 18.496 C 161.996 18.842 161.146 19.016 160.116 19.016 C 159.389 19.016 158.738 18.918 158.164 18.724 C 157.589 18.53 157.107 18.255 156.718 17.9 C 156.33 17.545 156.029 17.127 155.818 16.645 C 155.607 16.164 155.502 15.635 155.502 15.06 C 155.502 13.894 155.916 12.981 156.744 12.322 C 157.572 11.663 158.679 11.215 160.065 10.978 L 164.198 10.269 C 164.198 9.576 163.969 9.085 163.513 8.798 C 163.057 8.511 162.491 8.367 161.814 8.367 C 161.392 8.367 161.062 8.426 160.826 8.544 C 160.589 8.663 160.361 8.823 160.141 9.026 C 159.989 9.162 159.849 9.254 159.723 9.305 C 159.596 9.356 159.457 9.381 159.304 9.381 L 156.947 9.381 C 156.777 9.381 156.634 9.33 156.515 9.229 C 156.397 9.127 156.355 8.993 156.388 8.823 Z " fill="rgb(67,96,105)"/><path d=" M 173.579 11.46 C 173.529 11.933 173.529 12.407 173.579 12.88 C 173.68 13.979 174.018 14.769 174.593 15.25 C 175.168 15.732 175.87 15.973 176.698 15.973 C 177.526 15.973 178.223 15.728 178.79 15.238 C 179.355 14.748 179.681 14.046 179.765 13.134 C 179.8 12.88 179.816 12.559 179.816 12.17 C 179.816 11.781 179.8 11.46 179.765 11.207 C 179.681 10.328 179.355 9.635 178.79 9.127 C 178.223 8.621 177.526 8.367 176.698 8.367 C 175.87 8.367 175.168 8.608 174.593 9.089 C 174.018 9.571 173.68 10.362 173.579 11.46 Z  M 176.622 21.298 C 176.976 21.298 177.34 21.243 177.712 21.133 C 178.084 21.022 178.422 20.849 178.726 20.613 C 179.03 20.376 179.28 20.076 179.474 19.713 C 179.669 19.349 179.765 18.923 179.765 18.433 L 179.765 17.495 C 179.631 17.646 179.453 17.811 179.233 17.989 C 179.013 18.166 178.747 18.331 178.434 18.483 C 178.122 18.635 177.759 18.762 177.344 18.864 C 176.93 18.965 176.461 19.016 175.937 19.016 C 175.092 19.016 174.327 18.851 173.642 18.521 C 172.958 18.192 172.375 17.752 171.893 17.203 C 171.412 16.654 171.031 16.02 170.753 15.301 C 170.473 14.583 170.317 13.835 170.283 13.058 C 170.266 12.804 170.258 12.508 170.258 12.17 C 170.258 11.832 170.266 11.536 170.283 11.283 C 170.317 10.505 170.473 9.757 170.753 9.039 C 171.031 8.321 171.412 7.687 171.893 7.137 C 172.375 6.588 172.958 6.148 173.642 5.819 C 174.327 5.489 175.092 5.325 175.937 5.325 C 176.461 5.325 176.93 5.375 177.344 5.476 C 177.759 5.578 178.122 5.705 178.434 5.857 C 178.747 6.009 179.013 6.174 179.233 6.351 C 179.453 6.529 179.631 6.693 179.765 6.846 L 179.765 6.263 C 179.765 6.077 179.833 5.916 179.968 5.781 C 180.103 5.646 180.264 5.578 180.45 5.578 L 182.377 5.578 C 182.563 5.578 182.723 5.646 182.859 5.781 C 182.994 5.916 183.061 6.077 183.061 6.263 L 183.061 18.154 C 183.061 20.199 182.491 21.741 181.35 22.781 C 180.21 23.82 178.634 24.34 176.622 24.34 C 175.759 24.34 174.961 24.226 174.225 23.998 C 173.491 23.769 172.852 23.465 172.311 23.085 C 171.77 22.704 171.34 22.274 171.018 21.792 C 170.697 21.31 170.519 20.816 170.486 20.308 C 170.469 20.123 170.532 19.962 170.676 19.827 C 170.82 19.691 170.984 19.624 171.171 19.624 L 172.894 19.624 C 173.132 19.624 173.334 19.704 173.504 19.865 C 173.672 20.025 173.816 20.173 173.934 20.308 C 174.154 20.596 174.454 20.832 174.835 21.019 C 175.215 21.204 175.81 21.298 176.622 21.298 Z " fill="rgb(67,96,105)"/><path d=" M 192.112 8.367 C 191.622 8.367 191.204 8.439 190.857 8.582 C 190.51 8.726 190.219 8.912 189.982 9.14 C 189.746 9.369 189.564 9.622 189.437 9.901 C 189.31 10.18 189.23 10.446 189.197 10.7 L 194.926 10.7 C 194.892 10.446 194.829 10.18 194.736 9.901 C 194.643 9.622 194.491 9.369 194.28 9.14 C 194.068 8.912 193.79 8.726 193.443 8.582 C 193.096 8.439 192.653 8.367 192.112 8.367 Z  M 185.9 12.17 C 185.9 11.224 186.044 10.332 186.332 9.495 C 186.619 8.659 187.033 7.932 187.574 7.315 C 188.115 6.698 188.769 6.212 189.539 5.857 C 190.307 5.502 191.166 5.325 192.112 5.325 C 193.058 5.325 193.917 5.498 194.685 5.844 C 195.455 6.191 196.109 6.656 196.651 7.239 C 197.191 7.822 197.61 8.506 197.906 9.292 C 198.201 10.079 198.349 10.902 198.349 11.765 L 198.349 12.905 C 198.349 13.092 198.282 13.252 198.146 13.387 C 198.011 13.522 197.85 13.59 197.665 13.59 L 189.197 13.59 C 189.197 13.979 189.276 14.321 189.437 14.617 C 189.597 14.913 189.813 15.162 190.084 15.365 C 190.354 15.567 190.667 15.72 191.022 15.821 C 191.377 15.922 191.74 15.973 192.112 15.973 C 192.653 15.973 193.092 15.918 193.43 15.808 C 193.768 15.699 194.048 15.559 194.267 15.39 C 194.453 15.255 194.605 15.162 194.723 15.111 C 194.842 15.06 195.003 15.035 195.206 15.035 L 197.234 15.035 C 197.42 15.035 197.585 15.103 197.728 15.238 C 197.872 15.373 197.935 15.534 197.919 15.72 C 197.901 15.957 197.77 16.261 197.525 16.632 C 197.28 17.004 196.913 17.368 196.423 17.723 C 195.932 18.078 195.328 18.382 194.61 18.635 C 193.891 18.889 193.058 19.016 192.112 19.016 C 191.166 19.016 190.307 18.851 189.539 18.521 C 188.769 18.192 188.115 17.723 187.574 17.114 C 187.033 16.506 186.619 15.783 186.332 14.946 C 186.044 14.11 185.9 13.184 185.9 12.17 Z " fill="rgb(67,96,105)"/><path d=" M 219.266 18.078 C 219.266 18.264 219.199 18.424 219.064 18.56 C 218.928 18.695 218.767 18.762 218.582 18.762 L 216.655 18.762 C 216.468 18.762 216.308 18.695 216.174 18.56 C 216.038 18.424 215.97 18.264 215.97 18.078 L 215.97 11.638 C 215.97 10.623 215.733 9.812 215.26 9.204 C 214.787 8.595 214.06 8.291 213.08 8.291 C 212.184 8.291 211.478 8.595 210.963 9.204 C 210.447 9.812 210.19 10.623 210.19 11.638 L 210.19 18.078 C 210.19 18.264 210.122 18.424 209.987 18.56 C 209.851 18.695 209.691 18.762 209.506 18.762 L 207.578 18.762 C 207.392 18.762 207.231 18.695 207.096 18.56 C 206.961 18.424 206.893 18.264 206.893 18.078 L 206.893 6.263 C 206.893 6.077 206.961 5.916 207.096 5.781 C 207.231 5.646 207.392 5.578 207.578 5.578 L 209.506 5.578 C 209.691 5.578 209.851 5.646 209.987 5.781 C 210.122 5.916 210.19 6.077 210.19 6.263 L 210.19 6.846 C 210.629 6.406 211.144 6.043 211.736 5.755 C 212.328 5.468 213.029 5.325 213.841 5.325 C 214.872 5.325 215.733 5.485 216.426 5.806 C 217.12 6.127 217.677 6.559 218.1 7.099 C 218.522 7.641 218.823 8.27 219.001 8.988 C 219.177 9.707 219.266 10.463 219.266 11.257 L 219.266 18.078 Z " fill="rgb(67,96,105)"/><path d=" M 231.512 11.029 C 231.462 10.505 231.34 10.07 231.145 9.724 C 230.951 9.377 230.71 9.102 230.423 8.899 C 230.134 8.697 229.822 8.557 229.484 8.481 C 229.146 8.405 228.8 8.367 228.445 8.367 C 228.09 8.367 227.743 8.405 227.405 8.481 C 227.067 8.557 226.755 8.697 226.467 8.899 C 226.179 9.102 225.939 9.377 225.745 9.724 C 225.551 10.07 225.427 10.505 225.377 11.029 C 225.36 11.164 225.347 11.333 225.339 11.536 C 225.331 11.739 225.326 11.951 225.326 12.17 C 225.326 12.39 225.331 12.605 225.339 12.816 C 225.347 13.028 225.36 13.193 225.377 13.311 C 225.427 13.835 225.551 14.27 225.745 14.617 C 225.939 14.963 226.179 15.238 226.467 15.441 C 226.755 15.644 227.067 15.783 227.405 15.859 C 227.743 15.935 228.09 15.973 228.445 15.973 C 228.8 15.973 229.146 15.935 229.484 15.859 C 229.822 15.783 230.134 15.644 230.423 15.441 C 230.71 15.238 230.951 14.963 231.145 14.617 C 231.34 14.27 231.462 13.835 231.512 13.311 C 231.529 13.193 231.538 13.028 231.538 12.816 C 231.538 12.605 231.538 12.39 231.538 12.17 C 231.538 11.951 231.538 11.739 231.538 11.536 C 231.538 11.333 231.529 11.164 231.512 11.029 Z  M 228.445 5.325 C 229.375 5.325 230.216 5.468 230.967 5.755 C 231.719 6.043 232.371 6.44 232.919 6.947 C 233.47 7.454 233.908 8.046 234.238 8.722 C 234.569 9.398 234.758 10.125 234.809 10.902 C 234.825 11.055 234.833 11.249 234.833 11.485 C 234.833 11.723 234.833 11.959 234.833 12.195 C 234.833 12.432 234.833 12.664 234.833 12.892 C 234.833 13.121 234.825 13.311 234.809 13.463 C 234.74 14.241 234.546 14.968 234.225 15.644 C 233.904 16.32 233.47 16.907 232.919 17.406 C 232.371 17.904 231.719 18.297 230.967 18.585 C 230.216 18.872 229.375 19.016 228.445 19.016 C 227.515 19.016 226.675 18.872 225.923 18.585 C 225.17 18.297 224.519 17.904 223.969 17.406 C 223.421 16.907 222.985 16.32 222.664 15.644 C 222.342 14.968 222.148 14.241 222.081 13.463 C 222.064 13.311 222.051 13.121 222.043 12.892 C 222.034 12.664 222.03 12.432 222.03 12.195 C 222.03 11.959 222.034 11.723 222.043 11.485 C 222.051 11.249 222.064 11.055 222.081 10.902 C 222.132 10.125 222.322 9.398 222.651 8.722 C 222.981 8.046 223.421 7.454 223.969 6.947 C 224.519 6.44 225.17 6.043 225.923 5.755 C 226.675 5.468 227.515 5.325 228.445 5.325 Z " fill="rgb(67,96,105)"/><path d=" M 242.008 13.995 C 242.008 14.519 242.149 14.938 242.427 15.25 C 242.706 15.563 243.225 15.72 243.987 15.72 L 245.532 15.72 C 245.719 15.72 245.878 15.788 246.015 15.922 C 246.149 16.058 246.217 16.218 246.217 16.404 L 246.217 18.078 C 246.217 18.264 246.149 18.424 246.015 18.56 C 245.878 18.695 245.719 18.762 245.532 18.762 L 243.656 18.762 C 242.067 18.762 240.846 18.378 239.993 17.608 C 239.14 16.84 238.712 15.661 238.712 14.072 L 238.712 8.621 L 237.039 8.621 C 236.853 8.621 236.692 8.553 236.557 8.417 C 236.421 8.283 236.354 8.122 236.354 7.936 L 236.354 6.263 C 236.354 6.077 236.421 5.916 236.557 5.781 C 236.692 5.646 236.853 5.578 237.039 5.578 L 238.712 5.578 L 238.712 1.445 C 238.712 1.259 238.78 1.099 238.915 0.963 C 239.05 0.829 239.211 0.761 239.398 0.761 L 241.323 0.761 C 241.509 0.761 241.669 0.829 241.806 0.963 C 241.941 1.099 242.008 1.259 242.008 1.445 L 242.008 5.578 L 245.279 5.578 C 245.465 5.578 245.625 5.646 245.761 5.781 C 245.896 5.916 245.963 6.077 245.963 6.263 L 245.963 7.936 C 245.963 8.122 245.896 8.283 245.761 8.417 C 245.625 8.553 245.465 8.621 245.279 8.621 L 242.008 8.621 L 242.008 13.995 Z " fill="rgb(67,96,105)"/><path d=" M 258.615 5.578 L 262.141 5.578 C 262.325 5.578 262.487 5.646 262.621 5.781 C 262.757 5.916 262.824 6.077 262.824 6.263 L 262.824 7.936 C 262.824 8.122 262.757 8.283 262.621 8.417 C 262.487 8.553 262.325 8.621 262.141 8.621 L 258.615 8.621 L 258.615 18.078 C 258.615 18.264 258.548 18.424 258.412 18.56 C 258.278 18.695 258.116 18.762 257.932 18.762 L 256.004 18.762 C 255.819 18.762 255.657 18.695 255.523 18.56 C 255.387 18.424 255.32 18.264 255.32 18.078 L 255.32 8.621 L 253.646 8.621 C 253.461 8.621 253.299 8.553 253.165 8.417 C 253.029 8.283 252.961 8.122 252.961 7.936 L 252.961 6.263 C 252.961 6.077 253.029 5.916 253.165 5.781 C 253.299 5.646 253.461 5.578 253.646 5.578 L 255.32 5.578 L 255.32 4.437 C 255.32 3.626 255.438 2.937 255.674 2.371 C 255.911 1.805 256.249 1.344 256.69 0.989 C 257.128 0.634 257.656 0.38 258.274 0.228 C 258.891 0.076 259.578 0 260.34 0 L 262.394 0 C 262.579 0 262.74 0.068 262.875 0.203 C 263.011 0.338 263.078 0.499 263.078 0.684 L 263.078 2.358 C 263.078 2.544 263.011 2.705 262.875 2.84 C 262.74 2.975 262.579 3.042 262.394 3.042 L 260.594 3.042 C 259.95 3.042 259.461 3.157 259.123 3.385 C 258.785 3.613 258.615 4.048 258.615 4.69 L 258.615 5.578 Z " fill="rgb(67,96,105)"/><path d=" M 273.65 11.029 C 273.599 10.505 273.478 10.07 273.282 9.724 C 273.088 9.377 272.848 9.102 272.561 8.899 C 272.273 8.697 271.96 8.557 271.621 8.481 C 271.283 8.405 270.937 8.367 270.582 8.367 C 270.228 8.367 269.881 8.405 269.542 8.481 C 269.204 8.557 268.892 8.697 268.605 8.899 C 268.317 9.102 268.077 9.377 267.882 9.724 C 267.688 10.07 267.566 10.505 267.515 11.029 C 267.498 11.164 267.486 11.333 267.477 11.536 C 267.469 11.739 267.463 11.951 267.463 12.17 C 267.463 12.39 267.469 12.605 267.477 12.816 C 267.486 13.028 267.498 13.193 267.515 13.311 C 267.566 13.835 267.688 14.27 267.882 14.617 C 268.077 14.963 268.317 15.238 268.605 15.441 C 268.892 15.644 269.204 15.783 269.542 15.859 C 269.881 15.935 270.228 15.973 270.582 15.973 C 270.937 15.973 271.283 15.935 271.621 15.859 C 271.96 15.783 272.273 15.644 272.561 15.441 C 272.848 15.238 273.088 14.963 273.282 14.617 C 273.478 14.27 273.599 13.835 273.65 13.311 C 273.666 13.193 273.675 13.028 273.675 12.816 C 273.675 12.605 273.675 12.39 273.675 12.17 C 273.675 11.951 273.675 11.739 273.675 11.536 C 273.675 11.333 273.666 11.164 273.65 11.029 Z  M 270.582 5.325 C 271.512 5.325 272.353 5.468 273.105 5.755 C 273.857 6.043 274.508 6.44 275.057 6.947 C 275.607 7.454 276.046 8.046 276.375 8.722 C 276.706 9.398 276.896 10.125 276.947 10.902 C 276.963 11.055 276.971 11.249 276.971 11.485 C 276.971 11.723 276.971 11.959 276.971 12.195 C 276.971 12.432 276.971 12.664 276.971 12.892 C 276.971 13.121 276.963 13.311 276.947 13.463 C 276.878 14.241 276.684 14.968 276.363 15.644 C 276.041 16.32 275.607 16.907 275.057 17.406 C 274.508 17.904 273.857 18.297 273.105 18.585 C 272.353 18.872 271.512 19.016 270.582 19.016 C 269.653 19.016 268.812 18.872 268.061 18.585 C 267.307 18.297 266.657 17.904 266.107 17.406 C 265.558 16.907 265.123 16.32 264.802 15.644 C 264.48 14.968 264.286 14.241 264.219 13.463 C 264.202 13.311 264.19 13.121 264.181 12.892 C 264.171 12.664 264.167 12.432 264.167 12.195 C 264.167 11.959 264.171 11.723 264.181 11.485 C 264.19 11.249 264.202 11.055 264.219 10.902 C 264.27 10.125 264.46 9.398 264.789 8.722 C 265.119 8.046 265.558 7.454 266.107 6.947 C 266.657 6.44 267.307 6.043 268.061 5.755 C 268.812 5.468 269.653 5.325 270.582 5.325 Z " fill="rgb(67,96,105)"/><path d=" M 279.737 6.263 C 279.737 6.077 279.803 5.916 279.938 5.781 C 280.073 5.646 280.234 5.578 280.42 5.578 L 282.348 5.578 C 282.532 5.578 282.694 5.646 282.828 5.781 C 282.963 5.916 283.032 6.077 283.032 6.263 L 283.032 12.703 C 283.032 13.717 283.246 14.528 283.678 15.137 C 284.109 15.745 284.816 16.049 285.795 16.049 C 286.691 16.049 287.375 15.745 287.849 15.137 C 288.322 14.528 288.559 13.717 288.559 12.703 L 288.559 6.263 C 288.559 6.077 288.627 5.916 288.761 5.781 C 288.898 5.646 289.057 5.578 289.244 5.578 L 291.17 5.578 C 291.357 5.578 291.516 5.646 291.653 5.781 C 291.786 5.916 291.855 6.077 291.855 6.263 L 291.855 18.078 C 291.855 18.264 291.786 18.424 291.653 18.56 C 291.516 18.695 291.357 18.762 291.17 18.762 L 289.244 18.762 C 289.057 18.762 288.898 18.695 288.761 18.56 C 288.627 18.424 288.559 18.264 288.559 18.078 L 288.559 17.495 C 288.169 17.883 287.688 18.234 287.114 18.547 C 286.539 18.859 285.846 19.016 285.035 19.016 C 284.003 19.016 283.15 18.855 282.474 18.534 C 281.798 18.213 281.257 17.782 280.852 17.241 C 280.446 16.7 280.157 16.071 279.989 15.352 C 279.82 14.634 279.737 13.877 279.737 13.083 L 279.737 6.263 Z " fill="rgb(67,96,105)"/><path d=" M 307.727 18.078 C 307.727 18.264 307.658 18.424 307.524 18.56 C 307.388 18.695 307.228 18.762 307.041 18.762 L 305.115 18.762 C 304.928 18.762 304.769 18.695 304.633 18.56 C 304.498 18.424 304.431 18.264 304.431 18.078 L 304.431 11.638 C 304.431 10.623 304.194 9.812 303.72 9.204 C 303.246 8.595 302.52 8.291 301.54 8.291 C 300.645 8.291 299.938 8.595 299.423 9.204 C 298.907 9.812 298.65 10.623 298.65 11.638 L 298.65 18.078 C 298.65 18.264 298.582 18.424 298.447 18.56 C 298.312 18.695 298.151 18.762 297.965 18.762 L 296.037 18.762 C 295.853 18.762 295.691 18.695 295.557 18.56 C 295.42 18.424 295.353 18.264 295.353 18.078 L 295.353 6.263 C 295.353 6.077 295.42 5.916 295.557 5.781 C 295.691 5.646 295.853 5.578 296.037 5.578 L 297.965 5.578 C 298.151 5.578 298.312 5.646 298.447 5.781 C 298.582 5.916 298.65 6.077 298.65 6.263 L 298.65 6.846 C 299.088 6.406 299.604 6.043 300.196 5.755 C 300.787 5.468 301.489 5.325 302.3 5.325 C 303.332 5.325 304.194 5.485 304.886 5.806 C 305.579 6.127 306.137 6.559 306.561 7.099 C 306.982 7.641 307.282 8.27 307.461 8.988 C 307.637 9.707 307.727 10.463 307.727 11.257 L 307.727 18.078 Z " fill="rgb(67,96,105)"/><path d=" M 313.811 11.46 C 313.761 11.933 313.761 12.407 313.811 12.88 C 313.911 13.979 314.249 14.769 314.824 15.25 C 315.399 15.732 316.102 15.973 316.929 15.973 C 317.757 15.973 318.454 15.728 319.021 15.238 C 319.586 14.748 319.912 14.046 319.996 13.134 C 320.031 12.88 320.048 12.559 320.048 12.17 C 320.048 11.781 320.031 11.46 319.996 11.207 C 319.912 10.328 319.586 9.635 319.021 9.127 C 318.454 8.621 317.757 8.367 316.929 8.367 C 316.102 8.367 315.399 8.608 314.824 9.089 C 314.249 9.571 313.911 10.362 313.811 11.46 Z  M 316.169 5.325 C 316.692 5.325 317.161 5.375 317.575 5.476 C 317.99 5.578 318.353 5.705 318.665 5.857 C 318.978 6.009 319.244 6.174 319.465 6.351 C 319.684 6.529 319.862 6.693 319.996 6.846 L 319.996 1.445 C 319.996 1.259 320.065 1.099 320.199 0.963 C 320.335 0.829 320.495 0.761 320.682 0.761 L 322.608 0.761 C 322.794 0.761 322.954 0.829 323.09 0.963 C 323.225 1.099 323.292 1.259 323.292 1.445 L 323.292 18.078 C 323.292 18.264 323.225 18.424 323.09 18.56 C 322.954 18.695 322.794 18.762 322.608 18.762 L 320.682 18.762 C 320.495 18.762 320.335 18.695 320.199 18.56 C 320.065 18.424 319.996 18.264 319.996 18.078 L 319.996 17.495 C 319.862 17.646 319.684 17.811 319.465 17.989 C 319.244 18.166 318.978 18.331 318.665 18.483 C 318.353 18.635 317.99 18.762 317.575 18.864 C 317.161 18.965 316.692 19.016 316.169 19.016 C 315.323 19.016 314.558 18.851 313.874 18.521 C 313.19 18.192 312.607 17.752 312.124 17.203 C 311.644 16.654 311.262 16.02 310.984 15.301 C 310.704 14.583 310.549 13.835 310.515 13.058 C 310.498 12.804 310.489 12.508 310.489 12.17 C 310.489 11.832 310.498 11.536 310.515 11.283 C 310.549 10.505 310.704 9.757 310.984 9.039 C 311.262 8.321 311.644 7.687 312.124 7.137 C 312.607 6.588 313.19 6.148 313.874 5.819 C 314.558 5.489 315.323 5.325 316.169 5.325 Z " fill="rgb(67,96,105)"/><path d=" M 178.062 43.745 C 178.233 43.745 178.38 43.808 178.504 43.932 C 178.628 44.056 178.69 44.203 178.69 44.373 L 178.69 46.836 C 178.69 47.007 178.628 47.154 178.504 47.278 C 178.38 47.402 178.233 47.464 178.062 47.464 L 167.048 47.464 C 166.877 47.464 166.73 47.402 166.606 47.278 C 166.482 47.154 166.421 47.007 166.421 46.836 L 166.421 31.825 C 166.421 31.654 166.482 31.507 166.606 31.383 C 166.73 31.259 166.877 31.197 167.048 31.197 L 177.877 31.197 C 178.047 31.197 178.194 31.259 178.318 31.383 C 178.442 31.507 178.504 31.654 178.504 31.825 L 178.504 34.288 C 178.504 34.458 178.442 34.605 178.318 34.729 C 178.194 34.853 178.047 34.916 177.877 34.916 L 170.719 34.916 L 170.719 37.425 L 177.365 37.425 C 177.536 37.425 177.682 37.487 177.807 37.611 C 177.93 37.735 177.993 37.882 177.993 38.052 L 177.993 40.516 C 177.993 40.686 177.93 40.833 177.807 40.957 C 177.682 41.082 177.536 41.143 177.365 41.143 L 170.719 41.143 L 170.719 43.745 L 178.062 43.745 Z " fill="rgb(0,179,169)"/><path d=" M 185.661 38.238 L 188.287 38.238 C 188.937 38.238 189.475 38.115 189.902 37.867 C 190.328 37.619 190.541 37.169 190.541 36.519 C 190.541 35.868 190.328 35.419 189.902 35.171 C 189.475 34.923 188.937 34.799 188.287 34.799 L 185.661 34.799 L 185.661 38.238 Z  M 188.287 31.197 C 189.309 31.197 190.223 31.306 191.029 31.522 C 191.834 31.74 192.519 32.065 193.086 32.498 C 193.651 32.933 194.085 33.486 194.386 34.16 C 194.689 34.834 194.84 35.62 194.84 36.519 C 194.84 37.681 194.599 38.645 194.12 39.412 C 193.639 40.179 192.958 40.764 192.075 41.166 L 194.956 46.697 C 195.003 46.79 195.026 46.875 195.026 46.953 C 195.026 47.092 194.975 47.212 194.875 47.313 C 194.774 47.414 194.654 47.464 194.514 47.464 L 191.354 47.464 C 191.044 47.464 190.823 47.394 190.692 47.255 C 190.56 47.115 190.456 46.976 190.378 46.836 L 187.799 41.863 L 185.661 41.863 L 185.661 46.836 C 185.661 47.007 185.598 47.154 185.475 47.278 C 185.35 47.402 185.204 47.464 185.033 47.464 L 181.989 47.464 C 181.818 47.464 181.672 47.402 181.548 47.278 C 181.424 47.154 181.362 47.007 181.362 46.836 L 181.362 31.825 C 181.362 31.654 181.424 31.507 181.548 31.383 C 181.672 31.259 181.818 31.197 181.989 31.197 L 188.287 31.197 Z " fill="rgb(0,179,169)"/><path d=" M 201.811 38.238 L 204.437 38.238 C 205.088 38.238 205.626 38.115 206.052 37.867 C 206.478 37.619 206.691 37.169 206.691 36.519 C 206.691 35.868 206.478 35.419 206.052 35.171 C 205.626 34.923 205.088 34.799 204.437 34.799 L 201.811 34.799 L 201.811 38.238 Z  M 204.437 31.197 C 205.46 31.197 206.374 31.306 207.179 31.522 C 207.984 31.74 208.67 32.065 209.236 32.498 C 209.801 32.933 210.235 33.486 210.537 34.16 C 210.84 34.834 210.99 35.62 210.99 36.519 C 210.99 37.681 210.75 38.645 210.27 39.412 C 209.79 40.179 209.108 40.764 208.225 41.166 L 211.106 46.697 C 211.153 46.79 211.176 46.875 211.176 46.953 C 211.176 47.092 211.126 47.212 211.025 47.313 C 210.925 47.414 210.804 47.464 210.665 47.464 L 207.505 47.464 C 207.194 47.464 206.973 47.394 206.842 47.255 C 206.711 47.115 206.606 46.976 206.528 46.836 L 203.949 41.863 L 201.811 41.863 L 201.811 46.836 C 201.811 47.007 201.749 47.154 201.626 47.278 C 201.501 47.402 201.354 47.464 201.183 47.464 L 198.139 47.464 C 197.968 47.464 197.822 47.402 197.698 47.278 C 197.574 47.154 197.512 47.007 197.512 46.836 L 197.512 31.825 C 197.512 31.654 197.574 31.507 197.698 31.383 C 197.822 31.259 197.968 31.197 198.139 31.197 L 204.437 31.197 Z " fill="rgb(0,179,169)"/><path d=" M 223.33 41.283 C 223.344 41.004 223.36 40.694 223.376 40.353 C 223.391 40.013 223.399 39.664 223.399 39.307 C 223.399 38.951 223.391 38.606 223.376 38.273 C 223.36 37.94 223.344 37.642 223.33 37.378 C 223.299 36.992 223.217 36.635 223.086 36.31 C 222.954 35.984 222.768 35.702 222.528 35.461 C 222.288 35.222 221.989 35.032 221.634 34.892 C 221.277 34.753 220.858 34.683 220.379 34.683 C 219.898 34.683 219.479 34.753 219.124 34.892 C 218.767 35.032 218.468 35.222 218.229 35.461 C 217.988 35.702 217.802 35.984 217.671 36.31 C 217.539 36.635 217.458 36.992 217.427 37.378 C 217.396 37.642 217.377 37.94 217.369 38.273 C 217.361 38.606 217.357 38.951 217.357 39.307 C 217.357 39.664 217.361 40.013 217.369 40.353 C 217.377 40.694 217.396 41.004 217.427 41.283 C 217.489 42.058 217.756 42.7 218.229 43.211 C 218.701 43.723 219.418 43.978 220.379 43.978 C 221.339 43.978 222.051 43.723 222.516 43.211 C 222.981 42.7 223.252 42.058 223.33 41.283 Z  M 213.128 37.262 C 213.175 36.395 213.364 35.578 213.697 34.81 C 214.03 34.044 214.503 33.378 215.115 32.812 C 215.726 32.247 216.47 31.798 217.345 31.464 C 218.22 31.131 219.231 30.965 220.379 30.965 C 221.509 30.965 222.516 31.131 223.399 31.464 C 224.282 31.798 225.03 32.247 225.641 32.812 C 226.254 33.378 226.726 34.044 227.059 34.81 C 227.392 35.578 227.582 36.395 227.629 37.262 C 227.66 37.929 227.675 38.626 227.675 39.354 C 227.675 40.082 227.66 40.764 227.629 41.399 C 227.582 42.267 227.392 43.083 227.059 43.851 C 226.726 44.617 226.254 45.288 225.641 45.86 C 225.03 46.433 224.282 46.883 223.399 47.208 C 222.516 47.534 221.509 47.696 220.379 47.696 C 219.231 47.696 218.22 47.534 217.345 47.208 C 216.47 46.883 215.726 46.433 215.115 45.86 C 214.503 45.288 214.03 44.617 213.697 43.851 C 213.364 43.083 213.175 42.267 213.128 41.399 C 213.096 40.764 213.082 40.082 213.082 39.354 C 213.082 38.626 213.096 37.929 213.128 37.262 Z " fill="rgb(0,179,169)"/><path d=" M 234.646 38.238 L 237.273 38.238 C 237.923 38.238 238.461 38.115 238.887 37.867 C 239.313 37.619 239.526 37.169 239.526 36.519 C 239.526 35.868 239.313 35.419 238.887 35.171 C 238.461 34.923 237.923 34.799 237.273 34.799 L 234.646 34.799 L 234.646 38.238 Z  M 237.273 31.197 C 238.294 31.197 239.208 31.306 240.015 31.522 C 240.82 31.74 241.504 32.065 242.071 32.498 C 242.636 32.933 243.07 33.486 243.371 34.16 C 243.674 34.834 243.824 35.62 243.824 36.519 C 243.824 37.681 243.585 38.645 243.105 39.412 C 242.624 40.179 241.944 40.764 241.061 41.166 L 243.941 46.697 C 243.988 46.79 244.011 46.875 244.011 46.953 C 244.011 47.092 243.961 47.212 243.861 47.313 C 243.759 47.414 243.64 47.464 243.499 47.464 L 240.34 47.464 C 240.029 47.464 239.808 47.394 239.678 47.255 C 239.545 47.115 239.441 46.976 239.363 46.836 L 236.783 41.863 L 234.646 41.863 L 234.646 46.836 C 234.646 47.007 234.583 47.154 234.461 47.278 C 234.336 47.402 234.19 47.464 234.019 47.464 L 230.974 47.464 C 230.803 47.464 230.657 47.402 230.533 47.278 C 230.409 47.154 230.347 47.007 230.347 46.836 L 230.347 31.825 C 230.347 31.654 230.409 31.507 230.533 31.383 C 230.657 31.259 230.803 31.197 230.974 31.197 L 237.273 31.197 Z " fill="rgb(0,179,169)"/><path d=" M 258.581 40.748 L 258.581 36.472 L 255.188 40.748 L 258.581 40.748 Z  M 259.091 47.464 C 258.921 47.464 258.774 47.402 258.65 47.278 C 258.526 47.154 258.465 47.007 258.465 46.836 L 258.465 44.466 L 251.145 44.466 C 250.974 44.466 250.827 44.404 250.703 44.28 C 250.578 44.156 250.517 44.009 250.517 43.839 L 250.517 41.375 C 250.517 40.973 250.618 40.64 250.82 40.376 L 257.767 31.616 C 257.907 31.445 258.035 31.333 258.151 31.279 C 258.267 31.224 258.425 31.197 258.627 31.197 L 262.136 31.197 C 262.307 31.197 262.453 31.259 262.578 31.383 C 262.7 31.507 262.763 31.654 262.763 31.825 L 262.763 40.748 L 264.761 40.748 C 264.932 40.748 265.078 40.81 265.203 40.934 C 265.327 41.058 265.39 41.205 265.39 41.375 L 265.39 43.839 C 265.39 44.009 265.327 44.156 265.203 44.28 C 265.078 44.404 264.932 44.466 264.761 44.466 L 262.763 44.466 L 262.763 46.836 C 262.763 47.007 262.7 47.154 262.578 47.278 C 262.453 47.402 262.307 47.464 262.136 47.464 L 259.091 47.464 Z " fill="rgb(0,179,169)"/><path d=" M 276.613 41.283 C 276.674 39.966 276.674 38.664 276.613 37.378 C 276.582 36.992 276.524 36.635 276.438 36.31 C 276.353 35.984 276.217 35.702 276.032 35.461 C 275.846 35.222 275.599 35.032 275.289 34.892 C 274.978 34.753 274.591 34.683 274.127 34.683 C 273.661 34.683 273.274 34.753 272.965 34.892 C 272.654 35.032 272.407 35.222 272.22 35.461 C 272.035 35.702 271.895 35.984 271.803 36.31 C 271.71 36.635 271.655 36.992 271.641 37.378 C 271.562 38.664 271.562 39.966 271.641 41.283 C 271.655 41.67 271.706 42.026 271.79 42.351 C 271.875 42.677 272.016 42.959 272.21 43.2 C 272.403 43.44 272.654 43.629 272.965 43.769 C 273.274 43.909 273.661 43.978 274.127 43.978 C 274.591 43.978 274.978 43.909 275.289 43.769 C 275.599 43.629 275.849 43.44 276.044 43.2 C 276.237 42.959 276.377 42.677 276.461 42.351 C 276.546 42.026 276.598 41.67 276.613 41.283 Z  M 274.127 30.965 C 275.289 30.965 276.287 31.136 277.124 31.476 C 277.961 31.817 278.654 32.274 279.203 32.847 C 279.753 33.42 280.165 34.09 280.436 34.857 C 280.707 35.624 280.865 36.426 280.911 37.262 C 280.944 37.929 280.958 38.626 280.958 39.354 C 280.958 40.082 280.944 40.764 280.911 41.399 C 280.865 42.235 280.707 43.037 280.436 43.804 C 280.165 44.571 279.753 45.241 279.203 45.814 C 278.654 46.387 277.961 46.844 277.124 47.185 C 276.287 47.525 275.289 47.696 274.127 47.696 C 272.965 47.696 271.965 47.525 271.128 47.185 C 270.291 46.844 269.599 46.387 269.049 45.814 C 268.499 45.241 268.088 44.571 267.817 43.804 C 267.545 43.037 267.387 42.235 267.34 41.399 C 267.309 40.764 267.294 40.082 267.294 39.354 C 267.294 38.626 267.309 37.929 267.34 37.262 C 267.387 36.426 267.545 35.624 267.817 34.857 C 268.088 34.09 268.499 33.42 269.049 32.847 C 269.599 32.274 270.291 31.817 271.128 31.476 C 271.965 31.136 272.965 30.965 274.127 30.965 Z " fill="rgb(0,179,169)"/><path d=" M 290.904 40.748 L 290.904 36.472 L 287.511 40.748 L 290.904 40.748 Z  M 291.415 47.464 C 291.244 47.464 291.098 47.402 290.974 47.278 C 290.849 47.154 290.787 47.007 290.787 46.836 L 290.787 44.466 L 283.467 44.466 C 283.296 44.466 283.15 44.404 283.026 44.28 C 282.903 44.156 282.84 44.009 282.84 43.839 L 282.84 41.375 C 282.84 40.973 282.941 40.64 283.142 40.376 L 290.09 31.616 C 290.23 31.445 290.358 31.333 290.474 31.279 C 290.59 31.224 290.749 31.197 290.949 31.197 L 294.46 31.197 C 294.629 31.197 294.776 31.259 294.901 31.383 C 295.024 31.507 295.086 31.654 295.086 31.825 L 295.086 40.748 L 297.085 40.748 C 297.256 40.748 297.403 40.81 297.528 40.934 C 297.65 41.058 297.712 41.205 297.712 41.375 L 297.712 43.839 C 297.712 44.009 297.65 44.156 297.528 44.28 C 297.403 44.404 297.256 44.466 297.085 44.466 L 295.086 44.466 L 295.086 46.836 C 295.086 47.007 295.024 47.154 294.901 47.278 C 294.776 47.402 294.629 47.464 294.46 47.464 L 291.415 47.464 Z " fill="rgb(0,179,169)"/></g></svg>