<?xml version="1.0" encoding="UTF-8" standalone="no"?><!-- Generator: Gravit.io --><svg xmlns="http://www.w3.org/2000/svg" xmlns:xlink="http://www.w3.org/1999/xlink" style="isolation:isolate" viewBox="0 0 750 500" width="750pt" height="500pt"><defs><clipPath id="_clipPath_9phM73pnjGEfCUKWL4ylxWXKZscN4Y3j"><rect width="750" height="500"/></clipPath></defs><g clip-path="url(#_clipPath_9phM73pnjGEfCUKWL4ylxWXKZscN4Y3j)"><path d=" M 724.129 499 L -38.579 502 C -45.439 502 -51 495.952 -51 488.491 L -51 14.29 C -51 6.83 -45.439 0.782 -38.579 0.782 L 716 0.782 C 722.861 0.782 749.333 1.667 751 22 C 742 314.667 752 443.333 749 478 C 749 485.461 730.99 499 724.129 499 Z " fill="rgb(211,226,236)"/><path d=" M 751 184.519 C 745.554 136.139 712.537 67.604 593.043 67.604 C 413.682 67.604 444.879 202.659 343.732 243.85 C 218.667 294.667 222 498 271.635 502 L 729.951 499 C 745.333 498 749 486.07 749 478 L 751 184.519 Z " fill="rgb(178,206,225)"/><path d=" M 402.93 337.569 C 402.14 332.538 398.853 328.437 394.507 326.815 C 393.113 320.807 388.125 316.354 382.168 316.354 C 380.482 316.354 378.875 316.719 377.401 317.365 C 375.125 315.06 372.083 313.639 368.726 313.639 C 362.125 313.639 356.697 319.098 356.05 326.092 C 355.835 326.08 355.622 326.055 355.404 326.055 C 349.103 326.055 343.884 331.034 342.858 337.569 L 402.93 337.569 Z " fill="rgb(254,254,254)"/><path d=" M 659.182 186.105 C 659.973 181.075 663.26 176.974 667.604 175.352 C 669 169.344 673.987 164.892 679.946 164.892 C 681.632 164.892 683.239 165.256 684.712 165.904 C 686.988 163.597 690.03 162.176 693.387 162.176 C 699.988 162.176 705.416 167.635 706.063 174.629 C 706.28 174.618 706.492 174.592 706.708 174.592 C 713.01 174.592 718.229 179.572 719.256 186.105 L 659.182 186.105 Z " fill="rgb(254,254,254)"/><path d=" M 681.575 247.694 C 683.485 260.35 673.565 271.136 661.929 269.059 C 654.881 267.802 649.197 261.621 648.041 253.959 C 646.132 241.303 656.052 230.518 667.688 232.594 C 674.736 233.851 680.418 240.031 681.575 247.694 Z  M 700.233 240.159 C 700.165 239.878 700.133 239.752 700.063 239.471 L 703.617 234.077 C 704.651 232.511 704.745 230.43 703.86 228.76 L 702.633 226.454 L 701.408 224.146 C 700.522 222.475 698.818 221.526 697.053 221.713 L 690.659 222.401 C 690.534 222.266 690.478 222.204 690.354 222.069 L 690.972 215.277 C 691.144 213.356 690.271 211.503 688.734 210.538 L 686.612 209.207 L 684.491 207.875 C 682.955 206.91 681.041 207.013 679.601 208.138 L 674.368 212.215 C 674.204 212.168 674.131 212.146 673.968 212.099 L 671.374 205.866 C 670.641 204.11 669.031 202.981 667.26 202.981 L 664.808 202.981 L 662.358 202.981 C 660.586 202.981 658.976 204.11 658.244 205.866 L 655.645 212.103 C 655.412 212.17 655.306 212.203 655.071 212.272 L 650.074 208.376 C 648.635 207.252 646.721 207.149 645.185 208.113 L 643.061 209.446 L 640.942 210.779 C 639.405 211.743 638.529 213.595 638.704 215.514 L 639.297 222.048 C 639.032 222.336 638.91 222.468 638.643 222.757 L 632.784 222.128 C 631.019 221.94 629.315 222.891 628.429 224.56 L 627.204 226.868 L 625.977 229.174 C 625.092 230.846 625.186 232.925 626.219 234.494 L 629.538 239.528 C 629.394 240.109 629.331 240.371 629.186 240.952 L 624.132 243.44 C 622.516 244.236 621.48 245.987 621.48 247.916 L 621.48 250.579 L 621.48 253.243 C 621.48 255.173 622.516 256.923 624.132 257.719 L 629.053 260.142 C 629.234 260.881 629.319 261.219 629.501 261.958 L 626.44 266.602 C 625.407 268.169 625.311 270.249 626.197 271.918 L 627.422 274.226 L 628.649 276.534 C 629.536 278.202 631.24 279.155 633.004 278.967 L 638.202 278.409 C 638.651 278.923 639.111 279.42 639.585 279.906 L 639.086 285.405 C 638.91 287.324 639.786 289.177 641.324 290.142 L 643.443 291.473 L 645.565 292.805 C 647.103 293.77 649.016 293.667 650.456 292.544 L 654.669 289.26 C 655.304 289.456 655.948 289.636 656.597 289.796 L 658.684 294.814 C 659.416 296.57 661.025 297.697 662.798 297.697 L 665.248 297.697 L 667.699 297.697 C 669.472 297.697 671.081 296.57 671.814 294.814 L 674.004 289.55 C 674.595 289.384 675.177 289.204 675.755 289.009 L 679.982 292.304 C 681.424 293.429 683.337 293.532 684.873 292.565 L 686.994 291.234 L 689.116 289.902 C 690.653 288.937 691.528 287.084 691.351 285.165 L 690.802 279.103 C 691.23 278.642 691.421 278.434 691.848 277.969 L 697.274 278.55 C 699.038 278.74 700.743 277.788 701.629 276.118 L 702.854 273.811 L 704.079 271.504 C 704.966 269.835 704.872 267.753 703.838 266.186 L 700.387 260.95 C 700.499 260.493 700.55 260.288 700.661 259.831 L 705.924 257.24 C 707.54 256.444 708.578 254.695 708.578 252.763 L 708.578 250.101 L 708.578 247.437 C 708.578 245.508 707.54 243.757 705.924 242.962 L 700.233 240.159 Z " fill="rgb(254,254,254)"/><path d=" M 664.809 222.819 C 650.607 222.819 639.051 235.383 639.051 250.826 C 639.051 266.271 650.607 278.835 664.809 278.835 C 679.01 278.835 690.564 266.271 690.564 250.826 C 690.564 235.383 679.01 222.819 664.809 222.819 Z  M 664.809 282.219 C 648.892 282.219 635.941 268.135 635.941 250.826 C 635.941 233.516 648.892 219.435 664.809 219.435 C 680.727 219.435 693.676 233.516 693.676 250.826 C 693.676 268.135 680.727 282.219 664.809 282.219 Z " fill="rgb(178,206,225)"/><path d=" M 615.423 193.039 C 616.875 202.655 609.336 210.85 600.496 209.273 C 595.143 208.318 590.824 203.621 589.946 197.799 C 588.495 188.184 596.03 179.99 604.871 181.567 C 610.227 182.522 614.544 187.218 615.423 193.039 Z  M 629.6 187.315 C 629.546 187.101 629.525 187.005 629.471 186.792 L 632.171 182.696 C 632.955 181.503 633.028 179.924 632.355 178.655 L 631.423 176.901 L 630.493 175.149 C 629.817 173.879 628.526 173.157 627.184 173.302 L 622.327 173.822 L 622.094 173.57 L 622.564 168.408 C 622.695 166.95 622.029 165.542 620.862 164.811 L 619.251 163.798 L 617.64 162.787 C 616.472 162.054 615.019 162.131 613.924 162.985 L 609.949 166.084 C 609.825 166.048 609.768 166.032 609.645 165.995 L 607.673 161.261 C 607.116 159.926 605.893 159.069 604.546 159.069 L 602.686 159.069 L 600.823 159.069 C 599.476 159.069 598.253 159.926 597.697 161.261 L 595.725 165.998 C 595.545 166.051 595.466 166.073 595.286 166.126 L 591.491 163.167 C 590.395 162.312 588.94 162.235 587.776 162.969 L 586.162 163.98 L 584.55 164.992 C 583.384 165.724 582.72 167.132 582.852 168.59 L 583.301 173.554 C 583.1 173.774 583.008 173.873 582.805 174.095 L 578.352 173.616 C 577.014 173.472 575.719 174.194 575.044 175.464 L 574.113 177.217 L 573.181 178.97 C 572.508 180.238 572.581 181.819 573.366 183.01 L 575.886 186.835 C 575.78 187.276 575.729 187.476 575.621 187.917 L 571.78 189.808 C 570.552 190.412 569.763 191.743 569.763 193.208 L 569.763 195.231 L 569.763 197.257 C 569.763 198.722 570.552 200.052 571.78 200.657 L 575.519 202.497 C 575.657 203.06 575.72 203.314 575.859 203.877 L 573.532 207.405 C 572.747 208.595 572.676 210.177 573.35 211.446 L 574.281 213.198 L 575.21 214.952 C 575.885 216.221 577.18 216.944 578.521 216.799 L 582.47 216.376 C 582.811 216.766 583.162 217.143 583.52 217.513 L 583.141 221.691 C 583.008 223.149 583.674 224.558 584.84 225.29 L 586.452 226.302 L 588.065 227.314 C 589.232 228.048 590.683 227.97 591.781 227.116 L 594.982 224.621 C 595.463 224.771 595.951 224.907 596.444 225.03 L 598.031 228.84 C 598.586 230.175 599.81 231.033 601.157 231.033 L 603.02 231.033 L 604.881 231.033 C 606.229 231.033 607.45 230.175 608.006 228.84 L 609.672 224.841 C 610.12 224.715 610.564 224.578 611.001 224.429 L 614.214 226.934 C 615.309 227.787 616.762 227.866 617.929 227.134 L 619.541 226.121 L 621.152 225.109 C 622.32 224.376 622.986 222.967 622.852 221.511 L 622.434 216.906 C 622.759 216.553 622.905 216.395 623.229 216.043 L 627.35 216.485 C 628.692 216.628 629.987 215.905 630.661 214.636 L 631.592 212.884 L 632.521 211.131 C 633.195 209.861 633.124 208.281 632.339 207.09 L 629.716 203.111 C 629.8 202.765 629.841 202.608 629.925 202.262 L 633.925 200.292 C 635.152 199.686 635.941 198.359 635.941 196.893 L 635.941 194.868 L 635.941 192.844 C 635.941 191.379 635.152 190.048 633.925 189.445 L 629.6 187.315 Z " fill="rgb(254,254,254)"/><path d=" M 602.686 174.14 C 591.894 174.14 583.117 183.686 583.117 195.42 C 583.117 207.154 591.894 216.7 602.686 216.7 C 613.475 216.7 622.254 207.154 622.254 195.42 C 622.254 183.686 613.475 174.14 602.686 174.14 Z  M 602.686 219.27 C 590.591 219.27 580.752 208.572 580.752 195.42 C 580.752 182.268 590.591 171.57 602.686 171.57 C 614.779 171.57 624.618 182.268 624.618 195.42 C 624.618 208.572 614.779 219.27 602.686 219.27 Z " fill="rgb(178,206,225)"/><path d=" M 661.77 403.528 L 466.95 403.528 C 464.024 403.528 461.654 400.95 461.654 397.771 L 461.654 258.068 C 461.654 254.886 464.024 252.31 466.95 252.31 L 661.77 252.31 C 664.692 252.31 667.062 254.886 667.062 258.068 L 667.062 397.771 C 667.062 400.95 664.692 403.528 661.77 403.528 Z " fill="rgb(55,61,62)"/><path d=" M 461.654 382.515 L 461.654 397.771 C 461.654 400.95 464.024 403.528 466.95 403.528 L 661.77 403.528 C 664.692 403.528 667.062 400.95 667.062 397.771 L 667.062 382.515 L 461.654 382.515 Z " fill="rgb(228,244,248)"/><path d=" M 651.887 265.359 L 475.774 265.359 C 474.017 265.359 472.595 266.906 472.595 268.812 L 472.595 371.672 C 472.595 373.581 474.017 375.126 475.774 375.126 L 651.887 375.126 C 653.642 375.126 655.065 373.581 655.065 371.672 L 655.065 268.812 C 655.065 266.906 653.642 265.359 651.887 265.359 Z " fill="rgb(87,177,227)"/><path d=" M 586.242 403.528 L 542.477 403.528 L 538.1 438.645 L 590.617 438.645 L 586.242 403.528 Z " fill="rgb(228,244,248)"/><path d=" M 602.61 433.079 L 525.05 433.079 C 522.64 433.079 520.685 435.207 520.685 437.831 L 520.685 444.209 L 606.976 444.209 L 606.976 437.831 C 606.976 435.207 605.021 433.079 602.61 433.079 Z " fill="rgb(228,244,248)"/><path d=" M 586.911 408.901 L 586.911 408.901 L 586.242 403.528 L 586.911 408.901 Z  M 541.808 408.901 L 541.808 408.901 L 542.477 403.528 L 541.808 408.901 Z " fill="rgb(124,156,171)"/><path d=" M 586.911 408.901 L 541.808 408.901 L 542.477 403.528 L 586.242 403.528 L 586.911 408.901 Z " fill="rgb(154,190,193)"/><path d=" M 589.925 433.079 L 589.924 433.079 L 589.631 430.73 L 589.633 430.73 L 589.925 433.079 Z " fill="rgb(124,156,171)"/><path d=" M 589.924 433.079 L 538.795 433.079 L 539.088 430.73 L 589.633 430.73 L 589.924 433.079 Z " fill="rgb(154,190,193)"/><path d=" M 589.925 433.079 L 538.795 433.079 L 589.924 433.079 L 589.925 433.079 Z " fill="rgb(154,190,193)"/><path d=" M 568.771 393.019 C 568.771 390.372 566.795 388.224 564.36 388.224 C 561.923 388.224 559.947 390.372 559.947 393.019 C 559.947 395.67 561.923 397.819 564.36 397.819 C 566.795 397.819 568.771 395.67 568.771 393.019 Z " fill="rgb(55,61,62)"/><path d=" M 567.172 393.019 C 567.172 391.331 565.913 389.963 564.36 389.963 C 562.805 389.963 561.547 391.331 561.547 393.019 C 561.547 394.711 562.805 396.08 564.36 396.08 C 565.913 396.08 567.172 394.711 567.172 393.019 Z " fill="rgb(228,244,248)"/><path d=" M 532.332 309.209 L 487.465 309.209 C 486.585 309.209 485.875 308.434 485.875 307.481 L 485.875 275.818 C 485.875 274.865 486.585 274.09 487.465 274.09 L 532.332 274.09 C 533.208 274.09 533.919 274.865 533.919 275.818 L 533.919 307.481 C 533.919 308.434 533.208 309.209 532.332 309.209 Z " fill="rgb(216,238,241)"/><path d=" M 586.263 309.209 L 541.396 309.209 C 540.52 309.209 539.808 308.434 539.808 307.481 L 539.808 275.818 C 539.808 274.865 540.52 274.09 541.396 274.09 L 586.263 274.09 C 587.141 274.09 587.853 274.865 587.853 275.818 L 587.853 307.481 C 587.853 308.434 587.141 309.209 586.263 309.209 Z " fill="rgb(216,238,241)"/><path d=" M 640.195 309.209 L 595.329 309.209 C 594.452 309.209 593.74 308.434 593.74 307.481 L 593.74 275.818 C 593.74 274.865 594.452 274.09 595.329 274.09 L 640.195 274.09 C 641.073 274.09 641.785 274.865 641.785 275.818 L 641.785 307.481 C 641.785 308.434 641.073 309.209 640.195 309.209 Z " fill="rgb(216,238,241)"/><path d=" M 639.866 324.944 L 487.795 324.944 C 486.734 324.944 485.875 325.879 485.875 327.032 L 485.875 375.126 L 641.785 375.126 L 641.785 327.032 C 641.785 325.879 640.925 324.944 639.866 324.944 Z " fill="rgb(254,254,254)"/><path d=" M 558.999 316.595 L 495.338 316.595 C 494.351 316.595 493.551 317.466 493.551 318.54 L 493.551 351.499 C 493.551 352.571 494.351 353.442 495.338 353.442 L 558.999 353.442 C 559.984 353.442 560.785 352.571 560.785 351.499 L 560.785 318.54 C 560.785 317.466 559.984 316.595 558.999 316.595 Z " fill="rgb(216,238,241)"/><path d=" M 632.321 316.595 L 568.661 316.595 C 567.674 316.595 566.874 317.466 566.874 318.54 L 566.874 351.499 C 566.874 352.571 567.674 353.442 568.661 353.442 L 632.321 353.442 C 633.309 353.442 634.107 352.571 634.107 351.499 L 634.107 318.54 C 634.107 317.466 633.309 316.595 632.321 316.595 Z " fill="rgb(216,238,241)"/><path d=" M 558.844 363.228 L 495.492 363.228 C 494.419 363.228 493.551 362.283 493.551 361.117 C 493.551 359.953 494.419 359.006 495.492 359.006 L 558.844 359.006 C 559.917 359.006 560.785 359.953 560.785 361.117 C 560.785 362.283 559.917 363.228 558.844 363.228 Z " fill="rgb(216,238,241)"/><path d=" M 558.844 371.288 L 495.492 371.288 C 494.419 371.288 493.551 370.344 493.551 369.178 C 493.551 368.012 494.419 367.067 495.492 367.067 L 558.844 367.067 C 559.917 367.067 560.785 368.012 560.785 369.178 C 560.785 370.344 559.917 371.288 558.844 371.288 Z " fill="rgb(216,238,241)"/><path d=" M 632.168 363.228 L 568.816 363.228 C 567.744 363.228 566.874 362.283 566.874 361.117 C 566.874 359.953 567.744 359.006 568.816 359.006 L 632.168 359.006 C 633.239 359.006 634.107 359.953 634.107 361.117 C 634.107 362.283 633.239 363.228 632.168 363.228 Z " fill="rgb(216,238,241)"/><path d=" M 632.168 371.288 L 568.816 371.288 C 567.744 371.288 566.874 370.344 566.874 369.178 C 566.874 368.012 567.744 367.067 568.816 367.067 L 632.168 367.067 C 633.239 367.067 634.107 368.012 634.107 369.178 C 634.107 370.344 633.239 371.288 632.168 371.288 Z " fill="rgb(216,238,241)"/><path d=" M 557.737 330.817 L 424.388 330.817 C 421.804 330.817 419.71 328.54 419.71 325.73 L 419.71 230.487 C 419.71 227.609 421.855 225.276 424.5 225.276 L 557.624 225.276 C 560.269 225.276 562.414 227.609 562.414 230.487 L 562.414 325.73 C 562.414 328.54 560.319 330.817 557.737 330.817 Z " fill="rgb(55,61,62)"/><path d=" M 562.414 235.39 L 419.71 235.39 L 419.71 230.487 C 419.71 227.609 421.855 225.276 424.5 225.276 L 557.624 225.276 C 560.269 225.276 562.414 227.609 562.414 230.487 L 562.414 235.39 Z " fill="rgb(228,244,248)"/><path d=" M 546.404 230.333 C 546.404 231.349 545.648 232.171 544.712 232.171 C 543.778 232.171 543.023 231.349 543.023 230.333 C 543.023 229.317 543.778 228.495 544.712 228.495 C 545.648 228.495 546.404 229.317 546.404 230.333 Z " fill="rgb(238,75,85)"/><path d=" M 551.372 230.333 C 551.372 231.349 550.615 232.171 549.681 232.171 C 548.747 232.171 547.99 231.349 547.99 230.333 C 547.99 229.317 548.747 228.495 549.681 228.495 C 550.615 228.495 551.372 229.317 551.372 230.333 Z " fill="rgb(254,207,62)"/><path d=" M 556.338 230.333 C 556.338 231.349 555.582 232.171 554.65 232.171 C 553.716 232.171 552.957 231.349 552.957 230.333 C 552.957 229.317 553.716 228.495 554.65 228.495 C 555.582 228.495 556.338 229.317 556.338 230.333 Z " fill="rgb(87,177,227)"/><path d=" M 468.735 295.819 C 467.87 295.819 467.005 295.457 466.345 294.74 L 452.679 279.879 C 451.358 278.444 451.358 276.116 452.679 274.679 L 466.345 259.819 C 467.664 258.382 469.804 258.382 471.127 259.819 C 472.446 261.252 472.446 263.582 471.127 265.018 L 459.853 277.28 L 471.127 289.54 C 472.446 290.977 472.446 293.303 471.127 294.74 C 470.465 295.457 469.599 295.819 468.735 295.819 Z " fill="rgb(254,254,254)"/><path d=" M 513.388 295.819 C 512.523 295.819 511.659 295.457 510.997 294.74 C 509.677 293.303 509.677 290.977 510.997 289.54 L 522.271 277.28 L 510.997 265.018 C 509.677 263.582 509.677 261.252 510.997 259.819 C 512.319 258.382 514.459 258.382 515.778 259.819 L 529.445 274.679 C 530.765 276.116 530.765 278.444 529.445 279.879 L 515.778 294.74 C 515.12 295.457 514.253 295.819 513.388 295.819 Z " fill="rgb(254,254,254)"/><path d=" M 485.6 280.955 L 476.335 280.955 C 474.466 280.955 472.953 279.311 472.953 277.28 C 472.953 275.248 474.466 273.602 476.335 273.602 L 485.6 273.602 C 487.468 273.602 488.982 275.248 488.982 277.28 C 488.982 279.311 487.468 280.955 485.6 280.955 Z " fill="rgb(254,254,254)"/><path d=" M 499.734 277.265 C 499.734 279.271 498.239 280.896 496.396 280.896 C 494.553 280.896 493.056 279.271 493.056 277.265 C 493.056 275.259 494.553 273.634 496.396 273.634 C 498.239 273.634 499.734 275.259 499.734 277.265 Z " fill="rgb(254,254,254)"/><path d=" M 509.331 277.265 C 509.331 279.271 507.835 280.896 505.99 280.896 C 504.148 280.896 502.653 279.271 502.653 277.265 C 502.653 275.259 504.148 273.634 505.99 273.634 C 507.835 273.634 509.331 275.259 509.331 277.265 Z " fill="rgb(254,254,254)"/><path d=" M 690.42 406.654 L 626.471 406.654 L 626.471 393.215 L 690.42 393.215 L 690.42 406.654 Z " fill="rgb(228,244,248)"/><path d=" M 641.903 423.622 L 633.758 423.622 L 633.758 393.215 L 641.903 393.215 L 641.903 423.622 Z " fill="rgb(228,244,248)"/><path d=" M 641.903 407.583 L 633.758 407.583 L 633.758 406.654 L 640.953 406.654 L 641.903 406.654 L 641.903 407.583 Z " fill="rgb(199,221,223)"/><path d=" M 684.907 423.622 L 676.764 423.622 L 676.764 393.215 L 684.907 393.215 L 684.907 423.622 Z " fill="rgb(228,244,248)"/><path d=" M 684.907 407.583 L 676.764 407.583 L 676.764 406.654 L 683.848 406.654 L 684.907 406.654 L 684.907 407.583 Z " fill="rgb(199,221,223)"/><path d=" M 690.42 423.622 L 626.471 423.622 L 626.471 410.184 L 690.42 410.184 L 690.42 423.622 Z " fill="rgb(228,244,248)"/><path d=" M 659.684 410.184 L 652.238 423.622 L 660.148 423.622 L 667.593 410.184 L 659.684 410.184 Z  M 640.953 406.654 L 648.397 393.215 L 640.489 393.215 L 633.043 406.654 L 640.953 406.654 Z  M 645.386 410.184 L 637.94 423.622 L 645.849 423.622 L 653.295 410.184 L 645.386 410.184 Z  M 673.982 410.184 L 666.538 423.622 L 674.446 423.622 L 681.889 410.184 L 673.982 410.184 Z  M 680.837 423.622 L 688.743 423.622 L 690.42 420.596 L 690.42 410.184 L 688.282 410.184 L 680.837 423.622 Z  M 669.548 406.654 L 676.994 393.215 L 669.084 393.215 L 661.639 406.654 L 669.548 406.654 Z  M 631.089 410.184 L 626.471 418.516 L 626.471 423.622 L 631.55 423.622 L 638.994 410.184 L 631.089 410.184 Z  M 634.098 393.215 L 626.471 393.215 L 626.471 406.654 L 626.653 406.654 L 634.098 393.215 Z  M 655.25 406.654 L 662.695 393.215 L 654.787 393.215 L 647.342 406.654 L 655.25 406.654 Z  M 690.42 406.654 L 690.42 406.324 L 690.238 406.654 L 690.42 406.654 Z  M 683.384 393.215 L 675.938 406.654 L 683.848 406.654 L 690.42 394.79 L 690.42 393.215 L 683.384 393.215 Z " fill="rgb(238,75,85)"/><path d=" M 638.684 444.209 L 645.46 444.209 L 644.153 423.622 L 637.373 423.622 L 638.684 444.209 Z " fill="rgb(173,191,192)"/><path d=" M 644.288 425.788 L 644.153 423.622 L 637.373 423.622 L 637.512 425.788 L 644.288 425.788 Z " fill="rgb(119,132,133)"/><path d=" M 636.297 444.209 L 629.518 444.209 L 632.194 423.622 L 638.972 423.622 L 636.297 444.209 Z " fill="rgb(228,244,248)"/><path d=" M 631.912 425.788 L 631.912 425.788 L 632.194 423.622 L 631.912 425.788 Z " fill="rgb(175,199,208)"/><path d=" M 638.689 425.788 L 631.912 425.788 L 632.194 423.622 L 638.972 423.622 L 638.689 425.788 Z " fill="rgb(199,221,223)"/><path d=" M 680.595 444.209 L 687.371 444.209 L 686.061 423.622 L 679.286 423.622 L 680.595 444.209 Z " fill="rgb(173,191,192)"/><path d=" M 686.2 425.788 L 686.061 423.622 L 679.286 423.622 L 679.421 425.788 L 686.2 425.788 Z " fill="rgb(119,132,133)"/><path d=" M 678.205 444.209 L 671.43 444.209 L 674.105 423.622 L 680.884 423.622 L 678.205 444.209 Z " fill="rgb(228,244,248)"/><path d=" M 680.6 425.788 L 673.825 425.788 L 674.105 423.622 L 680.884 423.622 L 680.6 425.788 Z " fill="rgb(199,221,223)"/><path d=" M 643.753 390.523 L 631.91 390.523 L 631.91 393.215 L 643.753 393.215 L 643.753 390.523 Z " fill="rgb(228,244,248)"/><path d=" M 637.831 382.318 L 637.831 382.318 C 635.086 382.318 632.862 384.738 632.862 387.723 L 632.862 390.523 L 642.8 390.523 L 642.8 387.723 C 642.8 384.738 640.574 382.318 637.831 382.318 Z " fill="rgb(238,75,85)"/><path d=" M 639.954 387.02 C 639.954 385.744 639.003 384.709 637.831 384.709 C 636.659 384.709 635.706 385.744 635.706 387.02 C 635.706 388.296 636.659 389.33 637.831 389.33 C 639.003 389.33 639.954 388.296 639.954 387.02 Z " fill="rgb(254,207,62)"/><path d=" M 638.359 386.435 C 638.359 385.797 637.882 385.279 637.294 385.279 C 636.707 385.279 636.23 385.797 636.23 386.435 C 636.23 387.077 636.707 387.596 637.294 387.596 C 637.882 387.596 638.359 387.077 638.359 386.435 Z " fill="rgb(251,244,162)"/><path d=" M 637.536 386.166 C 637.536 385.872 637.317 385.635 637.047 385.635 C 636.777 385.635 636.557 385.872 636.557 386.166 C 636.557 386.461 636.777 386.699 637.047 386.699 C 637.317 386.699 637.536 386.461 637.536 386.166 Z " fill="rgb(254,254,254)"/><path d=" M 643.753 393.215 L 634.098 393.215 L 631.91 393.215 L 631.91 392.534 L 643.753 392.534 L 643.753 393.215 Z " fill="rgb(199,221,223)"/><path d=" M 642.8 390.095 L 632.862 390.095 L 632.862 390.523 L 642.8 390.523 L 642.8 390.095 Z " fill="rgb(191,75,57)"/><path d=" M 638.172 380.739 L 637.489 380.739 L 637.489 378.013 L 638.172 378.013 L 638.172 380.739 Z " fill="rgb(254,254,254)"/><path d=" M 635.437 381.305 L 634.581 378.747 L 635.223 378.492 L 636.078 381.052 L 635.437 381.305 Z " fill="rgb(254,254,254)"/><path d=" M 633.687 382.603 L 632.076 380.516 L 632.601 380.037 L 634.21 382.125 L 633.687 382.603 Z " fill="rgb(254,254,254)"/><path d=" M 632.45 384.471 L 630.28 383.11 L 630.623 382.465 L 632.793 383.829 L 632.45 384.471 Z " fill="rgb(254,254,254)"/><path d=" M 631.876 386.689 L 629.41 386.213 L 629.528 385.481 L 631.995 385.957 L 631.876 386.689 Z " fill="rgb(254,254,254)"/><path d=" M 629.567 389.458 L 629.448 388.727 L 631.916 388.254 L 632.034 388.986 L 629.567 389.458 Z " fill="rgb(254,254,254)"/><path d=" M 640.225 381.305 L 639.582 381.052 L 640.44 378.492 L 641.08 378.747 L 640.225 381.305 Z " fill="rgb(254,254,254)"/><path d=" M 641.975 382.603 L 641.451 382.125 L 643.061 380.037 L 643.585 380.516 L 641.975 382.603 Z " fill="rgb(254,254,254)"/><path d=" M 643.211 384.471 L 642.869 383.829 L 645.04 382.465 L 645.381 383.11 L 643.211 384.471 Z " fill="rgb(254,254,254)"/><path d=" M 643.786 386.689 L 643.667 385.957 L 646.132 385.481 L 646.254 386.213 L 643.786 386.689 Z " fill="rgb(254,254,254)"/><path d=" M 646.095 389.458 L 643.628 388.986 L 643.746 388.254 L 646.213 388.727 L 646.095 389.458 Z " fill="rgb(254,254,254)"/><path d=" M 686.757 390.523 L 674.914 390.523 L 674.914 393.215 L 686.757 393.215 L 686.757 390.523 Z " fill="rgb(228,244,248)"/><path d=" M 680.837 382.318 L 680.837 382.318 C 678.09 382.318 675.866 384.738 675.866 387.723 L 675.866 390.523 L 685.805 390.523 L 685.805 387.723 C 685.805 384.738 683.581 382.318 680.837 382.318 Z " fill="rgb(238,75,85)"/><path d=" M 682.961 387.02 C 682.961 385.744 682.009 384.709 680.837 384.709 C 679.662 384.709 678.71 385.744 678.71 387.02 C 678.71 388.296 679.662 389.33 680.837 389.33 C 682.009 389.33 682.961 388.296 682.961 387.02 Z " fill="rgb(254,207,62)"/><path d=" M 681.366 386.435 C 681.366 385.797 680.888 385.279 680.299 385.279 C 679.71 385.279 679.232 385.797 679.232 386.435 C 679.232 387.077 679.71 387.596 680.299 387.596 C 680.888 387.596 681.366 387.077 681.366 386.435 Z " fill="rgb(251,244,162)"/><path d=" M 680.542 386.166 C 680.542 385.872 680.321 385.635 680.05 385.635 C 679.782 385.635 679.562 385.872 679.562 386.166 C 679.562 386.461 679.782 386.699 680.05 386.699 C 680.321 386.699 680.542 386.461 680.542 386.166 Z " fill="rgb(254,254,254)"/><path d=" M 686.757 393.215 L 676.994 393.215 L 674.914 393.215 L 674.914 392.534 L 686.757 392.534 L 686.757 393.215 Z " fill="rgb(199,221,223)"/><path d=" M 685.805 390.095 L 675.866 390.095 L 675.866 390.523 L 685.805 390.523 L 685.805 390.095 Z " fill="rgb(191,75,57)"/><path d=" M 681.176 380.739 L 680.495 380.739 L 680.495 378.013 L 681.176 378.013 L 681.176 380.739 Z " fill="rgb(254,254,254)"/><path d=" M 678.441 381.305 L 677.584 378.747 L 678.228 378.492 L 679.085 381.052 L 678.441 381.305 Z " fill="rgb(254,254,254)"/><path d=" M 676.692 382.603 L 675.081 380.516 L 675.604 380.037 L 677.214 382.125 L 676.692 382.603 Z " fill="rgb(254,254,254)"/><path d=" M 675.457 384.471 L 673.286 383.11 L 673.625 382.465 L 675.798 383.829 L 675.457 384.471 Z " fill="rgb(254,254,254)"/><path d=" M 674.881 386.689 L 672.414 386.213 L 672.533 385.481 L 675 385.957 L 674.881 386.689 Z " fill="rgb(254,254,254)"/><path d=" M 672.572 389.458 L 672.453 388.727 L 674.92 388.254 L 675.04 388.986 L 672.572 389.458 Z " fill="rgb(254,254,254)"/><path d=" M 683.23 381.305 L 682.589 381.052 L 683.446 378.492 L 684.087 378.747 L 683.23 381.305 Z " fill="rgb(254,254,254)"/><path d=" M 684.98 382.603 L 684.457 382.125 L 686.066 380.037 L 686.591 380.516 L 684.98 382.603 Z " fill="rgb(254,254,254)"/><path d=" M 686.217 384.471 L 685.873 383.829 L 688.045 382.465 L 688.387 383.11 L 686.217 384.471 Z " fill="rgb(254,254,254)"/><path d=" M 686.79 386.689 L 686.672 385.957 L 689.139 385.481 L 689.258 386.213 L 686.79 386.689 Z " fill="rgb(254,254,254)"/><path d=" M 689.099 389.458 L 686.632 388.986 L 686.751 388.254 L 689.218 388.727 L 689.099 389.458 Z " fill="rgb(254,254,254)"/><path d=" M 444.394 406.654 L 380.446 406.654 L 380.446 393.215 L 444.394 393.215 L 444.394 406.654 Z " fill="rgb(228,244,248)"/><path d=" M 395.878 423.622 L 387.734 423.622 L 387.734 393.215 L 395.878 393.215 L 395.878 423.622 Z " fill="rgb(228,244,248)"/><path d=" M 395.878 407.583 L 387.734 407.583 L 387.734 406.654 L 394.927 406.654 L 395.878 406.654 L 395.878 407.583 Z " fill="rgb(199,221,223)"/><path d=" M 438.883 423.622 L 430.74 423.622 L 430.74 393.215 L 438.883 393.215 L 438.883 423.622 Z " fill="rgb(228,244,248)"/><path d=" M 438.174 407.583 L 430.74 407.583 L 430.74 406.654 L 437.821 406.654 L 437.923 406.654 C 437.997 406.968 438.082 407.277 438.174 407.583 Z " fill="rgb(199,221,223)"/><path d=" M 444.394 423.622 L 380.446 423.622 L 380.446 410.184 L 444.394 410.184 L 444.394 423.622 Z " fill="rgb(228,244,248)"/><path d=" M 413.66 410.184 L 406.215 423.622 L 414.123 423.622 L 421.568 410.184 L 413.66 410.184 Z  M 394.927 406.654 L 402.372 393.215 L 394.464 393.215 L 387.018 406.654 L 394.927 406.654 Z  M 399.362 410.184 L 391.918 423.622 L 399.825 423.622 L 407.269 410.184 L 399.362 410.184 Z  M 427.958 410.184 L 420.513 423.622 L 428.42 423.622 L 435.865 410.184 L 427.958 410.184 Z  M 434.812 423.622 L 442.721 423.622 L 444.394 420.596 L 444.394 410.184 L 442.257 410.184 L 434.812 423.622 Z  M 423.523 406.654 L 430.969 393.215 L 423.062 393.215 L 415.616 406.654 L 423.523 406.654 Z  M 385.064 410.184 L 380.446 418.516 L 380.446 423.622 L 385.525 423.622 L 392.971 410.184 L 385.064 410.184 Z  M 388.074 393.215 L 380.446 393.215 L 380.446 406.654 L 380.628 406.654 L 388.074 393.215 Z  M 409.225 406.654 L 416.67 393.215 L 408.763 393.215 L 401.318 406.654 L 409.225 406.654 Z  M 444.394 406.654 L 444.394 406.324 L 444.213 406.654 L 444.394 406.654 Z  M 437.359 393.215 L 429.913 406.654 L 437.821 406.654 L 444.394 394.79 L 444.394 393.215 L 437.359 393.215 Z " fill="rgb(238,75,85)"/><path d=" M 392.658 444.209 L 399.435 444.209 L 398.127 423.622 L 391.347 423.622 L 392.658 444.209 Z " fill="rgb(173,191,192)"/><path d=" M 398.264 425.788 L 398.127 423.622 L 391.347 423.622 L 391.486 425.788 L 398.264 425.788 Z " fill="rgb(119,132,133)"/><path d=" M 390.27 444.209 L 383.492 444.209 L 386.17 423.622 L 392.947 423.622 L 390.27 444.209 Z " fill="rgb(228,244,248)"/><path d=" M 392.665 425.788 L 392.665 425.788 L 392.947 423.622 L 392.665 425.788 Z " fill="rgb(145,161,162)"/><path d=" M 385.888 425.788 L 385.886 425.788 L 386.17 423.622 L 385.888 425.788 Z " fill="rgb(175,199,208)"/><path d=" M 392.665 425.788 L 385.888 425.788 L 386.17 423.622 L 392.947 423.622 L 392.665 425.788 Z " fill="rgb(199,221,223)"/><path d=" M 434.569 444.209 L 441.348 444.209 L 440.038 423.622 L 433.261 423.622 L 434.569 444.209 Z " fill="rgb(173,191,192)"/><path d=" M 440.175 425.788 L 440.038 423.622 L 433.261 423.622 L 433.397 425.788 L 440.175 425.788 Z " fill="rgb(119,132,133)"/><path d=" M 432.183 444.209 L 425.405 444.209 L 428.08 423.622 L 434.86 423.622 L 432.183 444.209 Z " fill="rgb(228,244,248)"/><path d=" M 434.577 425.788 L 427.798 425.788 L 428.08 423.622 L 434.86 423.622 L 434.577 425.788 Z " fill="rgb(199,221,223)"/><path d=" M 397.728 390.523 L 385.883 390.523 L 385.883 393.215 L 397.728 393.215 L 397.728 390.523 Z " fill="rgb(228,244,248)"/><path d=" M 391.807 382.318 L 391.807 382.318 C 389.062 382.318 386.837 384.738 386.837 387.723 L 386.837 390.523 L 396.776 390.523 L 396.776 387.723 C 396.776 384.738 394.551 382.318 391.807 382.318 Z " fill="rgb(238,75,85)"/><path d=" M 393.932 387.02 C 393.932 385.744 392.979 384.709 391.807 384.709 C 390.633 384.709 389.681 385.744 389.681 387.02 C 389.681 388.296 390.633 389.33 391.807 389.33 C 392.979 389.33 393.932 388.296 393.932 387.02 Z " fill="rgb(254,207,62)"/><path d=" M 392.336 386.435 C 392.336 385.797 391.859 385.279 391.271 385.279 C 390.681 385.279 390.205 385.797 390.205 386.435 C 390.205 387.077 390.681 387.596 391.271 387.596 C 391.859 387.596 392.336 387.077 392.336 386.435 Z " fill="rgb(251,244,162)"/><path d=" M 391.511 386.166 C 391.511 385.872 391.292 385.635 391.022 385.635 C 390.752 385.635 390.531 385.872 390.531 386.166 C 390.531 386.461 390.752 386.699 391.022 386.699 C 391.292 386.699 391.511 386.461 391.511 386.166 Z " fill="rgb(254,254,254)"/><path d=" M 397.728 393.215 L 388.074 393.215 L 385.883 393.215 L 385.883 392.534 L 397.728 392.534 L 397.728 393.215 Z " fill="rgb(199,221,223)"/><path d=" M 396.776 390.095 L 386.837 390.095 L 386.837 390.523 L 396.776 390.523 L 396.776 390.095 Z " fill="rgb(191,75,57)"/><path d=" M 392.147 380.739 L 391.465 380.739 L 391.465 378.013 L 392.147 378.013 L 392.147 380.739 Z " fill="rgb(254,254,254)"/><path d=" M 389.413 381.305 L 388.556 378.747 L 389.198 378.492 L 390.056 381.052 L 389.413 381.305 Z " fill="rgb(254,254,254)"/><path d=" M 387.663 382.603 L 386.053 380.516 L 386.576 380.037 L 388.187 382.125 L 387.663 382.603 Z " fill="rgb(254,254,254)"/><path d=" M 386.427 384.471 L 384.256 383.11 L 384.599 382.465 L 386.768 383.829 L 386.427 384.471 Z " fill="rgb(254,254,254)"/><path d=" M 385.852 386.689 L 383.385 386.213 L 383.502 385.481 L 385.972 385.957 L 385.852 386.689 Z " fill="rgb(254,254,254)"/><path d=" M 383.543 389.458 L 383.425 388.727 L 385.892 388.254 L 386.01 388.986 L 383.543 389.458 Z " fill="rgb(254,254,254)"/><path d=" M 394.199 381.305 L 393.559 381.052 L 394.414 378.492 L 395.057 378.747 L 394.199 381.305 Z " fill="rgb(254,254,254)"/><path d=" M 395.95 382.603 L 395.426 382.125 L 397.036 380.037 L 397.561 380.516 L 395.95 382.603 Z " fill="rgb(254,254,254)"/><path d=" M 397.186 384.471 L 396.845 383.829 L 399.013 382.465 L 399.356 383.11 L 397.186 384.471 Z " fill="rgb(254,254,254)"/><path d=" M 397.759 386.689 L 397.642 385.957 L 400.109 385.481 L 400.229 386.213 L 397.759 386.689 Z " fill="rgb(254,254,254)"/><path d=" M 400.07 389.458 L 397.603 388.986 L 397.72 388.254 L 400.188 388.727 L 400.07 389.458 Z " fill="rgb(254,254,254)"/><path d=" M 440.735 390.523 L 428.89 390.523 L 428.89 393.215 L 440.735 393.215 L 440.735 390.523 Z " fill="rgb(228,244,248)"/><path d=" M 434.812 382.318 L 434.812 382.318 C 432.066 382.318 429.842 384.738 429.842 387.723 L 429.842 390.523 L 439.779 390.523 L 439.779 387.723 C 439.779 384.738 437.555 382.318 434.812 382.318 Z " fill="rgb(238,75,85)"/><path d=" M 436.935 387.02 C 436.935 385.744 435.984 384.709 434.812 384.709 C 433.638 384.709 432.688 385.744 432.688 387.02 C 432.688 388.296 433.638 389.33 434.812 389.33 C 435.984 389.33 436.935 388.296 436.935 387.02 Z " fill="rgb(254,207,62)"/><path d=" M 435.341 386.435 C 435.341 385.797 434.864 385.279 434.274 385.279 C 433.687 385.279 433.21 385.797 433.21 386.435 C 433.21 387.077 433.687 387.596 434.274 387.596 C 434.864 387.596 435.341 387.077 435.341 386.435 Z " fill="rgb(251,244,162)"/><path d=" M 434.516 386.166 C 434.516 385.872 434.298 385.635 434.027 385.635 C 433.757 385.635 433.537 385.872 433.537 386.166 C 433.537 386.461 433.757 386.699 434.027 386.699 C 434.298 386.699 434.516 386.461 434.516 386.166 Z " fill="rgb(254,254,254)"/><path d=" M 440.593 393.215 L 430.969 393.215 L 428.89 393.215 L 428.89 392.534 L 440.735 392.534 L 440.735 393.027 C 440.686 393.089 440.641 393.151 440.593 393.215 Z " fill="rgb(199,221,223)"/><path d=" M 439.779 390.095 L 429.842 390.095 L 429.842 390.523 L 439.779 390.523 L 439.779 390.095 Z " fill="rgb(191,75,57)"/><path d=" M 435.153 380.739 L 434.469 380.739 L 434.469 378.013 L 435.153 378.013 L 435.153 380.739 Z " fill="rgb(254,254,254)"/><path d=" M 432.417 381.305 L 431.56 378.747 L 432.203 378.492 L 433.059 381.052 L 432.417 381.305 Z " fill="rgb(254,254,254)"/><path d=" M 430.667 382.603 L 429.056 380.516 L 429.581 380.037 L 431.193 382.125 L 430.667 382.603 Z " fill="rgb(254,254,254)"/><path d=" M 429.432 384.471 L 427.261 383.11 L 427.604 382.465 L 429.773 383.829 L 429.432 384.471 Z " fill="rgb(254,254,254)"/><path d=" M 428.858 386.689 L 426.389 386.213 L 426.509 385.481 L 428.975 385.957 L 428.858 386.689 Z " fill="rgb(254,254,254)"/><path d=" M 426.547 389.458 L 426.428 388.727 L 428.895 388.254 L 429.015 388.986 L 426.547 389.458 Z " fill="rgb(254,254,254)"/><path d=" M 437.205 381.305 L 436.564 381.052 L 437.421 378.492 L 438.063 378.747 L 437.205 381.305 Z " fill="rgb(254,254,254)"/><path d=" M 438.955 382.603 L 438.432 382.125 L 440.042 380.037 L 440.565 380.516 L 438.955 382.603 Z " fill="rgb(254,254,254)"/><path d=" M 440.192 384.471 L 439.849 383.829 L 442.02 382.465 L 442.361 383.11 L 440.192 384.471 Z " fill="rgb(254,254,254)"/><path d=" M 440.766 386.689 L 440.648 385.957 L 443.114 385.481 L 443.234 386.213 L 440.766 386.689 Z " fill="rgb(254,254,254)"/><path d=" M 443.077 389.458 L 440.607 388.986 L 440.726 388.254 L 443.193 388.727 L 443.077 389.458 Z " fill="rgb(254,254,254)"/><path d=" M 729.951 437.87 L 700.883 437.87 L 700.883 444.209 L 729.951 444.209 L 729.951 437.87 Z " fill="rgb(238,75,85)"/><path d=" M 727.26 437.87 L 703.575 437.87 L 710.678 404.455 L 720.154 404.455 L 727.26 437.87 Z " fill="rgb(238,75,85)"/><path d=" M 724.129 423.153 L 706.703 423.153 L 705.755 427.618 L 725.079 427.618 L 724.129 423.153 Z  M 720.724 407.138 L 710.11 407.138 L 709.159 411.603 L 721.674 411.603 L 720.724 407.138 Z  M 722.427 415.146 L 708.404 415.146 L 707.458 419.609 L 723.375 419.609 L 722.427 415.146 Z  M 725.832 431.161 L 705.001 431.161 L 704.051 435.624 L 726.781 435.624 L 725.832 431.161 Z " fill="rgb(228,244,248)"/><path d=" M 703.838 436.628 L 703.575 437.87 L 727.26 437.87 L 726.994 436.628 L 703.838 436.628 Z " fill="rgb(191,75,57)"/><path d=" M 455.059 334.631 L 432.489 313.705 L 433.615 312.268 L 456.188 333.194 L 455.059 334.631 Z " fill="rgb(55,61,62)"/><path d=" M 466.619 348.232 L 454.284 335.795 C 453.416 334.921 453.341 333.457 454.113 332.482 C 454.864 331.535 456.157 331.378 457.082 332.118 L 471.936 344.021 L 466.619 348.232 Z " fill="rgb(254,207,62)"/><path d=" M 453.648 333.456 C 453.648 333.455 453.648 333.453 453.648 333.452 C 453.648 333.453 453.648 333.455 453.648 333.456 Z  M 453.648 333.451 C 453.656 333.417 453.665 333.382 453.675 333.348 L 453.675 333.348 C 453.665 333.382 453.656 333.417 453.648 333.451 Z " fill="rgb(179,188,135)"/><path d=" M 453.675 333.348 L 453.675 333.348 C 453.779 332.971 453.973 332.616 454.254 332.318 C 454.326 332.244 454.402 332.175 454.481 332.113 C 454.348 332.218 454.224 332.342 454.113 332.482 C 453.907 332.743 453.761 333.038 453.675 333.348 Z " fill="rgb(56,59,51)"/><path d=" M 465.496 347.1 L 454.284 335.795 L 454.284 335.795 C 453.676 335.181 453.457 334.278 453.648 333.456 C 453.648 333.455 453.648 333.453 453.648 333.452 C 453.648 333.452 453.648 333.452 453.648 333.451 C 453.656 333.417 453.665 333.382 453.675 333.348 C 453.761 333.038 453.907 332.743 454.113 332.482 C 454.224 332.342 454.348 332.218 454.481 332.113 C 454.852 331.823 455.295 331.684 455.744 331.684 C 456.247 331.684 456.76 331.861 457.184 332.2 L 458.413 333.185 L 458.149 334.058 C 457.86 335.009 458.152 336.052 458.882 336.666 L 465.252 342.03 C 465.637 342.353 466.105 342.524 466.583 342.524 C 466.752 342.524 466.923 342.502 467.091 342.458 L 469.272 341.887 L 470.854 343.155 C 468.937 344.264 467.142 345.588 465.496 347.1 Z " fill="rgb(252,186,51)"/><path d=" M 379.482 351.134 L 378.174 349.892 L 399.924 322.752 L 401.231 323.993 L 379.482 351.134 Z " fill="rgb(55,61,62)"/><path d=" M 414.546 312.543 L 402.201 324.967 C 401.33 325.841 399.985 325.81 399.15 324.898 C 398.339 324.013 398.292 322.598 399.043 321.654 L 411.094 306.456 L 414.546 312.543 Z " fill="rgb(254,207,62)"/><path d=" M 400.708 325.604 C 400.479 325.604 400.251 325.564 400.033 325.489 L 400.033 325.488 C 400.252 325.564 400.479 325.602 400.708 325.602 C 401.087 325.602 401.468 325.496 401.808 325.283 C 401.468 325.497 401.087 325.604 400.708 325.604 Z  M 399.17 321.494 L 400.123 320.289 L 400.125 320.291 L 399.17 321.494 Z  M 408.931 309.184 L 408.931 309.182 L 409.472 308.501 L 409.472 308.502 L 408.931 309.184 Z " fill="rgb(179,188,135)"/><path d=" M 400.033 325.489 C 399.851 325.424 399.673 325.334 399.508 325.216 C 399.674 325.334 399.851 325.424 400.033 325.488 L 400.033 325.489 Z " fill="rgb(56,59,51)"/><path d=" M 400.708 325.602 C 400.479 325.602 400.252 325.564 400.033 325.488 C 399.851 325.424 399.674 325.334 399.508 325.216 C 399.327 325.087 399.158 324.925 399.011 324.731 C 398.311 323.815 398.411 322.45 399.126 321.549 L 399.17 321.494 L 400.125 320.291 L 400.902 320.644 C 401.173 320.767 401.457 320.826 401.738 320.826 C 402.34 320.826 402.93 320.555 403.351 320.051 L 408.755 313.551 C 409.198 313.021 409.394 312.298 409.289 311.591 L 408.931 309.184 L 409.472 308.502 L 409.346 317.481 C 409.345 317.585 409.341 317.686 409.333 317.789 L 402.2 324.967 C 402.077 325.09 401.945 325.195 401.808 325.283 C 401.468 325.496 401.087 325.602 400.708 325.602 Z " fill="rgb(252,186,51)"/><path d=" M 506.573 390.622 L 432.436 318.489 C 429.135 315.276 424.066 315.566 421.093 319.14 C 418.344 322.445 418.314 327.469 421.025 330.808 L 470.092 391.327 L 506.573 390.622 Z " fill="rgb(254,207,62)"/><path d=" M 463.689 348.898 L 462.79 348.023 L 462.791 348.021 L 463.69 348.897 C 463.69 348.897 463.69 348.897 463.689 348.898 Z " fill="rgb(56,59,51)"/><path d=" M 436.486 322.429 L 433.963 319.974 L 433.964 319.972 L 432.463 318.516 C 432.517 318.566 432.57 318.616 432.622 318.665 L 436.486 322.426 L 436.486 322.429 Z " fill="rgb(56,59,51)"/><path d=" M 454.683 372.322 L 421.838 331.809 L 433.963 319.974 L 436.486 322.429 L 434.332 328.675 C 433.47 331.173 434.098 333.989 435.915 335.781 L 450.822 350.506 C 451.953 351.623 453.397 352.196 454.851 352.196 C 455.93 352.196 457.014 351.879 457.981 351.234 L 462.79 348.023 L 463.689 348.898 C 458.144 354.877 454.703 363.163 454.683 372.322 Z " fill="rgb(252,186,51)"/><path d=" M 421.836 331.811 L 421.025 330.808 C 420.695 330.402 420.405 329.97 420.157 329.519 L 420.157 329.519 C 420.405 329.97 420.695 330.402 421.025 330.808 L 421.025 330.808 L 421.838 331.809 L 421.836 331.811 Z " fill="rgb(179,176,84)"/><path d=" M 432.463 318.516 C 432.463 318.516 432.463 318.516 432.462 318.514 L 432.436 318.489 L 432.463 318.516 Z " fill="rgb(56,58,48)"/><path d=" M 421.838 331.809 L 421.025 330.808 L 421.838 331.809 Z  M 421.025 330.808 C 420.695 330.402 420.405 329.97 420.157 329.519 L 420.157 329.519 C 420.406 329.97 420.695 330.401 421.025 330.808 Z  M 432.462 318.514 C 432.225 318.296 431.98 318.092 431.725 317.905 L 431.744 317.886 C 431.982 318.071 432.214 318.273 432.436 318.489 L 432.436 318.489 L 432.462 318.514 Z " fill="rgb(250,175,50)"/><path d=" M 433.963 319.974 L 432.462 318.514 C 432.463 318.516 432.463 318.516 432.463 318.516 L 433.964 319.972 L 433.963 319.974 Z " fill="rgb(56,56,47)"/><path d=" M 421.838 331.809 L 421.025 330.808 L 421.025 330.808 C 420.695 330.401 420.406 329.97 420.157 329.519 L 431.725 317.905 C 431.98 318.092 432.225 318.296 432.462 318.514 L 433.963 319.974 L 421.838 331.809 Z " fill="rgb(248,159,52)"/><path d=" M 508.436 418.071 L 451.509 418.071 C 443.756 418.071 437.474 411.24 437.474 402.809 C 437.474 394.38 443.756 387.547 451.509 387.547 L 508.436 387.547 C 516.186 387.547 522.469 394.38 522.469 402.809 C 522.469 411.24 516.186 418.071 508.436 418.071 Z " fill="rgb(254,207,62)"/><path d=" M 493.532 339.302 L 485.123 339.302 C 468.311 339.302 454.683 354.119 454.683 372.402 L 454.683 387.547 L 493.532 387.547 L 493.532 339.302 Z " fill="rgb(254,207,62)"/><path d=" M 459.024 382.828 L 459.024 372.402 C 459.024 356.756 470.73 344.021 485.123 344.021 L 489.191 344.021 L 489.191 382.828 L 459.024 382.828 Z " fill="rgb(87,177,227)"/><path d=" M 508.471 421.735 L 451.473 421.735 L 451.473 418.071 L 508.471 418.071 L 508.471 421.735 Z " fill="rgb(55,61,62)"/><path d=" M 519.339 444.209 L 440.605 444.209 C 434.898 444.209 430.27 439.178 430.27 432.973 C 430.27 426.767 434.898 421.735 440.605 421.735 L 519.339 421.735 C 525.046 421.735 529.674 426.767 529.674 432.973 C 529.674 439.178 525.046 444.209 519.339 444.209 Z " fill="rgb(55,61,62)"/><path d=" M 509.303 381.369 L 494.978 381.369 L 494.978 387.547 L 509.303 387.547 L 509.303 381.369 Z " fill="rgb(254,207,62)"/><path d=" M 509.303 387.547 L 508.436 387.547 L 494.978 387.547 L 494.978 385.324 L 509.303 385.324 L 509.303 387.547 Z " fill="rgb(249,167,51)"/><path d=" M 504.71 381.369 L 499.571 381.369 L 499.571 377.506 L 504.71 377.506 L 504.71 381.369 Z " fill="rgb(55,61,62)"/><path d=" M 504.71 378.362 L 499.571 378.362 L 499.571 377.506 L 504.71 377.506 L 504.71 378.362 Z " fill="rgb(47,50,50)"/><path d=" M 505.179 374.97 L 499.102 374.97 C 498.332 374.97 497.71 375.646 497.71 376.485 L 497.71 377.506 L 506.573 377.506 L 506.573 376.485 C 506.573 375.646 505.948 374.97 505.179 374.97 Z " fill="rgb(55,61,62)"/><path d=" M 505.685 408.003 C 503.048 408.003 500.911 405.677 500.911 402.809 C 500.911 399.942 503.048 397.616 505.685 397.616 C 508.323 397.616 510.461 399.942 510.461 402.809 C 510.461 405.677 508.323 408.003 505.685 408.003 Z " fill="rgb(249,167,51)"/><path d=" M 505.685 412.408 C 500.818 412.408 496.86 408.101 496.86 402.809 C 496.86 397.519 500.818 393.212 505.685 393.212 C 510.554 393.212 514.511 397.519 514.511 402.809 C 514.511 408.101 510.554 412.408 505.685 412.408 Z  M 505.685 396.043 C 502.257 396.043 499.465 399.079 499.465 402.809 C 499.465 406.541 502.257 409.575 505.685 409.575 C 509.117 409.575 511.909 406.541 511.909 402.809 C 511.909 399.079 509.117 396.043 505.685 396.043 Z " fill="rgb(249,167,51)"/><path d=" M 463.482 397.616 L 452.513 397.616 C 451.939 397.616 451.473 397.109 451.473 396.486 C 451.473 395.862 451.939 395.355 452.513 395.355 L 463.482 395.355 C 464.056 395.355 464.521 395.862 464.521 396.486 C 464.521 397.109 464.056 397.616 463.482 397.616 Z " fill="rgb(55,61,62)"/><path d=" M 463.482 400.606 L 452.513 400.606 C 451.939 400.606 451.473 400.1 451.473 399.476 C 451.473 398.851 451.939 398.344 452.513 398.344 L 463.482 398.344 C 464.056 398.344 464.521 398.851 464.521 399.476 C 464.521 400.1 464.056 400.606 463.482 400.606 Z " fill="rgb(55,61,62)"/><path d=" M 463.482 394.63 L 452.513 394.63 C 451.939 394.63 451.473 394.121 451.473 393.497 C 451.473 392.872 451.939 392.366 452.513 392.366 L 463.482 392.366 C 464.056 392.366 464.521 392.872 464.521 393.497 C 464.521 394.121 464.056 394.63 463.482 394.63 Z " fill="rgb(55,61,62)"/><path d=" M 464.454 393.858 C 464.313 393.417 463.939 393.092 463.482 393.092 L 452.513 393.092 C 452.058 393.092 451.682 393.417 451.542 393.858 C 451.503 393.744 451.473 393.625 451.473 393.497 L 451.473 393.497 C 451.473 392.872 451.939 392.366 452.513 392.366 L 463.482 392.366 C 464.056 392.366 464.521 392.872 464.521 393.497 L 464.521 393.497 C 464.521 393.625 464.49 393.744 464.454 393.858 Z " fill="rgb(47,50,50)"/><path d=" M 464.454 396.85 C 464.313 396.406 463.939 396.084 463.482 396.084 L 452.513 396.084 C 452.058 396.084 451.682 396.406 451.542 396.85 C 451.503 396.735 451.473 396.616 451.473 396.486 L 451.473 396.486 C 451.473 395.862 451.939 395.355 452.513 395.355 L 463.482 395.355 C 464.056 395.355 464.521 395.862 464.521 396.486 L 464.521 396.486 C 464.521 396.616 464.49 396.735 464.454 396.85 Z " fill="rgb(47,50,50)"/><path d=" M 464.454 399.84 C 464.313 399.396 463.939 399.073 463.482 399.073 L 452.513 399.073 C 452.058 399.073 451.682 399.396 451.542 399.84 C 451.503 399.724 451.473 399.604 451.473 399.476 L 451.473 399.476 C 451.473 398.851 451.939 398.344 452.513 398.344 L 463.482 398.344 C 464.056 398.344 464.521 398.851 464.521 399.476 L 464.521 399.476 C 464.521 399.604 464.49 399.724 464.454 399.84 Z " fill="rgb(47,50,50)"/><path d=" M 456.828 408.08 C 456.828 406.473 455.628 405.17 454.149 405.17 C 452.673 405.17 451.473 406.473 451.473 408.08 C 451.473 409.687 452.673 410.99 454.149 410.99 C 455.628 410.99 456.828 409.687 456.828 408.08 Z " fill="rgb(55,61,62)"/><path d=" M 463.88 408.08 C 463.88 406.473 462.682 405.17 461.205 405.17 C 459.725 405.17 458.528 406.473 458.528 408.08 C 458.528 409.687 459.725 410.99 461.205 410.99 C 462.682 410.99 463.88 409.687 463.88 408.08 Z " fill="rgb(55,61,62)"/><path d=" M 470.935 408.08 C 470.935 406.473 469.737 405.17 468.257 405.17 C 466.779 405.17 465.579 406.473 465.579 408.08 C 465.579 409.687 466.779 410.99 468.257 410.99 C 469.737 410.99 470.935 409.687 470.935 408.08 Z " fill="rgb(55,61,62)"/><path d=" M 436.663 312.948 L 387.878 361.927 C 386.294 363.516 383.857 363.526 382.262 361.95 L 381.477 361.173 C 379.812 359.528 379.653 356.743 381.116 354.884 L 408.347 320.354 C 408.978 319.553 409.334 318.539 409.346 317.481 L 409.506 306.01 C 409.526 304.687 410.076 303.441 411.011 302.595 L 420.011 294.487 C 421.638 293.021 424.017 293.117 425.541 294.706 L 436.721 306.365 C 438.45 308.167 438.423 311.181 436.663 312.948 Z " fill="rgb(254,207,62)"/><path d=" M 385.059 363.125 C 385.056 363.125 385.052 363.125 385.05 363.125 C 385.052 363.125 385.056 363.125 385.059 363.125 L 385.059 363.125 Z  M 385.066 363.125 C 386.057 363.124 387.046 362.738 387.832 361.97 C 387.046 362.738 386.057 363.124 385.066 363.125 Z " fill="rgb(179,188,135)"/><path d=" M 420.034 294.467 C 420.051 294.451 420.068 294.437 420.085 294.423 C 420.068 294.437 420.051 294.451 420.034 294.467 Z  M 420.118 294.394 C 420.121 294.392 420.125 294.389 420.127 294.386 C 420.125 294.389 420.121 294.392 420.118 294.394 Z  M 420.141 294.375 C 420.885 293.756 421.771 293.45 422.655 293.447 C 421.771 293.45 420.885 293.756 420.141 294.375 Z  M 422.67 293.447 C 422.667 293.447 422.665 293.447 422.662 293.447 L 422.662 293.447 C 422.665 293.447 422.667 293.447 422.67 293.447 Z " fill="rgb(56,59,51)"/><path d=" M 385.059 363.125 C 385.056 363.125 385.052 363.125 385.05 363.125 C 384.052 363.124 383.053 362.731 382.262 361.95 L 382.262 361.95 L 381.477 361.173 C 380.572 360.28 380.112 359.05 380.115 357.816 C 380.117 356.776 380.447 355.734 381.116 354.884 L 387.326 347.013 L 389.294 347.222 C 389.508 347.245 389.721 347.255 389.933 347.255 C 391.712 347.255 393.426 346.461 394.66 345.041 L 410.363 326.954 C 411.506 325.639 412.142 323.895 412.14 322.087 L 412.107 301.609 L 420.011 294.487 C 420.018 294.481 420.027 294.474 420.034 294.467 C 420.051 294.451 420.068 294.437 420.085 294.423 C 420.096 294.413 420.107 294.404 420.118 294.394 C 420.121 294.392 420.125 294.389 420.127 294.386 C 420.132 294.382 420.137 294.378 420.141 294.375 C 420.885 293.756 421.771 293.45 422.655 293.447 C 422.657 293.447 422.66 293.447 422.662 293.447 C 422.665 293.447 422.667 293.447 422.67 293.447 C 423.708 293.45 424.742 293.872 425.541 294.706 L 436.721 306.365 C 437.572 307.252 437.997 308.432 438 309.613 C 438.004 310.832 437.556 312.051 436.663 312.948 L 435.552 314.063 L 434.267 315.353 L 431.725 317.905 L 420.157 329.519 L 420.157 329.519 L 387.878 361.927 L 387.878 361.927 C 387.863 361.942 387.848 361.957 387.832 361.97 C 387.046 362.738 386.057 363.124 385.066 363.125 C 385.064 363.125 385.061 363.125 385.059 363.125 Z " fill="rgb(252,186,51)"/><path d=" M 429.506 308.737 C 429.506 304.437 426.3 300.951 422.344 300.951 C 418.388 300.951 415.182 304.437 415.182 308.737 C 415.182 313.04 418.388 316.526 422.344 316.526 C 426.3 316.526 429.506 313.04 429.506 308.737 Z " fill="rgb(55,61,62)"/><path d=" M 426.577 308.737 C 426.577 306.196 424.683 304.136 422.344 304.136 C 420.007 304.136 418.113 306.196 418.113 308.737 C 418.113 311.281 420.007 313.341 422.344 313.341 C 424.683 313.341 426.577 311.281 426.577 308.737 Z " fill="rgb(254,207,62)"/><path d=" M 377.473 348.531 L 397.849 372.318 C 398.387 372.948 399.126 373.334 399.915 373.396 L 406.647 373.948 C 407.089 373.983 407.472 374.29 407.637 374.735 C 407.856 375.329 407.63 376.006 407.115 376.311 L 397.981 381.711 C 397.519 381.988 397.002 382.128 396.477 382.128 L 387.225 382.128 C 381.932 382.128 376.941 379.451 373.717 374.884 L 373.706 374.866 C 369.143 368.396 369.009 359.446 373.374 352.818 L 376.136 348.623 C 376.455 348.142 377.101 348.097 377.473 348.531 Z " fill="rgb(55,61,62)"/><path d=" M 448.935 432.973 C 448.935 429.269 446.175 426.269 442.771 426.269 C 439.366 426.269 436.607 429.269 436.607 432.973 C 436.607 436.674 439.366 439.676 442.771 439.676 C 446.175 439.676 448.935 436.674 448.935 432.973 Z " fill="rgb(47,49,49)"/><path d=" M 522.789 432.973 C 522.789 429.269 520.03 426.269 516.624 426.269 C 513.221 426.269 510.461 429.269 510.461 432.973 C 510.461 436.674 513.221 439.676 516.624 439.676 C 520.03 439.676 522.789 436.674 522.789 432.973 Z " fill="rgb(47,49,49)"/><path d=" M 517.404 439.676 L 442.771 439.676 L 442.771 426.269 L 517.404 426.269 L 517.404 439.676 Z " fill="rgb(47,49,49)"/><path d=" M 517.901 433.825 L 442.043 433.825 C 441.118 433.825 440.368 434.642 440.368 435.647 C 440.368 436.653 441.118 437.468 442.043 437.468 L 517.901 437.468 C 518.826 437.468 519.575 436.653 519.575 435.647 C 519.575 434.642 518.826 433.825 517.901 433.825 Z " fill="rgb(254,207,62)"/><path d=" M 443.728 430.306 C 443.728 431.218 443.047 431.956 442.208 431.956 C 441.369 431.956 440.689 431.218 440.689 430.306 C 440.689 429.393 441.369 428.654 442.208 428.654 C 443.047 428.654 443.728 429.393 443.728 430.306 Z " fill="rgb(254,207,62)"/><path d=" M 448.448 430.306 C 448.448 431.218 447.767 431.956 446.928 431.956 C 446.089 431.956 445.41 431.218 445.41 430.306 C 445.41 429.393 446.089 428.654 446.928 428.654 C 447.767 428.654 448.448 429.393 448.448 430.306 Z " fill="rgb(254,207,62)"/><path d=" M 453.168 430.306 C 453.168 431.218 452.488 431.956 451.65 431.956 C 450.81 431.956 450.13 431.218 450.13 430.306 C 450.13 429.393 450.81 428.654 451.65 428.654 C 452.488 428.654 453.168 429.393 453.168 430.306 Z " fill="rgb(254,207,62)"/><path d=" M 457.888 430.306 C 457.888 431.218 457.207 431.956 456.369 431.956 C 455.532 431.956 454.85 431.218 454.85 430.306 C 454.85 429.393 455.532 428.654 456.369 428.654 C 457.207 428.654 457.888 429.393 457.888 430.306 Z " fill="rgb(254,207,62)"/><path d=" M 462.61 430.306 C 462.61 431.218 461.929 431.956 461.091 431.956 C 460.252 431.956 459.57 431.218 459.57 430.306 C 459.57 429.393 460.252 428.654 461.091 428.654 C 461.929 428.654 462.61 429.393 462.61 430.306 Z " fill="rgb(254,207,62)"/><path d=" M 467.33 430.306 C 467.33 431.218 466.65 431.956 465.811 431.956 C 464.97 431.956 464.292 431.218 464.292 430.306 C 464.292 429.393 464.97 428.654 465.811 428.654 C 466.65 428.654 467.33 429.393 467.33 430.306 Z " fill="rgb(254,207,62)"/><path d=" M 472.05 430.306 C 472.05 431.218 471.369 431.956 470.53 431.956 C 469.692 431.956 469.013 431.218 469.013 430.306 C 469.013 429.393 469.692 428.654 470.53 428.654 C 471.369 428.654 472.05 429.393 472.05 430.306 Z " fill="rgb(254,207,62)"/><path d=" M 476.772 430.306 C 476.772 431.218 476.091 431.956 475.251 431.956 C 474.413 431.956 473.731 431.218 473.731 430.306 C 473.731 429.393 474.413 428.654 475.251 428.654 C 476.091 428.654 476.772 429.393 476.772 430.306 Z " fill="rgb(254,207,62)"/><path d=" M 481.49 430.306 C 481.49 431.218 480.812 431.956 479.973 431.956 C 479.134 431.956 478.453 431.218 478.453 430.306 C 478.453 429.393 479.134 428.654 479.973 428.654 C 480.812 428.654 481.49 429.393 481.49 430.306 Z " fill="rgb(254,207,62)"/><path d=" M 486.212 430.306 C 486.212 431.218 485.531 431.956 484.693 431.956 C 483.854 431.956 483.173 431.218 483.173 430.306 C 483.173 429.393 483.854 428.654 484.693 428.654 C 485.531 428.654 486.212 429.393 486.212 430.306 Z " fill="rgb(254,207,62)"/><path d=" M 490.934 430.306 C 490.934 431.218 490.252 431.956 489.413 431.956 C 488.574 431.956 487.894 431.218 487.894 430.306 C 487.894 429.393 488.574 428.654 489.413 428.654 C 490.252 428.654 490.934 429.393 490.934 430.306 Z " fill="rgb(254,207,62)"/><path d=" M 495.653 430.306 C 495.653 431.218 494.972 431.956 494.135 431.956 C 493.294 431.956 492.616 431.218 492.616 430.306 C 492.616 429.393 493.294 428.654 494.135 428.654 C 494.972 428.654 495.653 429.393 495.653 430.306 Z " fill="rgb(254,207,62)"/><path d=" M 500.373 430.306 C 500.373 431.218 499.694 431.956 498.853 431.956 C 498.016 431.956 497.334 431.218 497.334 430.306 C 497.334 429.393 498.016 428.654 498.853 428.654 C 499.694 428.654 500.373 429.393 500.373 430.306 Z " fill="rgb(254,207,62)"/><path d=" M 505.094 430.306 C 505.094 431.218 504.415 431.956 503.575 431.956 C 502.737 431.956 502.054 431.218 502.054 430.306 C 502.054 429.393 502.737 428.654 503.575 428.654 C 504.415 428.654 505.094 429.393 505.094 430.306 Z " fill="rgb(254,207,62)"/><path d=" M 509.815 430.306 C 509.815 431.218 509.134 431.956 508.296 431.956 C 507.456 431.956 506.776 431.218 506.776 430.306 C 506.776 429.393 507.456 428.654 508.296 428.654 C 509.134 428.654 509.815 429.393 509.815 430.306 Z " fill="rgb(254,207,62)"/><path d=" M 514.536 430.306 C 514.536 431.218 513.855 431.956 513.015 431.956 C 512.177 431.956 511.498 431.218 511.498 430.306 C 511.498 429.393 512.177 428.654 513.015 428.654 C 513.855 428.654 514.536 429.393 514.536 430.306 Z " fill="rgb(254,207,62)"/><path d=" M 519.257 430.306 C 519.257 431.218 518.575 431.956 517.737 431.956 C 516.897 431.956 516.216 431.218 516.216 430.306 C 516.216 429.393 516.897 428.654 517.737 428.654 C 518.575 428.654 519.257 429.393 519.257 430.306 Z " fill="rgb(254,207,62)"/><path d=" M 493.532 387.547 L 454.683 387.547 L 454.683 385.324 L 493.532 385.324 L 493.532 387.547 Z " fill="rgb(249,167,51)"/><path d=" M 508.296 419.903 L 451.509 419.903 L 451.509 418.071 L 508.296 418.071 L 508.296 419.903 Z " fill="rgb(47,50,50)"/><path d=" M 478.391 382.828 L 468.277 382.828 L 489.191 357.47 L 489.191 369.733 L 478.391 382.828 Z " fill="rgb(99,204,245)"/><path d=" M 485.083 344.021 C 485.096 344.021 485.109 344.021 485.123 344.021 C 485.109 344.021 485.096 344.021 485.083 344.021 Z " fill="rgb(253,224,205)"/><path d=" M 463.349 382.828 L 459.024 382.828 L 459.024 372.402 C 459.024 371.597 459.074 370.805 459.135 370.017 L 480.133 344.556 C 481.736 344.217 483.388 344.024 485.083 344.021 C 485.096 344.021 485.109 344.021 485.123 344.021 L 485.123 344.021 L 489.191 344.021 L 489.191 351.495 L 463.349 382.828 Z " fill="rgb(99,204,245)"/><path d=" M 434.589 202.981 C 435.451 197.499 439.032 193.029 443.77 191.26 C 445.29 184.711 450.728 179.858 457.221 179.858 C 459.059 179.858 460.809 180.254 462.417 180.96 C 464.896 178.446 468.215 176.896 471.873 176.896 C 479.07 176.896 484.987 182.848 485.691 190.471 C 485.925 190.458 486.157 190.432 486.394 190.432 C 493.263 190.432 498.952 195.86 500.071 202.981 L 434.589 202.981 Z " fill="rgb(254,254,254)"/><path d=" M 424.045 273.602 C 423.445 269.781 420.951 266.668 417.649 265.435 C 416.59 260.871 412.799 257.488 408.275 257.488 C 406.994 257.488 405.773 257.764 404.653 258.257 C 402.927 256.505 400.613 255.424 398.066 255.424 C 393.051 255.424 388.927 259.572 388.437 264.885 C 388.272 264.875 388.111 264.858 387.946 264.858 C 383.16 264.858 379.196 268.638 378.417 273.602 L 424.045 273.602 Z " fill="rgb(254,254,254)"/><path d=" M 707.458 337.427 C 706.677 332.455 703.43 328.405 699.133 326.801 C 697.756 320.864 692.826 316.464 686.94 316.464 C 685.274 316.464 683.686 316.823 682.23 317.464 C 679.98 315.184 676.973 313.779 673.657 313.779 C 667.134 313.779 661.769 319.174 661.13 326.085 C 660.918 326.074 660.708 326.05 660.493 326.05 C 654.265 326.05 649.108 330.97 648.094 337.427 L 707.458 337.427 Z " fill="rgb(254,254,254)"/><path d=" M 521.555 249.405 L 521.946 252.079 C 521.946 252.079 524.505 252.504 526.369 251.169 L 526.032 248.517 L 521.555 249.405 Z " fill="rgb(249,190,166)"/><path d=" M 521.857 251.467 C 521.857 251.467 521.421 251.92 521.471 253.01 C 521.522 254.098 521.695 256.169 522.62 256.39 C 523.545 256.61 529.189 257.936 531.126 257.333 C 532.964 256.761 533.393 255.034 532.25 253.754 C 531.193 252.574 530.255 252.779 530.255 252.779 C 530.255 252.779 526.877 251.444 526.45 250.646 C 526.023 249.847 525.326 250.078 525.027 250.37 C 524.727 250.662 524.937 251.228 524 251.511 C 523.062 251.795 522.402 251.232 521.857 251.467 Z " fill="rgb(178,206,225)"/><path d=" M 510.707 252.31 L 510.366 254.994 C 510.366 254.994 512.699 256.209 514.84 255.521 L 515.226 252.878 L 510.707 252.31 Z " fill="rgb(249,190,166)"/><path d=" M 498.522 216.093 C 498.522 216.093 497.868 222.872 501.112 224.838 C 506.118 227.872 513.313 226.362 517.071 226.387 C 520.678 226.411 520.471 239.439 520.36 247.808 C 520.349 248.514 520.699 249.166 521.272 249.467 C 521.886 249.785 522.764 250.068 523.782 249.883 C 524.846 249.692 525.808 249.228 526.469 248.84 C 527.043 248.502 527.399 247.843 527.403 247.12 C 527.422 243.849 527.27 232.638 526.791 227.304 C 526.208 220.831 524.402 220.75 521.17 218.85 C 517.938 216.951 509.378 214.45 509.378 214.45 L 498.522 216.093 Z " fill="rgb(41,141,193)"/><path d=" M 492.872 215.956 C 492.872 215.956 491.251 222.532 494.17 225.053 C 498.672 228.941 505.992 228.74 509.697 229.437 C 513.254 230.105 511.174 242.928 509.855 251.168 C 509.747 251.863 509.995 252.57 510.518 252.968 C 511.076 253.393 511.902 253.83 512.937 253.83 C 514.013 253.83 515.029 253.544 515.739 253.28 C 516.354 253.049 516.799 252.462 516.908 251.749 C 517.399 248.523 518.863 237.433 519.157 232.081 C 519.515 225.588 517.747 225.185 514.83 222.731 C 511.916 220.278 503.824 216.279 503.824 216.279 L 492.872 215.956 Z " fill="rgb(87,177,227)"/><path d=" M 511.958 187.891 C 511.958 187.891 514.546 190.129 514.546 195.713 C 514.546 201.295 512.991 207.296 512.991 207.296 C 512.991 207.296 508.92 204.234 508.861 203.572 C 508.804 202.911 511.958 187.891 511.958 187.891 Z " fill="rgb(55,61,62)"/><path d=" M 498.389 183.995 C 498.389 183.995 493.135 186.547 490.451 188.978 C 490.18 189.227 490.037 189.599 490.069 189.982 L 492.33 216.322 C 492.33 216.322 495.023 217.787 501.662 217.787 C 508.302 217.787 510.61 215.066 510.61 215.066 L 511.958 187.891 C 511.958 187.891 510.321 185.573 504.356 184.519 C 498.389 183.466 498.389 183.995 498.389 183.995 Z " fill="rgb(55,61,62)"/><path d=" M 499.189 164.796 C 499.189 164.796 496.947 165.365 496.706 167.718 L 496.864 174.641 C 496.864 176.172 497.377 177.653 498.307 178.801 L 498.389 178.902 L 499.189 164.796 Z " fill="rgb(55,61,62)"/><path d=" M 501.373 187.763 L 501.373 187.763 C 499.725 187.763 498.389 186.31 498.389 184.519 L 498.389 176.834 L 504.356 176.834 L 504.356 184.519 C 504.356 186.31 503.021 187.763 501.373 187.763 Z " fill="rgb(239,159,126)"/><path d=" M 504.066 183.995 L 504.066 183.995 C 500.932 183.995 498.389 181.23 498.389 177.821 L 498.389 169.517 L 509.746 169.517 L 509.746 177.821 C 509.746 181.23 507.204 183.995 504.066 183.995 Z " fill="rgb(249,190,166)"/><path d=" M 500.32 173.695 C 500.32 175.176 499.328 176.377 498.102 176.377 C 496.877 176.377 495.884 175.176 495.884 173.695 C 495.884 172.214 496.877 171.015 498.102 171.015 C 499.328 171.015 500.32 172.214 500.32 173.695 Z " fill="rgb(249,190,166)"/><path d=" M 504.187 175.605 L 504.187 175.605 C 503.91 175.605 503.683 175.358 503.683 175.056 L 503.683 173.904 C 503.683 173.602 503.91 173.356 504.187 173.356 C 504.466 173.356 504.693 173.602 504.693 173.904 L 504.693 175.056 C 504.693 175.358 504.466 175.605 504.187 175.605 Z " fill="rgb(55,61,62)"/><path d=" M 507.652 175.605 L 507.652 175.605 C 507.373 175.605 507.147 175.358 507.147 175.056 L 507.147 173.904 C 507.147 173.602 507.373 173.356 507.652 173.356 C 507.93 173.356 508.157 173.602 508.157 173.904 L 508.157 175.056 C 508.157 175.358 507.93 175.605 507.652 175.605 Z " fill="rgb(55,61,62)"/><path d=" M 505.414 169.707 C 505.414 169.707 504.066 171.459 500.079 172.479 L 500.079 175.427 C 500.079 175.763 499.826 176.037 499.516 176.037 L 499.318 176.037 C 499.145 176.037 499 175.898 498.977 175.713 L 498.389 171.015 L 498.389 166.149 C 498.389 166.149 499.352 162.579 505.235 162.579 C 511.151 162.579 510.321 171.015 510.321 171.015 C 510.321 171.015 508.566 171.695 505.414 169.707 Z " fill="rgb(55,61,62)"/><path d=" M 505.094 172.506 L 503.282 172.506 C 503.114 172.506 502.978 172.359 502.978 172.177 C 502.978 171.997 503.114 171.849 503.282 171.849 L 505.094 171.849 C 505.259 171.849 505.397 171.997 505.397 172.177 C 505.397 172.359 505.259 172.506 505.094 172.506 Z " fill="rgb(55,61,62)"/><path d=" M 508.559 172.506 L 506.746 172.506 C 506.579 172.506 506.443 172.359 506.443 172.177 C 506.443 171.997 506.579 171.849 506.746 171.849 L 508.559 171.849 C 508.725 171.849 508.861 171.997 508.861 172.177 C 508.861 172.359 508.725 172.506 508.559 172.506 Z " fill="rgb(55,61,62)"/><path d=" M 490.325 189.21 C 490.121 189.33 489.961 189.518 489.867 189.746 C 489.38 190.926 487.854 194.943 487.477 200.022 C 487.027 206.094 489.819 209.395 492.882 208.479 C 495.945 207.564 495.225 204.136 494.142 202.47 C 493.061 200.806 497.444 194.243 495.884 190.717 C 494.397 187.354 492.399 187.999 490.325 189.21 Z " fill="rgb(55,61,62)"/><path d=" M 504.131 209.068 C 503.566 211.344 498.036 211.063 493.418 209.709 C 488.799 208.356 487.905 206.403 488.389 204.457 C 488.87 202.509 490.544 201.307 495.165 202.662 C 499.782 204.013 504.694 206.792 504.131 209.068 Z " fill="rgb(55,61,62)"/><path d=" M 517.401 211.771 L 497.904 211.771 C 496.988 211.771 496.247 210.963 496.247 209.968 L 496.247 196.305 C 496.247 195.308 496.988 194.503 497.904 194.503 L 517.401 194.503 C 518.316 194.503 519.057 195.308 519.057 196.305 L 519.057 209.968 C 519.057 210.963 518.316 211.771 517.401 211.771 Z " fill="rgb(228,244,248)"/><path d=" M 518.125 213.798 L 494.94 213.798 C 494.425 213.798 494.009 213.345 494.009 212.784 C 494.009 212.224 494.425 211.771 494.94 211.771 L 518.125 211.771 C 518.64 211.771 519.057 212.224 519.057 212.784 C 519.057 213.345 518.64 213.798 518.125 213.798 Z " fill="rgb(228,244,248)"/><path d=" M 510.443 254.378 C 510.443 254.378 509.903 254.674 509.66 255.732 C 509.417 256.791 509.027 258.827 509.853 259.329 C 510.681 259.831 515.725 262.887 517.739 262.925 C 519.652 262.96 520.526 261.444 519.775 259.856 C 519.078 258.392 518.126 258.293 518.126 258.293 C 518.126 258.293 515.251 255.945 515.058 255.047 C 514.863 254.147 514.135 254.147 513.769 254.333 C 513.404 254.518 513.453 255.125 512.48 255.099 C 511.508 255.072 511.027 254.325 510.443 254.378 Z " fill="rgb(178,206,225)"/><path d=" M 510.283 203.136 C 510.283 201.859 509.333 200.825 508.157 200.825 C 506.983 200.825 506.031 201.859 506.031 203.136 C 506.031 204.412 506.983 205.448 508.157 205.448 C 509.333 205.448 510.283 204.412 510.283 203.136 Z " fill="rgb(55,61,62)"/><path d=" M 691.196 439.08 C 690.564 438.981 690.028 439.625 689.781 438.619 C 689.997 437.533 688.364 423.589 688.22 422.561 C 688.161 422.143 687.246 419.496 687.076 403.955 C 687.06 402.455 688.753 401.297 689.98 401.279 C 691.203 401.259 692.753 402.223 692.769 403.723 C 692.853 411.561 692.263 420.618 692.595 421.659 C 693.785 425.387 692.225 435.156 692.502 436.719 C 692.179 437.651 692.439 439.157 691.196 439.08 Z " fill="rgb(247,166,140)"/><path d=" M 689.807 437.86 C 689.807 437.86 688.961 439.787 688.237 440.643 C 687.51 441.498 688.409 442.305 689.188 442.305 C 689.968 442.305 692.306 440.593 692.55 437.894 C 692.791 435.197 690.158 436.875 689.807 437.86 Z " fill="rgb(247,166,140)"/><path d=" M 686.688 443.918 C 686.688 443.918 688.114 444.576 690.007 443.918 C 691.049 443.293 691.607 442.603 692.093 441.514 L 692.334 443.028 C 692.334 443.028 692.763 443.194 692.872 442.832 C 692.98 442.469 693.006 440.625 693.006 440.625 C 693.006 440.625 693.866 437.105 692.495 436.678 C 692.387 437.599 692.28 438.223 691.608 439.31 C 689.997 442.239 688.765 441.219 688.196 440.495 C 687.435 441.744 685.634 442.239 686.664 443.884 L 686.688 443.918 Z " fill="rgb(238,75,85)"/><path d=" M 683.87 439.08 C 683.239 438.981 682.703 439.625 682.457 438.619 C 682.67 437.533 681.038 423.589 680.896 422.561 C 680.839 422.143 679.919 419.496 679.753 403.955 C 679.736 402.455 681.428 401.297 682.656 401.279 C 683.88 401.259 685.428 402.223 685.445 403.723 C 685.531 411.561 684.94 420.618 685.273 421.659 C 686.461 425.387 684.831 435.032 685.18 436.692 C 684.856 437.627 685.116 439.157 683.87 439.08 Z " fill="rgb(247,166,140)"/><path d=" M 682.484 437.86 C 682.484 437.86 681.637 439.787 680.91 440.643 C 680.186 441.498 681.085 442.305 681.866 442.305 C 682.646 442.305 684.984 440.593 685.226 437.894 C 685.828 435.171 682.832 436.875 682.484 437.86 Z " fill="rgb(247,166,140)"/><path d=" M 679.364 443.918 C 679.364 443.918 680.791 444.576 682.683 443.918 C 683.726 443.293 684.283 442.603 684.767 441.514 L 685.01 443.028 C 685.01 443.028 685.44 443.194 685.547 442.832 C 685.656 442.469 685.682 440.625 685.682 440.625 C 685.682 440.625 686.543 437.105 685.171 436.678 C 685.064 437.599 684.955 438.223 684.284 439.31 C 682.67 442.239 681.44 441.219 680.871 440.495 C 680.108 441.744 678.308 442.239 679.338 443.884 L 679.364 443.918 Z " fill="rgb(238,75,85)"/><path d=" M 677.582 387.836 C 677.582 387.836 674.399 391.916 675.983 401.405 C 675.983 401.405 678.54 413.655 678.208 415.042 C 678.208 415.042 686.667 418.769 694.675 413.58 C 694.675 413.58 694.417 402.888 694.855 399.999 C 695.292 397.113 696.3 388.749 691.199 384.726 C 686.097 380.704 677.394 386.766 677.582 387.836 Z " fill="rgb(238,75,85)"/><path d=" M 677.193 365.568 C 677.193 365.568 675.993 366.49 675.604 369.482 C 675.219 372.475 673.368 379.889 675.076 381.491 C 676.78 383.094 679.222 383.179 679.688 380.438 C 680.154 377.696 677.193 365.568 677.193 365.568 Z " fill="rgb(238,75,85)"/><path d=" M 678.989 354.688 C 678.989 354.688 678.875 350.448 679.01 347.179 L 681.665 347.179 L 680.251 356.2 L 678.989 354.688 Z " fill="rgb(55,61,62)"/><path d=" M 691.088 354.539 C 691.088 354.539 691.563 357.774 692.132 359.474 C 692.538 360.692 691.425 360.994 689.059 361.217 C 686.694 361.436 687.365 356.623 687.365 356.623 L 691.088 354.539 Z " fill="rgb(55,61,62)"/><path d=" M 679.012 354.539 C 679.012 354.539 678.537 357.774 677.97 359.474 C 677.563 360.691 678.677 360.994 681.041 361.217 C 683.406 361.436 682.734 356.623 682.734 356.623 L 679.012 354.539 Z " fill="rgb(55,61,62)"/><path d=" M 689.8 361.945 C 689.8 361.945 694.683 364.317 697.178 366.579 C 697.43 366.809 697.564 367.154 697.533 367.51 C 696.001 375.201 693.3 378.799 693.581 384.738 C 693.676 386.731 692.278 388.429 690.448 388.575 C 689.484 388.656 688.27 388.707 686.761 388.707 C 684.346 388.707 681.297 389.216 680.047 389.079 C 678.669 388.928 677.668 387.567 677.864 386.078 C 678.767 379.213 678.608 373.747 677.193 365.568 C 677.193 365.568 678.714 363.412 684.258 362.434 C 689.8 361.454 689.8 361.945 689.8 361.945 Z " fill="rgb(238,75,85)"/><path d=" M 689.059 344.105 C 689.059 344.105 691.143 344.632 691.366 346.82 L 691.22 353.253 C 691.22 354.678 690.742 356.052 689.877 357.119 L 689.8 357.212 L 689.059 344.105 Z " fill="rgb(55,61,62)"/><path d=" M 687.029 365.448 L 687.029 365.448 C 688.559 365.448 689.8 364.098 689.8 362.434 L 689.8 355.294 L 684.258 355.294 L 684.258 362.434 C 684.258 364.098 685.498 365.448 687.029 365.448 Z " fill="rgb(239,159,126)"/><path d=" M 684.525 361.945 C 687.439 361.945 689.801 359.377 689.801 356.207 L 689.801 348.492 L 679.251 348.492 L 679.251 356.207 C 679.251 359.377 681.613 361.945 684.525 361.945 Z " fill="rgb(249,190,166)"/><path d=" M 688.008 352.375 C 688.008 353.751 688.93 354.865 690.07 354.865 C 691.208 354.865 692.132 353.751 692.132 352.375 C 692.132 351 691.208 349.884 690.07 349.884 C 688.93 349.884 688.008 351 688.008 352.375 Z " fill="rgb(249,190,166)"/><path d=" M 684.416 354.149 L 684.416 354.149 C 684.674 354.149 684.883 353.92 684.883 353.639 L 684.883 352.57 C 684.883 352.288 684.674 352.058 684.416 352.058 C 684.156 352.058 683.946 352.288 683.946 352.57 L 683.946 353.639 C 683.946 353.92 684.156 354.149 684.416 354.149 Z " fill="rgb(55,61,62)"/><path d=" M 681.195 354.149 L 681.195 354.149 C 681.454 354.149 681.665 353.92 681.665 353.639 L 681.665 352.57 C 681.665 352.288 681.454 352.058 681.195 352.058 C 680.937 352.058 680.726 352.288 680.726 352.57 L 680.726 353.639 C 680.726 353.92 680.937 354.149 681.195 354.149 Z " fill="rgb(55,61,62)"/><path d=" M 683.275 348.668 C 683.275 348.668 684.526 350.297 688.235 351.245 L 688.235 353.983 C 688.235 354.296 688.466 354.551 688.754 354.551 L 688.939 354.551 C 689.099 354.551 689.234 354.42 689.255 354.25 L 689.8 349.884 L 689.8 345.36 C 689.8 345.36 688.908 342.044 683.442 342.044 C 677.942 342.044 678.714 349.884 678.714 349.884 C 678.714 349.884 680.345 350.515 683.275 348.668 Z " fill="rgb(55,61,62)"/><path d=" M 683.571 351.268 L 685.257 351.268 C 685.41 351.268 685.537 351.133 685.537 350.963 C 685.537 350.796 685.41 350.657 685.257 350.657 L 683.571 350.657 C 683.418 350.657 683.289 350.796 683.289 350.963 C 683.289 351.133 683.418 351.268 683.571 351.268 Z " fill="rgb(55,61,62)"/><path d=" M 680.352 351.268 L 682.038 351.268 C 682.192 351.268 682.317 351.133 682.317 350.963 C 682.317 350.796 682.192 350.657 682.038 350.657 L 680.352 350.657 C 680.199 350.657 680.072 350.796 680.072 350.963 C 680.072 351.133 680.199 351.268 680.352 351.268 Z " fill="rgb(55,61,62)"/><path d=" M 697.295 366.792 C 697.485 366.903 697.635 367.078 697.722 367.291 C 698.177 368.388 699.593 372.12 699.943 376.839 C 700.361 382.484 697.766 385.55 694.92 384.699 C 692.073 383.846 692.744 380.663 693.749 379.115 C 694.754 377.568 690.68 371.47 692.132 368.191 C 693.513 365.069 695.369 365.665 697.295 366.792 Z " fill="rgb(238,75,85)"/><path d=" M 679.443 359.753 C 679.443 359.753 679.344 358.143 680.109 357.726 C 680.876 357.309 681.729 357.304 682.498 357.235 C 682.498 357.235 683.174 357.606 682.577 358.04 C 681.981 358.473 681.55 358.271 680.897 358.632 C 680.243 358.995 680.497 359.792 680.497 359.792 L 679.443 359.753 Z " fill="rgb(249,190,166)"/><path d=" M 680.404 359.79 L 679.443 359.753 C 679.443 359.753 679.437 359.669 679.438 359.539 L 679.439 359.539 C 679.438 359.671 679.443 359.753 679.443 359.753 L 680.404 359.79 L 680.404 359.79 Z " fill="rgb(55,54,51)"/><path d=" M 680.449 359.437 C 680.449 359.179 680.53 358.836 680.897 358.632 C 681.55 358.271 681.981 358.473 682.577 358.04 C 682.747 357.916 682.814 357.799 682.823 357.692 C 682.814 357.799 682.749 357.916 682.577 358.04 C 681.981 358.473 681.55 358.271 680.897 358.632 C 680.53 358.836 680.449 359.179 680.449 359.437 Z " fill="rgb(245,145,112)"/><path d=" M 680.497 359.792 L 680.404 359.79 L 679.443 359.753 C 679.443 359.753 679.438 359.671 679.439 359.539 L 680.445 359.576 C 680.445 359.576 680.19 358.779 680.844 358.416 C 681.497 358.052 681.929 358.259 682.524 357.823 C 682.689 357.706 682.755 357.588 682.767 357.484 C 682.804 357.545 682.828 357.617 682.823 357.692 C 682.814 357.799 682.747 357.916 682.577 358.04 C 681.981 358.473 681.55 358.271 680.897 358.632 C 680.53 358.836 680.449 359.179 680.449 359.437 C 680.448 359.64 680.497 359.792 680.497 359.792 Z " fill="rgb(245,145,112)"/><path d=" M 683.289 360.839 C 683.289 360.839 681.973 358.295 680.015 359.187 C 678.06 360.078 678.678 364.927 678.678 364.927 C 678.678 364.927 677.404 369.51 676.51 372.935 C 675.613 376.361 674.226 379.406 676.51 380.412 C 678.293 381.196 680.238 380.281 680.422 375.392 C 680.604 370.503 681.195 365.568 681.195 365.568 C 681.195 365.568 682.876 364.308 682.575 361.945 C 682.575 361.945 682.553 363.114 683.289 363.114 C 684.029 363.114 683.289 360.839 683.289 360.839 Z " fill="rgb(249,190,166)"/><path d=" M 677.782 378.493 C 677.782 378.493 676.232 376.108 677.811 374.567 C 679.391 373.026 683.154 375.708 683.154 375.708 C 683.154 375.708 687.506 376.421 690.739 377.008 C 693.97 377.593 697.094 377.537 696.951 380.21 C 696.841 382.296 695.247 383.817 691.105 381.904 C 686.962 379.991 682.61 378.458 682.61 378.458 C 682.61 378.458 680.844 379.573 679.008 378.265 C 679.008 378.265 679.99 378.74 679.674 379.467 C 679.358 380.194 677.782 378.493 677.782 378.493 Z " fill="rgb(249,190,166)"/><path d=" M 699.067 334.388 L 699.066 334.388 C 699.59 333.963 700.035 333.408 700.345 332.722 C 701.346 330.513 700.515 327.725 698.514 326.575 C 696.432 325.376 693.848 326.243 692.75 328.51 C 692.443 329.144 692.29 329.818 692.266 330.487 L 692.264 330.487 L 692.266 330.491 C 692.253 330.849 692.252 334.023 691.607 335.803 C 691.523 336.031 691.619 336.289 691.817 336.403 L 693.325 337.266 L 694.833 338.13 C 695.031 338.243 695.278 338.185 695.406 337.983 C 696.392 336.398 698.799 334.601 699.062 334.391 L 699.067 334.388 Z " fill="rgb(254,207,62)"/><path d=" M 694.89 338.72 L 691.338 336.684 C 691.117 336.557 690.842 336.649 690.726 336.889 C 690.61 337.127 690.695 337.427 690.915 337.552 L 694.468 339.59 C 694.69 339.717 694.964 339.624 695.08 339.385 C 695.195 339.145 695.111 338.846 694.89 338.72 Z " fill="rgb(55,61,62)"/><path d=" M 693.696 339.652 L 691.304 338.283 C 691.086 338.157 690.811 338.251 690.694 338.49 C 690.579 338.727 690.664 339.027 690.885 339.155 L 693.273 340.521 C 693.493 340.649 693.769 340.556 693.883 340.316 C 693.999 340.077 693.914 339.779 693.696 339.652 Z " fill="rgb(55,61,62)"/><path d=" M 692.514 340.555 L 691.288 339.852 C 691.069 339.728 690.792 339.82 690.678 340.06 C 690.561 340.296 690.646 340.596 690.866 340.725 L 692.092 341.425 C 692.311 341.55 692.587 341.46 692.703 341.218 C 692.819 340.98 692.734 340.68 692.514 340.555 Z " fill="rgb(55,61,62)"/><path d=" M 694.36 328.607 C 694.36 329.858 695.292 330.869 696.439 330.869 C 697.589 330.869 698.519 329.858 698.519 328.607 C 698.519 327.36 697.589 326.348 696.439 326.348 C 695.292 326.348 694.36 327.36 694.36 328.607 Z " fill="rgb(254,226,132)"/><path d=" M 695.297 327.656 C 695.297 328.182 695.69 328.607 696.171 328.607 C 696.657 328.607 697.047 328.182 697.047 327.656 C 697.047 327.132 696.657 326.705 696.171 326.705 C 695.69 326.705 695.297 327.132 695.297 327.656 Z " fill="rgb(254,254,254)"/><path d=" M -38.588 0.782 C -45.442 0.782 -51 6.819 -51 14.268 L -51 487.729 C -51 495.179 -45.442 501.218 -38.588 501.218 L 218.169 501.218 C 139.333 492.667 146 314.667 284.354 251.66 C 387.834 203.911 383.412 182.126 411.791 92.24 C 430.527 32.9 463 2.333 515.058 0.782 L -38.588 0.782 Z " fill="rgb(254,254,254)"/></g></svg>