<?xml version="1.0" encoding="UTF-8" standalone="no"?><!-- Generator: Gravit.io --><svg xmlns="http://www.w3.org/2000/svg" xmlns:xlink="http://www.w3.org/1999/xlink" style="isolation:isolate" viewBox="0 0 417 500" width="417pt" height="500pt"><defs><clipPath id="_clipPath_BIclIGj89r1chemh10pt0cskgfQ4V6E3"><rect width="417" height="500"/></clipPath></defs><g clip-path="url(#_clipPath_BIclIGj89r1chemh10pt0cskgfQ4V6E3)"><path d=" M 0 0 L 0 500 L 500 500 L 500 0 L 0 0 Z " fill="none"/><path d=" M 86.162 500 L 10.769 500 L 29.427 453.103 C 36.575 435.14 56.945 426.363 74.921 433.507 C 92.897 440.654 101.672 461.01 94.524 478.977 L 86.162 500 Z " fill="rgb(247,169,155)"/><path d=" M 330.498 500 L 322.134 478.977 C 314.985 461.01 323.762 440.654 341.739 433.507 C 359.716 426.363 380.083 435.14 387.232 453.103 L 405.891 500 L 330.498 500 Z " fill="rgb(247,169,155)"/><path d=" M 72.493 500 L 74.239 462.779 C 75.788 429.769 98.344 401.475 130.189 392.59 L 208.329 370.797 L 286.471 392.59 C 318.316 401.475 340.871 429.769 342.419 462.779 L 344.166 500 L 72.493 500 Z " fill="rgb(247,169,155)"/><path d=" M 208.329 363.359 C 208.329 363.359 327.01 361.754 374.867 420.323 C 414.487 468.811 416.607 500 416.607 500 L 0 500 C 0 500 26.086 403.073 97.015 381.012 C 155.303 362.877 208.329 363.359 208.329 363.359 Z " fill="rgb(89,194,183)"/><path d=" M 180.224 430.842 C 157.427 422.408 140.255 400.437 137.586 376.291 C 137.393 374.535 137.302 372.741 137.295 370.947 C 177.628 363.107 208.329 363.359 208.329 363.359 C 208.329 363.359 236.126 363.006 270.221 369.248 C 270.296 386.211 256.595 409.266 248.122 417.183 C 230.365 433.772 203.02 439.277 180.224 430.842 Z " fill="rgb(254,254,254)"/><path d=" M 214.527 493.975 C 231.137 493.975 247.36 491.436 262.525 486.299 C 303.795 472.315 335.599 440.385 361.619 407.039 C 358.361 404.294 354.936 401.724 351.367 399.318 C 326.596 431.027 296.574 461.209 258.404 474.137 C 244.557 478.833 229.718 481.152 214.502 481.148 C 190.154 481.148 164.847 475.211 141.14 463.573 C 112.654 449.589 86.519 427.88 63.179 399.073 C 59.789 401.72 56.556 404.532 53.47 407.472 C 77.923 437.574 105.412 460.335 135.476 475.095 C 160.95 487.6 188.217 493.975 214.527 493.975 Z " fill="rgb(60,177,163)"/><path d=" M 97.015 381.012 C 97.067 380.994 97.12 380.977 97.172 380.959 C 97.12 380.977 97.067 380.994 97.015 381.012 Z " fill="rgb(192,208,189)"/><path d=" M 199.624 462.569 C 221.921 462.569 245.006 455.646 265.029 442.459 C 286.348 428.422 304.253 407.7 317.492 382.11 C 313.426 380.56 309.327 379.137 305.21 377.836 C 293.075 400.713 276.982 419.215 257.962 431.741 C 240.044 443.543 219.472 449.746 199.685 449.746 C 191.168 449.746 182.792 448.596 174.843 446.249 C 156.003 440.686 137.939 428.143 122.618 409.969 C 114.568 400.43 107.784 389.998 101.878 379.581 C 100.307 380.043 98.75 380.473 97.172 380.959 C 97.12 380.977 97.067 380.994 97.015 381.012 L 97.015 381.012 C 94.44 381.812 91.938 382.735 89.482 383.725 C 95.993 395.45 103.585 407.326 112.794 418.246 C 129.749 438.339 149.943 452.282 171.205 458.558 C 180.315 461.251 189.895 462.569 199.624 462.569 Z " fill="rgb(60,177,163)"/><path d=" M 104.943 500 L 146.021 500 C 102.637 489.352 61.815 467.28 29.28 436.797 C 26.817 440.532 24.515 444.267 22.392 447.963 C 46.407 470.004 74.616 487.656 104.943 500 Z " fill="rgb(60,177,163)"/><path d=" M 263.391 500 L 304.841 500 C 337.157 486.859 367.025 467.64 391.998 443.553 C 389.747 440.14 387.263 436.591 384.579 432.93 C 351.367 465.521 308.742 488.932 263.391 500 Z " fill="rgb(60,177,163)"/><path d=" M 92.204 85.049 C 100.251 66.746 118.049 52.703 137.068 50.416 C 130.837 48.828 124.119 49.105 118.189 51.612 C 120.617 43.209 129.43 37.144 138.149 37.872 C 140.521 38.07 142.799 38.799 144.905 39.883 C 142.061 27.383 136.05 15.589 127.377 6.135 C 137.621 7.376 146.339 14.94 151.045 24.118 C 152.522 27.004 153.554 30.058 154.4 33.169 C 154.897 29.582 155.863 26.145 156.853 23.602 C 160.439 14.44 167.835 6.837 176.897 3 C 170.659 11.09 167.779 21.637 168.853 31.781 C 201.827 5.868 256.125 4.673 292.615 20.005 C 347.118 42.905 374.558 108.083 341.903 159.98 C 308.806 212.577 241.157 229.037 208.804 281.85 C 201.747 293.373 192.877 306.332 177.663 306.045 C 163.658 305.78 154.743 293.25 147.553 282.892 C 127.167 253.522 111.188 221.144 99.688 187.319 C 88.744 155.127 77.73 117.958 92.204 85.049 Z " fill="rgb(154,96,97)"/><path d=" M 154.204 95.816 C 191.763 26.992 323.904 50.482 334.174 105.198 C 355.301 217.756 339.262 263.96 307.961 290.551 C 271.741 321.323 248.101 317.403 248.101 382.054 C 234.409 416.463 181.855 421.156 164.9 382.054 C 165.943 296.418 136.54 231.513 136.54 231.513 C 136.54 231.513 138.719 124.193 154.204 95.816 Z " fill="rgb(247,169,155)"/><path d=" M 234.92 201.919 C 234.92 206.594 238.712 210.388 243.391 210.388 C 248.071 210.388 251.863 206.594 251.863 201.919 C 251.863 197.243 248.071 193.449 243.391 193.449 C 238.712 193.449 234.92 197.243 234.92 201.919 Z " fill="rgb(34,34,36)"/><path d=" M 243.391 199.604 C 243.391 201.314 244.78 202.702 246.494 202.702 C 248.207 202.702 249.596 201.314 249.596 199.604 C 249.596 197.89 248.207 196.502 246.494 196.502 C 244.78 196.502 243.391 197.89 243.391 199.604 Z " fill="rgb(254,254,254)"/><path d=" M 300.448 201.919 C 300.448 206.594 304.241 210.388 308.92 210.388 C 313.597 210.388 317.392 206.594 317.392 201.919 C 317.392 197.243 313.597 193.449 308.92 193.449 C 304.241 193.449 300.448 197.243 300.448 201.919 Z " fill="rgb(34,34,36)"/><path d=" M 308.92 199.604 C 308.92 201.314 310.309 202.702 312.022 202.702 C 313.734 202.702 315.125 201.314 315.125 199.604 C 315.125 197.89 313.734 196.502 312.022 196.502 C 310.309 196.502 308.92 197.89 308.92 199.604 Z " fill="rgb(254,254,254)"/><path d=" M 294.777 168.765 C 305.418 161.362 319.244 161.788 329.273 170.457 C 331.152 172.08 331.478 175.346 330.052 177.458 C 328.593 179.615 325.827 179.976 323.943 178.35 C 319.826 174.79 314.583 173.185 309.463 173.562 C 306.875 173.755 304.316 174.447 301.936 175.629 C 299.83 176.678 297.782 178.5 295.414 177.14 C 294.85 176.818 294.365 176.335 293.981 175.765 C 292.669 173.811 292.757 170.17 294.777 168.765 Z " fill="rgb(154,96,97)"/><path d=" M 261.753 168.765 C 249.552 161.362 233.7 161.788 222.201 170.457 C 220.049 172.08 219.673 175.346 221.31 177.458 C 222.98 179.615 226.152 179.976 228.312 178.35 C 233.03 174.793 239.044 173.255 244.903 173.646 C 247.867 173.842 250.801 174.524 253.539 175.674 C 255.958 176.692 258.331 178.489 261.023 177.14 C 261.671 176.814 262.226 176.335 262.665 175.765 C 264.17 173.811 264.069 170.17 261.753 168.765 Z " fill="rgb(154,96,97)"/><path d=" M 279.465 250.06 C 284.086 250.06 288.896 249.05 293.535 246.609 C 295.701 245.472 296.534 242.797 295.393 240.64 C 294.257 238.478 291.585 237.643 289.419 238.779 C 278.211 244.657 265.713 238.615 262.142 233.723 C 260.704 231.757 257.933 231.313 255.956 232.758 C 253.981 234.202 253.553 236.964 254.993 238.94 C 259.195 244.685 268.822 250.06 279.465 250.06 Z " fill="rgb(215,117,102)"/><path d=" M 289.921 224.883 C 290.402 224.883 290.841 224.564 290.984 224.082 C 293.08 216.864 290.625 214.409 288.196 213.623 C 285.733 212.836 282.781 213.469 279.42 215.539 C 278.903 215.861 278.742 216.543 279.062 217.064 C 279.391 217.578 280.078 217.735 280.587 217.424 C 283.358 215.714 285.693 215.14 287.513 215.728 C 289.691 216.431 290.145 219.036 288.857 223.466 C 288.688 224.05 289.026 224.666 289.614 224.837 L 289.921 224.883 Z " fill="rgb(215,117,102)"/><path d=" M 107.557 233.985 C 118.885 247.486 136.76 251.144 147.48 242.161 C 158.2 233.174 157.71 214.944 146.385 201.446 C 135.056 187.945 117.181 184.287 106.461 193.271 C 95.741 202.258 96.231 220.487 107.557 233.985 Z " fill="rgb(247,169,155)"/><path d=" M 113.854 199.88 C 118.672 197.334 125.095 197.45 131.026 200.212 C 133.982 201.583 136.123 203.254 137.589 205.314 C 139.527 208.045 140.063 211.476 138.992 214.263 C 138.037 216.763 136.039 218.389 134.276 219.823 C 132.999 220.858 131.795 221.84 131.11 223.012 C 130.064 224.809 130.329 227.327 131.732 228.869 C 133.125 230.408 135.605 230.904 137.502 230.03 C 138.614 229.516 139.926 230.006 140.441 231.111 C 140.951 232.216 140.472 233.534 139.36 234.048 C 138.145 234.611 136.826 234.88 135.504 234.88 C 132.876 234.88 130.242 233.81 128.454 231.841 C 125.764 228.883 125.277 224.232 127.289 220.781 C 128.377 218.92 130.029 217.574 131.484 216.389 C 132.943 215.203 134.321 214.081 134.86 212.675 C 135.399 211.273 135.053 209.388 133.979 207.87 C 133.545 207.262 132.953 206.709 132.299 206.178 C 130.102 206.157 127.349 206.835 125.96 208.353 C 124.392 210.066 123.654 212.546 124.032 214.833 C 124.228 216.035 123.413 217.172 122.205 217.371 L 121.842 217.403 C 120.782 217.403 119.844 216.633 119.665 215.549 C 119.06 211.906 120.194 208.101 122.692 205.366 C 123.622 204.352 124.784 203.663 126.005 203.104 C 122.342 202.118 118.728 202.314 115.925 203.793 C 112.465 205.618 109.848 210.343 111.629 214.189 C 112.14 215.298 111.653 216.612 110.548 217.126 C 109.435 217.634 108.127 217.158 107.609 216.046 C 105.02 210.44 107.882 203.041 113.854 199.88 Z " fill="rgb(215,117,102)"/><path d=" M 155.16 189.015 C 182.071 172.052 203.476 146.503 215.457 117.046 C 222.03 129.166 234.204 138.097 247.742 140.737 C 250.884 141.349 254.207 141.629 257.232 140.587 C 260.26 139.545 262.914 136.911 263.153 133.722 C 263.391 130.53 260.495 127.229 257.335 127.732 C 277.316 142.132 302.242 149.535 326.849 148.381 C 334.593 148.018 342.945 146.507 348.195 140.807 C 354.997 133.418 354.113 121.864 351.447 112.185 C 342.381 79.272 316.814 51.35 284.813 39.418 C 252.813 27.487 215.195 31.848 186.777 50.787 C 176.012 57.959 166.597 67.023 158.291 76.933 C 143.582 94.484 132.331 114.881 125.109 136.597 C 121.404 147.745 118.759 159.243 117.244 170.887 C 116.282 178.29 114.809 187.599 121.684 192.687 C 132.065 200.362 145.577 195.058 155.16 189.015 Z " fill="rgb(154,96,97)"/><path d=" M 313.563 225.673 C 323.829 239.031 329.169 257.355 326.19 274.374 C 324.502 284.018 318.683 292.582 311.385 299.107 C 299.449 309.787 283.021 315.56 267.101 313.784 C 251.18 312.007 236.127 302.423 228.555 288.313 C 218.099 268.835 223.25 243.353 237.684 226.603 C 246.67 216.175 259.51 206.66 273.699 204.866 C 289.103 202.912 302.611 211.976 311.893 223.547 C 312.45 224.239 313.006 224.949 313.563 225.673 Z " fill="rgb(254,254,254)"/><path d=" M 235.999 248.815 C 237.294 248.815 238.364 247.791 238.408 246.486 C 238.453 245.158 237.409 244.046 236.078 244 C 216.716 243.36 197.789 237.615 181.347 227.383 C 164.903 217.151 151.388 202.712 142.267 185.627 C 141.637 184.455 140.185 184.014 139.006 184.637 C 137.834 185.263 137.393 186.721 138.016 187.896 C 147.539 205.723 161.643 220.791 178.8 231.467 C 195.961 242.147 215.713 248.144 235.922 248.815 L 235.999 248.815 Z " fill="rgb(254,254,254)"/><path d=" M 225.464 263.422 C 226.786 263.299 227.96 264.275 228.079 265.597 C 228.203 266.922 227.224 268.094 225.902 268.212 C 213.784 269.311 201.557 269.342 189.408 268.328 C 174.511 267.09 161.251 264.747 146.955 260.425 C 146.434 258.624 145.724 256.582 145.23 254.847 C 171.358 263.132 198.182 265.891 225.464 263.422 Z " fill="rgb(254,254,254)"/><path d=" M 311.826 235.772 C 324.186 235.034 335.785 228.075 342.494 217.742 C 342.149 220.924 341.729 223.98 341.249 226.939 C 333.614 234.814 323.145 239.919 312.113 240.577 L 311.966 240.58 C 310.703 240.58 309.643 239.597 309.564 238.318 C 309.485 236.992 310.498 235.852 311.826 235.772 Z " fill="rgb(254,254,254)"/><path d=" M 302.867 229.53 C 303.44 229.53 304.015 229.327 304.471 228.914 C 305.462 228.03 305.548 226.509 304.661 225.519 C 302.032 222.582 299.311 219.55 296.123 216.969 C 292.393 213.962 288.553 212.053 284.706 211.29 C 277.738 209.905 271.263 212.304 267.062 214.56 C 261.906 217.326 257.549 221.158 253.338 224.858 C 252.336 225.736 252.239 227.257 253.117 228.257 C 253.998 229.257 255.519 229.352 256.516 228.477 C 260.526 224.949 264.672 221.305 269.338 218.802 C 274.295 216.147 279.418 215.161 283.772 216.011 C 286.843 216.623 289.983 218.204 293.095 220.714 C 295.984 223.05 298.571 225.935 301.074 228.729 C 301.55 229.261 302.204 229.53 302.867 229.53 Z " fill="rgb(206,207,206)"/><path d=" M 235.998 269.062 L 223.554 272.884 C 223.021 269.146 222.934 265.342 223.209 261.544 L 234.92 260.666 L 235.998 269.062 Z " fill="rgb(206,207,206)"/><path d=" M 321.845 240.133 L 316.77 242.01 L 313.459 234.877 L 318.198 232.754 C 319.563 235.121 320.776 237.587 321.845 240.133 Z " fill="rgb(206,207,206)"/><path d=" M 228.635 240.72 L 240.149 243.615 L 238.41 253.043 L 225.151 250.347 C 226.05 247.056 227.2 243.825 228.635 240.72 Z " fill="rgb(206,207,206)"/><path d=" M 280.011 284.41 C 291.901 284.41 303.788 282.396 315.084 278.364 C 315.917 278.067 316.353 277.147 316.056 276.315 C 315.757 275.479 314.832 275.035 314.004 275.343 C 292.509 283.011 268.796 283.158 247.21 275.759 C 246.372 275.465 245.464 275.913 245.172 276.755 C 244.883 277.591 245.329 278.504 246.169 278.791 C 257.094 282.539 268.554 284.41 280.011 284.41 Z " fill="rgb(206,207,206)"/><path d=" M 278.78 300.629 C 288.478 300.629 298.173 298.363 306.67 293.817 C 307.451 293.397 307.746 292.428 307.326 291.642 C 306.909 290.858 305.93 290.561 305.153 290.988 C 288.813 299.73 267.792 299.566 251.6 290.572 C 250.824 290.155 249.851 290.418 249.413 291.198 C 248.984 291.974 249.263 292.949 250.039 293.38 C 258.743 298.209 268.764 300.629 278.78 300.629 Z " fill="rgb(206,207,206)"/><path d=" M 281.802 272.22 C 290.043 272.22 298.279 270.548 305.799 267.205 C 306.61 266.845 306.974 265.894 306.614 265.086 C 306.253 264.275 305.29 263.915 304.494 264.271 C 290.171 270.639 273.094 270.594 258.811 264.139 C 258 263.785 257.056 264.135 256.686 264.943 C 256.322 265.751 256.679 266.702 257.489 267.069 C 265.092 270.503 273.448 272.22 281.802 272.22 Z " fill="rgb(206,207,206)"/></g></svg>