<?xml version="1.0" encoding="UTF-8" standalone="no"?><!-- Generator: Gravit.io --><svg xmlns="http://www.w3.org/2000/svg" xmlns:xlink="http://www.w3.org/1999/xlink" style="isolation:isolate" viewBox="0 0 800 2100" width="800pt" height="2100pt"><defs><clipPath id="_clipPath_SkeOUQZgsdJ592DyKNfGbSLgSpOCi7CC"><rect width="800" height="2100"/></clipPath></defs><g clip-path="url(#_clipPath_SkeOUQZgsdJ592DyKNfGbSLgSpOCi7CC)"><g><path d=" M 647.849 1163.073 L 132.21 1163.073 C 99.753 1163.073 73.442 1189.385 73.442 1221.841 L 73.442 1551.699 C 73.442 1562.583 76.412 1572.769 81.569 1581.51 C 72.608 1594.209 59.429 1603.719 44.058 1607.978 C 49.868 1609.588 55.982 1610.467 62.304 1610.467 C 75.683 1610.467 88.158 1606.612 98.685 1599.956 C 108.195 1606.575 119.745 1610.467 132.21 1610.467 L 647.849 1610.467 C 680.306 1610.467 706.617 1584.155 706.617 1551.699 L 706.617 1221.841 C 706.617 1189.385 680.306 1163.073 647.849 1163.073 Z " fill="rgb(51,177,255)"/><path d=" M 680.247 868.745 C 685.407 860.004 688.377 849.818 688.377 838.934 L 688.377 823.768 C 688.377 791.312 662.067 765 629.607 765 L 113.968 765 C 81.511 765 55.2 791.312 55.2 823.768 L 55.2 838.934 C 55.2 871.39 81.511 897.702 113.968 897.702 L 629.607 897.702 C 642.077 897.702 653.627 893.81 663.127 887.191 C 673.657 893.847 686.137 897.702 699.517 897.702 C 705.837 897.702 711.947 896.823 717.757 895.213 C 702.387 890.954 689.207 881.444 680.247 868.745 Z " fill="rgb(51,100,255)"/><path d=" M 698.49 1803.313 C 703.65 1794.572 706.62 1784.386 706.62 1773.502 L 706.62 1739.379 C 706.62 1706.922 680.31 1680.611 647.85 1680.611 L 133.158 1680.611 C 100.702 1680.611 74.39 1706.922 74.39 1739.379 L 74.39 1773.502 C 74.39 1805.958 100.702 1832.27 133.158 1832.27 L 647.85 1832.27 C 660.32 1832.27 671.87 1828.378 681.37 1821.759 C 691.9 1828.415 704.38 1832.27 717.76 1832.27 C 724.08 1832.27 730.19 1831.392 736 1829.782 C 720.63 1825.522 707.45 1816.013 698.49 1803.313 Z " fill="rgb(51,100,255)"/><path d=" M 705.487 993.488 C 705.487 961.032 679.177 934.721 646.717 934.721 L 538.845 934.721 C 506.389 934.721 480.078 961.032 480.078 993.488 L 480.078 1080.692 C 480.078 1113.15 506.389 1139.46 538.845 1139.46 L 646.717 1139.46 C 658.997 1139.46 670.387 1135.69 679.807 1129.26 C 690.627 1135.72 703.387 1139.46 717.057 1139.46 C 723.617 1139.46 729.967 1138.58 735.997 1136.97 C 720.137 1132.74 706.517 1123.33 697.217 1110.75 C 702.467 1101.96 705.487 1091.68 705.487 1080.692 L 705.487 993.488 Z " fill="rgb(51,100,255)"/><path d=" M 658.997 491.119 L 143.357 491.119 C 110.897 491.119 84.587 517.429 84.587 549.885 L 84.587 637.089 C 84.587 647.974 87.557 658.157 92.717 666.897 C 83.747 679.597 70.577 689.107 55.197 693.367 C 61.007 694.978 67.127 695.857 73.447 695.857 C 86.827 695.857 99.297 692.007 109.827 685.347 C 119.337 691.968 130.887 695.857 143.357 695.857 L 658.997 695.857 C 691.447 695.857 717.757 669.547 717.757 637.089 L 717.757 549.885 C 717.757 517.429 691.447 491.119 658.997 491.119 Z " fill="rgb(51,177,255)"/><path d=" M 647.858 1889 L 132.218 1889 C 99.758 1889 73.448 1915.31 73.448 1947.77 L 73.448 2019.81 C 73.448 2030.69 76.418 2040.88 81.578 2049.62 C 72.608 2062.32 59.438 2071.83 44.058 2076.09 C 49.868 2077.7 55.988 2078.58 62.308 2078.58 C 75.688 2078.58 88.158 2074.72 98.688 2068.07 C 108.198 2074.69 119.748 2078.58 132.218 2078.58 L 647.858 2078.58 C 680.308 2078.58 706.618 2052.27 706.618 2019.81 L 706.618 1947.77 C 706.618 1915.31 680.308 1889 647.858 1889 Z " fill="rgb(51,177,255)"/><path d=" M 360.65 50 L 161.6 50 C 129.14 50 102.83 76.31 102.83 108.77 L 102.83 125.83 C 102.83 136.71 105.8 146.9 110.96 155.64 C 101.99 168.34 88.82 177.85 73.44 182.11 C 79.25 183.72 85.37 184.6 91.69 184.6 C 105.07 184.6 117.54 180.74 128.07 174.09 C 137.58 180.71 149.13 184.6 161.6 184.6 L 360.65 184.6 C 393.1 184.6 419.42 158.29 419.42 125.83 L 419.42 108.77 C 419.42 76.31 393.1 50 360.65 50 Z " fill="rgb(51,177,255)"/><path d=" M 698.49 400.974 C 703.65 392.234 706.62 382.044 706.62 371.164 L 706.62 299.124 C 706.62 266.664 680.31 240.354 647.85 240.354 L 132.21 240.354 C 99.75 240.354 73.44 266.664 73.44 299.124 L 73.44 371.164 C 73.44 403.624 99.75 429.934 132.21 429.934 L 647.85 429.934 C 660.32 429.934 671.86 426.044 681.37 419.424 C 691.9 426.074 704.38 429.934 717.76 429.934 C 724.08 429.934 730.19 429.054 736 427.444 C 720.63 423.184 707.45 413.674 698.49 400.974 Z " fill="rgb(51,100,255)"/></g></g></svg>