<?xml version="1.0" encoding="UTF-8" standalone="no"?><!-- Generator: Gravit.io --><svg xmlns="http://www.w3.org/2000/svg" xmlns:xlink="http://www.w3.org/1999/xlink" style="isolation:isolate" viewBox="0 0 3300 2000" width="3300pt" height="2000pt"><defs><clipPath id="_clipPath_QgN2r3d3k2oQPay2p9gouO5QkSrdS5Oc"><rect width="3300" height="2000"/></clipPath></defs><g clip-path="url(#_clipPath_QgN2r3d3k2oQPay2p9gouO5QkSrdS5Oc)"><path d=" M 3513.12 242.578 L 3446.98 242.578 L 3446.98 235.578 L 3513.12 235.578 L 3513.12 242.578 Z " fill="rgb(255,255,255)"/><path d=" M 3513.12 259.444 L 3446.98 259.444 L 3446.98 252.444 L 3513.12 252.444 L 3513.12 259.444 Z " fill="rgb(255,255,255)"/><g><path d=" M 3144.499 1612.726 C 3144.499 1602.5 3144.259 1592.096 3143.9 1581.536 C 3143.04 1555.39 3141.681 1528.439 3139.482 1500.664 C 3137.883 1480.368 3135.924 1459.738 3133.465 1438.794 C 3092.365 1080.845 2930.884 655.667 2492.118 714.945 C 2223.51 751.186 1961.838 564.716 1720.696 378.249 C 1329.645 75.862 992.568 -226.523 767.46 420.828 C 709.546 587.294 601.325 618.313 413.473 731.184 C 238.137 836.425 111.632 1105.695 132.736 1438.794 C 133.966 1459.247 135.807 1479.877 138.259 1500.664 C 141.204 1527.301 145.254 1554.094 150.162 1581.536 C 154.945 1607.525 160.59 1633.847 167.215 1660.15 C 186.48 1737.449 213.842 1816.868 250.161 1897.425 C 250.896 1898.878 251.51 1900.35 252.124 1901.803 L 3099.102 1901.803 L 3099.341 1901.803 C 3122.29 1893.519 3142.42 1780.809 3144.499 1622.953 C 3144.499 1619.557 3144.619 1616.142 3144.499 1612.726 Z " fill="rgb(138,137,169)"/><path d=" M 2558.726 1223.385 L 1543.796 1214.277 C 1543.796 1214.277 1589.34 1140.57 1697.327 1140.57 C 1703.324 1140.57 1709.501 1140.798 1715.898 1141.279 C 1715.898 1141.279 1801.636 1074.66 1917.299 1074.66 C 1967.415 1074.66 2023.148 1087.172 2079.94 1123.032 C 2079.94 1123.032 2133.394 1115.164 2205.479 1115.164 C 2272.706 1115.164 2356.165 1122.013 2427.55 1148.479 C 2526.162 1185.038 2558.726 1223.385 2558.726 1223.385 Z " fill="rgb(106,105,138)"/><path d=" M 191.373 1019.665 L 60.721 1018.537 C 60.721 1018.537 109.489 942.755 225.117 942.755 C 225.387 942.755 225.653 942.757 225.923 942.757 C 213.317 967.017 201.758 992.699 191.373 1019.665 Z " fill="rgb(81,80,117)"/><path d=" M 1147.55 1027.919 L 191.373 1019.665 C 201.758 992.699 213.317 967.017 225.923 942.757 C 232.092 942.777 238.458 943.01 245.009 943.483 C 245.009 943.483 336.834 874.982 460.684 874.982 C 514.348 874.982 574.032 887.847 634.851 924.72 C 634.851 924.72 692.077 916.631 769.269 916.631 C 841.27 916.631 930.646 923.674 1007.079 950.887 C 1112.671 988.481 1147.55 1027.919 1147.55 1027.919 Z " fill="rgb(106,105,138)"/><path d=" M 2019.929 566.332 L 1983.287 566.016 C 1951.723 546.287 1920.378 525.333 1889.313 503.599 C 1901.187 506.414 1912.862 509.783 1924.116 513.789 C 1996.141 539.432 2019.929 566.332 2019.929 566.332 Z " fill="rgb(81,80,117)"/><path d=" M 1983.287 566.016 L 1278.634 559.933 C 1278.634 559.933 1311.891 508.244 1390.759 508.244 C 1395.139 508.244 1399.667 508.405 1404.33 508.74 C 1404.33 508.74 1466.962 462.017 1551.436 462.017 C 1588.038 462.017 1628.741 470.793 1670.22 495.942 C 1670.22 495.942 1709.261 490.424 1761.915 490.424 C 1800.417 490.424 1846.214 493.377 1889.313 503.599 C 1920.378 525.333 1951.723 546.287 1983.287 566.016 Z " fill="rgb(106,105,138)"/><path d=" M 2487.521 1089.592 C 2339.613 1034.754 2139.911 1064.145 2139.911 1064.145 C 1952.042 945.529 1775.869 1082.392 1775.869 1082.392 C 1654.508 1073.268 1603.767 1155.382 1603.767 1155.382 L 2618.696 1164.506 C 2618.696 1164.506 2586.132 1126.153 2487.521 1089.592 Z " fill="rgb(248,252,255)"/><path d=" M 694.821 865.833 C 493.64 743.864 304.98 884.596 304.98 884.596 C 175.033 875.216 120.692 959.65 120.692 959.65 L 1207.521 969.034 C 1207.521 969.034 1172.642 929.594 1067.049 892 C 908.675 835.612 694.821 865.833 694.821 865.833 Z " fill="rgb(248,252,255)"/><path d=" M 1984.087 454.902 C 1876.06 416.443 1730.191 437.055 1730.191 437.055 C 1592.98 353.863 1464.301 449.853 1464.301 449.853 C 1375.668 443.454 1338.602 501.046 1338.602 501.046 L 2079.9 507.445 C 2079.9 507.445 2056.112 480.545 1984.087 454.902 Z " fill="rgb(248,252,255)"/><path d=" M 3144.499 1612.726 C 3144.499 1602.5 3144.259 1592.096 3143.9 1581.536 C 3143.04 1555.39 3141.681 1528.439 3139.482 1500.664 C 3137.883 1480.368 3135.924 1459.738 3133.465 1438.794 L 132.736 1438.794 C 133.966 1459.247 135.807 1479.877 138.259 1500.664 C 141.204 1527.301 145.254 1554.094 150.162 1581.536 C 154.945 1607.525 160.59 1633.847 167.215 1660.15 C 186.48 1737.449 213.842 1816.868 250.161 1897.425 C 250.896 1898.878 251.51 1900.35 252.124 1901.803 L 3099.102 1901.803 L 3099.341 1901.803 C 3122.29 1893.519 3142.42 1780.809 3144.499 1622.953 C 3144.499 1619.557 3144.619 1616.142 3144.499 1612.726 Z " fill="rgb(128,180,255)"/><path d=" M 3143.84 1581.595 L 150.182 1581.595 C 154.983 1607.544 160.561 1633.867 167.179 1660.17 C 186.51 1737.449 213.886 1816.946 250.215 1897.366 L 3105.958 1897.366 C 3126.068 1875.873 3142.68 1783.95 3144.499 1660.17 C 3144.879 1635.162 3144.759 1608.84 3143.84 1581.595 Z " fill="rgb(115,152,230)"/><path d=" M 2332.416 1815.199 C 2077.321 1881.938 1892.432 1722.394 1820.827 1687.807 C 1787.223 1671.574 1689.471 1696.68 1573.737 1721.785 C 1442.789 1750.188 1288.849 1778.591 1178.875 1747.106 C 971.714 1687.807 805.473 1756.999 667.365 1791.586 C 529.256 1826.192 562.504 1786.659 414.164 1707.574 C 265.827 1628.488 118.145 1899.153 118.145 1899.153 L 3184 1900.232 C 3138.142 1627.389 2587.532 1748.48 2332.416 1815.199 Z " fill="rgb(254,214,119)"/><path d=" M 2434.147 1368.797 L 2370.198 1352.583 L 2269.147 1405.248 L 2192.825 1538.902 L 2223.77 1625.996 L 2161.9 1713.07 L 2159.841 1860.915 L 2219.652 1897.366 L 2541.374 1897.366 L 2611.5 1777.885 L 2619.756 1589.544 L 2572.319 1395.119 L 2487.76 1356.646 L 2434.147 1368.797 Z " fill="rgb(236,241,249)"/><path d=" M 2429.869 1356.548 L 2414.656 1308.752 C 2413.497 1305.081 2409.939 1302.647 2406.02 1302.843 C 2392.367 1303.53 2362.482 1305.336 2362.482 1307.927 C 2362.482 1311.303 2429.869 1356.548 2429.869 1356.548 Z " fill="rgb(206,209,236)"/><path d=" M 2438.125 1358.57 L 2440.304 1325.672 C 2440.604 1321.393 2444.821 1318.448 2449.039 1319.587 L 2462.773 1323.277 C 2472.948 1326.005 2474.487 1339.549 2465.172 1344.417 L 2438.125 1358.57 Z " fill="rgb(206,209,236)"/><path d=" M 2417.435 1359.316 C 2418.534 1357.353 2419.614 1355.449 2420.513 1353.859 C 2421.833 1351.543 2424.292 1350.11 2426.99 1350.071 L 2446.321 1349.835 C 2448.72 1349.815 2450.998 1350.895 2452.438 1352.799 L 2455.456 1356.725 C 2456.676 1358.334 2457.175 1360.356 2456.856 1362.339 L 2456.376 1365.224 C 2455.776 1368.934 2452.418 1371.604 2448.6 1371.407 L 2423.672 1370.249 C 2418.115 1369.994 2414.756 1364.105 2417.435 1359.316 Z " fill="rgb(206,209,236)"/><path d=" M 2269.147 1405.248 L 2309.508 1509.458 C 2311.827 1515.425 2320.302 1515.681 2323.001 1509.89 L 2339.433 1474.479 C 2342.212 1468.512 2340.512 1461.446 2335.295 1457.343 L 2269.147 1405.248 Z " fill="rgb(206,209,236)"/><path d=" M 2220.871 1630.177 C 2220.871 1630.177 2270.367 1689.358 2260.731 1698.819 C 2251.116 1708.261 2161.9 1713.07 2161.9 1713.07 L 2220.871 1630.177 Z " fill="rgb(206,209,236)"/><path d=" M 2611.5 1777.885 C 2611.5 1777.885 2427.57 1837.891 2437.665 1859.483 C 2447.74 1881.094 2541.374 1897.366 2541.374 1897.366 L 2611.5 1777.885 Z " fill="rgb(206,209,236)"/><path d=" M 2386.71 1576.55 L 2583.054 1598.711 C 2589.491 1599.437 2590.55 1608.172 2584.493 1610.371 L 2472.168 1651.219 C 2464.772 1653.908 2456.456 1652.338 2450.619 1647.116 L 2382.292 1586.129 C 2378.234 1582.517 2381.293 1575.942 2386.71 1576.55 Z " fill="rgb(206,209,236)"/><path d=" M 2414.057 1378.14 L 2367.879 1389.741 C 2360.143 1391.664 2356.605 1400.478 2360.883 1407.073 L 2366.36 1415.494 C 2369.558 1420.421 2376.715 1420.912 2380.593 1416.476 L 2414.057 1378.14 Z " fill="rgb(206,209,236)"/><path d=" M 2438.125 1376.786 L 2484.302 1368.836 C 2487.301 1368.306 2490.379 1369.013 2492.858 1370.76 L 2511.269 1383.813 C 2514.727 1386.267 2512.348 1391.606 2508.17 1390.762 L 2438.125 1376.786 Z " fill="rgb(206,209,236)"/><path d=" M 2676.868 1598.809 L 2642.725 1590.153 L 2588.731 1618.281 L 2547.971 1689.692 L 2564.503 1736.212 L 2531.439 1782.733 L 2530.34 1861.701 L 2562.284 1881.173 L 2734.16 1881.173 L 2771.622 1817.339 L 2776.039 1716.74 L 2750.692 1612.883 L 2705.514 1592.312 L 2676.868 1598.809 Z " fill="rgb(129,227,165)"/><path d=" M 2674.589 1592.273 L 2666.473 1566.736 C 2665.853 1564.773 2663.954 1563.477 2661.855 1563.575 C 2654.559 1563.948 2638.607 1564.91 2638.607 1566.304 C 2638.607 1568.11 2674.589 1592.273 2674.589 1592.273 Z " fill="rgb(93,215,130)"/><path d=" M 2679.007 1593.352 L 2680.166 1575.785 C 2680.326 1573.488 2682.585 1571.918 2684.824 1572.526 L 2692.181 1574.509 C 2697.598 1575.961 2698.437 1583.185 2693.46 1585.795 L 2679.007 1593.352 Z " fill="rgb(93,215,130)"/><path d=" M 2667.952 1593.745 C 2668.552 1592.705 2669.112 1591.684 2669.592 1590.84 C 2670.291 1589.603 2671.611 1588.838 2673.05 1588.818 L 2683.385 1588.681 C 2684.664 1588.661 2685.884 1589.25 2686.663 1590.271 L 2688.262 1592.371 C 2688.922 1593.215 2689.182 1594.314 2689.022 1595.374 L 2688.762 1596.905 C 2688.422 1598.888 2686.643 1600.301 2684.604 1600.223 L 2671.291 1599.595 C 2668.312 1599.457 2666.533 1596.316 2667.952 1593.745 Z " fill="rgb(93,215,130)"/><path d=" M 2588.731 1618.281 L 2610.301 1673.949 C 2611.54 1677.149 2616.078 1677.286 2617.517 1674.185 L 2626.293 1655.282 C 2627.772 1652.082 2626.852 1648.314 2624.074 1646.115 L 2588.731 1618.281 Z " fill="rgb(93,215,130)"/><path d=" M 2566.262 1738.45 C 2566.262 1738.45 2592.689 1770.053 2587.552 1775.117 C 2582.414 1780.162 2534.757 1782.733 2534.757 1782.733 L 2566.262 1738.45 Z " fill="rgb(93,215,130)"/><path d=" M 2771.622 1817.339 C 2771.622 1817.339 2673.37 1849.393 2678.747 1860.935 C 2684.144 1872.477 2734.16 1881.173 2734.16 1881.173 L 2771.622 1817.339 Z " fill="rgb(93,215,130)"/><path d=" M 2654.859 1709.792 L 2759.727 1721.628 C 2763.166 1722.021 2763.746 1726.692 2760.507 1727.87 L 2700.496 1749.697 C 2696.558 1751.13 2692.101 1750.286 2688.982 1747.499 L 2652.48 1714.915 C 2650.321 1712.991 2651.96 1709.478 2654.859 1709.792 Z " fill="rgb(93,215,130)"/><path d=" M 2666.153 1603.815 L 2641.485 1609.998 C 2637.347 1611.038 2635.448 1615.73 2637.747 1619.263 L 2640.666 1623.758 C 2642.385 1626.388 2646.203 1626.663 2648.282 1624.288 L 2666.153 1603.815 Z " fill="rgb(93,215,130)"/><path d=" M 2679.007 1603.088 L 2703.675 1598.829 C 2705.274 1598.554 2706.933 1598.927 2708.253 1599.869 L 2718.088 1606.838 C 2719.927 1608.153 2718.648 1610.999 2716.429 1610.547 L 2679.007 1603.088 Z " fill="rgb(93,215,130)"/><path d=" M 1014.543 1427.487 L 924.047 1419.008 L 866.301 1463.88 L 844.29 1547.322 L 871.473 1604.364 L 812.004 1579.808 L 673.65 1732.012 L 648.44 1861.485 L 694.979 1893.853 L 1096.375 1893.853 L 1154.546 1707.26 L 1152.609 1554.939 L 1014.543 1427.487 Z " fill="rgb(255,77,103)"/><path d=" M 812.004 1579.808 C 812.004 1579.808 864.578 1647.509 875.783 1650.061 C 886.985 1652.593 921.462 1647.509 920.599 1642.445 C 919.737 1637.361 871.473 1604.364 871.473 1604.364 L 812.004 1579.808 Z " fill="rgb(255,41,72)"/><path d=" M 673.65 1732.012 L 746.84 1785.736 C 753.019 1790.271 755.997 1797.887 754.474 1805.326 C 751.216 1821.167 745.229 1846.92 740.469 1848.078 C 733.576 1849.786 673.65 1732.012 673.65 1732.012 Z " fill="rgb(255,41,72)"/><path d=" M 1140.807 1721.137 C 1140.807 1721.137 1036.088 1774.469 1032.21 1783.342 C 1028.332 1792.234 1064.53 1864.586 1078.751 1854.438 C 1092.973 1844.29 1140.807 1721.137 1140.807 1721.137 Z " fill="rgb(255,41,72)"/><path d=" M 889.572 1436.792 C 889.572 1436.792 814.591 1417.32 807.694 1420.715 C 800.801 1424.092 766.326 1470.652 769.773 1479.112 C 773.221 1487.572 889.572 1436.792 889.572 1436.792 Z " fill="rgb(255,77,103)"/><path d=" M 894.743 1391.095 L 889.572 1436.792 L 921.462 1408.86 C 921.462 1408.86 909.394 1386.011 894.743 1391.095 Z " fill="rgb(255,41,72)"/><path d=" M 899.699 1440.168 C 899.699 1439.54 898.622 1430.02 896.898 1430.451 C 895.175 1430.864 883.539 1437.852 883.539 1439.127 C 883.539 1440.384 881.384 1449.904 885.91 1449.492 C 890.436 1449.06 899.699 1440.168 899.699 1440.168 Z " fill="rgb(255,41,72)"/><path d=" M 895.605 1445.193 C 895.605 1445.193 884.401 1484.981 886.126 1488.357 C 887.849 1491.753 911.119 1517.565 914.134 1516.289 C 917.153 1515.013 895.605 1445.193 895.605 1445.193 Z " fill="rgb(255,41,72)"/><path d=" M 899.053 1443.132 C 899.053 1443.132 911.981 1482.92 915.427 1482.488 C 918.876 1482.076 936.975 1450.748 934.39 1448.216 C 931.803 1445.684 899.053 1443.132 899.053 1443.132 Z " fill="rgb(255,41,72)"/><path d=" M 900.924 1440.992 L 911.943 1435.437 C 912.455 1435.182 913.057 1435.162 913.588 1435.378 L 918.182 1437.243 C 919.184 1437.655 918.97 1439.108 917.894 1439.206 L 900.924 1440.992 Z " fill="rgb(255,41,72)"/><path d=" M 892.029 1446.724 L 885.742 1452.927 C 884.818 1453.83 884.92 1455.321 885.96 1456.107 L 888.085 1457.696 C 888.794 1458.246 889.83 1457.853 890 1456.99 L 892.029 1446.724 Z " fill="rgb(255,41,72)"/><path d=" M 890.649 1436.792 C 889.68 1436.478 842.169 1431.708 838.291 1433.612 C 834.413 1435.516 816.638 1451.71 823.748 1452.652 C 830.857 1453.614 890.649 1436.792 890.649 1436.792 Z " fill="rgb(255,41,72)"/><path d=" M 694.979 1893.853 C 694.979 1893.853 861.991 1869.238 879.231 1875.166 C 896.467 1881.094 955.936 1892.95 955.936 1892.95 C 955.936 1892.95 1030.057 1874.322 1037.814 1878.562 C 1045.57 1882.782 1055.913 1893.794 1055.913 1893.794 L 694.979 1893.853 Z " fill="rgb(174,211,255)"/><path d=" M 355.019 1701.233 C 345.292 1786.914 340.347 1854.752 340.347 1854.752 L 318.663 1878.032 C 318.663 1878.032 292.914 1768.718 288.182 1701.175 C 300.462 1705.552 323.097 1709.949 355.019 1701.233 Z " fill="rgb(244,179,164)"/><path d=" M 487.535 1857.677 L 471.552 1881.722 C 471.552 1881.722 421.277 1764.439 406.798 1696.699 C 419.786 1698.799 446.922 1700.546 475.692 1686.394 C 479.437 1783.263 487.535 1857.677 487.535 1857.677 Z " fill="rgb(244,179,164)"/><path d=" M 612.715 1333.327 C 612.715 1333.327 520.748 1410.489 503.937 1419.616 C 487.125 1428.744 413.125 1494.128 413.125 1494.128 C 404.719 1493.912 397.319 1504.669 397.319 1504.669 C 389.239 1511.205 387.891 1520.431 388.201 1527.085 C 388.335 1529.97 392.013 1531.187 393.916 1528.989 C 402.032 1519.646 418.284 1506.416 418.284 1506.416 C 418.284 1506.416 499.369 1469.709 519.593 1456.107 C 539.819 1442.504 634.999 1390.546 634.999 1390.546 L 612.715 1333.327 Z " fill="rgb(233,140,148)"/><path d=" M 807.2 1294.265 C 807.2 1294.265 832.072 1279.406 811.302 1243.073 C 811.302 1243.073 819.598 1260.975 813.913 1268.296 C 813.913 1268.296 816.114 1251.435 807.422 1243.956 C 798.73 1236.478 778.864 1240.894 773.401 1244.074 C 767.939 1247.254 753.618 1262.839 755.761 1269.592 C 757.906 1276.364 766.484 1282.508 766.484 1282.508 L 807.2 1294.265 Z " fill="rgb(155,82,101)"/><path d=" M 801.573 1372.703 C 801.573 1372.703 846.215 1305.042 799.384 1290.752 C 799.384 1290.752 784.995 1273.832 749.049 1277.11 C 712.373 1280.447 693.354 1310.911 703.499 1320.549 C 710.008 1326.732 698.521 1336.428 698.521 1336.428 L 801.573 1372.703 Z " fill="rgb(155,82,101)"/><path d=" M 664.476 1397.671 C 664.45 1397.887 648.974 1382.557 648.442 1367.619 C 647.93 1353.584 647.145 1335.82 647.239 1335.997 C 650.087 1341.139 673.45 1344.437 706.372 1334.25 L 706.659 1336.88 L 711.477 1381.104 C 711.477 1381.104 697.824 1384.245 685.238 1388.053 C 674.667 1391.252 664.85 1394.962 664.476 1397.671 Z " fill="rgb(244,179,164)"/><path d=" M 711.477 1381.104 C 711.477 1381.104 697.824 1384.245 685.238 1388.053 C 678.509 1364.537 696.259 1345.595 706.659 1336.88 L 711.477 1381.104 Z " fill="rgb(233,140,148)"/><path d=" M 709.914 1331.148 C 709.914 1331.148 725.696 1312.933 741.574 1304.845 C 752.911 1299.094 799.298 1291.478 806.816 1337.331 C 806.816 1337.331 809.583 1350.483 805.143 1364.989 C 801.611 1376.511 791.822 1394.589 748.127 1391.095 L 733.748 1391.115 L 709.914 1331.148 Z " fill="rgb(155,82,101)"/><path d=" M 702.036 1392.528 C 702.036 1392.528 683.611 1337.665 718.588 1326.908 C 753.565 1316.171 774.742 1301.862 787.986 1336.448 C 801.229 1371.015 790.061 1381.948 779.274 1388.328 C 768.487 1394.707 707.731 1406.524 702.036 1392.528 Z " fill="rgb(244,179,164)"/><path d=" M 796.811 1361.298 C 796.811 1361.298 750.972 1358.747 737.55 1337.43 C 724.129 1316.112 727.263 1304.119 727.263 1304.119 C 727.263 1304.119 747.849 1306.867 773.559 1313.521 C 786.596 1316.898 812.736 1343.927 796.811 1361.298 Z " fill="rgb(155,82,101)"/><path d=" M 780.745 1680.015 C 780.745 1680.015 755.038 1641.385 732.985 1606.072 C 718.937 1583.597 706.436 1562.496 703.063 1553.8 C 694.353 1531.325 611.754 1403.599 611.754 1403.599 L 689.296 1386.345 C 689.296 1386.345 728.629 1514.208 742.536 1541.669 C 747.454 1551.602 756.163 1571.878 765.013 1593.804 C 780.745 1632.434 797.461 1675.873 797.461 1675.873 C 797.461 1675.873 778.918 1690.359 780.745 1680.015 Z " fill="rgb(244,179,164)"/><path d=" M 692.878 1393.883 C 692.878 1393.883 673.774 1345.438 657.911 1339.549 L 657.585 1339.451 C 654.969 1336.134 651.231 1333.033 646.157 1330.265 C 599.498 1304.688 519.041 1291.576 434.027 1299.074 C 434.027 1299.074 356.181 1305.375 308.33 1350.208 C 287.638 1369.601 384.459 1380.299 384.459 1380.299 C 388.487 1381.477 392.433 1382.812 396.325 1384.245 C 413.351 1390.546 429.145 1398.927 444.935 1406.798 C 459.099 1413.845 473.27 1420.46 488.336 1424.779 C 494.047 1426.408 499.879 1427.703 505.89 1428.567 C 522.462 1430.962 536.549 1432.787 547.981 1434.161 C 571.777 1436.988 595.776 1430.432 614.547 1415.808 C 618.571 1420.225 623.11 1425.505 628.202 1431.825 C 628.202 1431.825 661.877 1400.321 692.878 1393.883 Z " fill="rgb(254,214,119)"/><path d=" M 600.315 1402.186 C 600.315 1402.186 582.682 1379.573 537.69 1386.541 C 501.908 1392.077 429.137 1398.927 444.933 1406.779 C 444.933 1406.779 449.513 1409.056 451.806 1410.155 C 452.652 1410.567 453.499 1410.979 454.347 1411.372 C 454.989 1411.686 455.63 1412 456.274 1412.295 C 457.555 1412.903 458.839 1413.492 460.124 1414.081 C 460.592 1414.297 461.062 1414.493 461.529 1414.709 C 462.929 1415.337 464.332 1415.965 465.739 1416.554 C 466.113 1416.731 466.487 1416.888 466.861 1417.045 C 468.344 1417.673 469.831 1418.281 471.325 1418.89 C 471.628 1419.008 471.932 1419.125 472.234 1419.243 C 473.791 1419.852 475.351 1420.46 476.922 1421.029 C 477.166 1421.128 477.41 1421.206 477.653 1421.304 C 479.283 1421.893 480.918 1422.462 482.565 1422.992 L 483.101 1423.169 C 484.76 1423.699 486.427 1424.229 488.106 1424.7 L 488.336 1424.779 C 494.047 1426.408 499.879 1427.703 505.89 1428.567 C 522.462 1430.962 536.549 1432.787 547.981 1434.161 C 571.845 1437.007 595.916 1430.393 614.714 1415.671 L 600.315 1402.186 Z " fill="rgb(252,186,100)"/><path d=" M 417.135 1385.737 C 413.275 1394.059 409.553 1403.874 405.965 1414.866 C 402.8 1424.641 399.748 1435.319 396.807 1446.763 C 396.347 1448.53 395.901 1450.296 395.468 1452.083 C 387.661 1483.391 380.661 1519.881 374.494 1557.883 C 370.484 1582.557 366.824 1607.858 363.509 1632.807 C 363.459 1633.219 363.397 1633.651 363.349 1634.083 C 360.309 1657.068 357.566 1679.7 355.133 1701.233 L 355.083 1701.665 C 323.747 1709.537 301.172 1705.768 288.326 1701.606 L 288.29 1701.175 C 286.255 1672.183 287.211 1647.136 294.135 1634.789 C 307.067 1611.686 267.788 1428.842 295.586 1369.13 C 323.387 1309.419 398.22 1338.705 398.22 1338.705 L 417.135 1385.737 Z " fill="rgb(255,77,103)"/><path d=" M 405.967 1414.886 C 402.798 1424.622 399.754 1435.319 396.803 1446.763 C 396.353 1448.53 395.903 1450.296 395.464 1452.083 C 387.657 1483.391 380.657 1519.881 374.486 1557.883 C 370.48 1582.557 366.824 1607.858 363.513 1632.807 C 363.461 1633.219 363.399 1633.651 363.345 1634.083 C 300.658 1405.228 349.626 1404.306 349.626 1404.306 L 405.967 1414.886 Z " fill="rgb(255,41,72)"/><path d=" M 474.433 1557.726 C 473.442 1602.755 474.173 1646.684 475.712 1686.374 C 475.724 1686.787 475.75 1687.218 475.762 1687.611 C 447.814 1699.428 421.615 1698.917 406.91 1697.151 L 406.81 1696.699 C 401.673 1672.595 399.772 1651.729 404.091 1639.422 C 409.763 1623.228 390.018 1575.235 376.441 1504.413 L 353.494 1471.476 C 333.626 1433.337 331.789 1415.926 338.489 1393.902 C 345.986 1369.189 388.019 1346.322 398.22 1338.705 L 415.324 1345.968 C 456.178 1363.772 480.554 1404.718 478.269 1448.53 C 476.632 1479.858 475.341 1517.035 474.433 1557.726 Z " fill="rgb(255,77,103)"/><path d=" M 314.097 1898.839 L 326.483 1898.839 C 330.631 1898.191 333.696 1897.013 337.952 1896.483 C 344.413 1895.639 347.387 1898.25 347.979 1898.839 L 348.095 1898.956 L 400.709 1898.956 C 402.034 1897.111 400.761 1892.813 399.518 1889.652 C 398.678 1887.493 396.851 1885.864 394.592 1885.216 C 389.013 1883.646 378.012 1882.233 367.939 1873.262 C 362.272 1868.237 340.572 1854.772 340.572 1854.772 L 340.457 1854.752 C 339.981 1854.772 337.712 1855.439 327.843 1863.624 C 322.739 1867.844 314.045 1857.677 314.045 1857.677 C 314.045 1857.677 312.412 1858.992 311.193 1861.465 C 310.213 1863.408 309.498 1866.097 310.063 1869.395 C 310.849 1874.047 308.314 1882.704 306.293 1888.553 C 305.066 1892.106 304.032 1894.618 304.032 1894.618 C 304.032 1894.618 303.441 1897.543 314.097 1898.839 Z " fill="rgb(44,44,44)"/><path d=" M 311.193 1861.465 C 314.149 1863.506 320.392 1867.53 324.532 1868.06 C 330.122 1868.787 340.572 1854.772 340.572 1854.772 L 340.457 1854.752 C 339.981 1854.772 337.712 1855.439 327.843 1863.624 C 322.739 1867.844 314.045 1857.677 314.045 1857.677 C 314.045 1857.677 312.412 1858.992 311.193 1861.465 Z " fill="rgb(128,180,255)"/><path d=" M 314.097 1898.839 L 326.483 1898.839 C 330.631 1898.191 333.696 1897.013 337.952 1896.483 C 344.413 1895.639 347.387 1898.25 347.979 1898.839 L 348.095 1898.956 L 400.709 1898.956 C 402.034 1897.111 400.761 1892.813 399.518 1889.652 C 397.92 1888.259 397.469 1895.698 396.587 1896.895 C 395.704 1898.073 353.664 1897.327 351.237 1895.6 C 348.808 1893.853 341.526 1890.83 331.375 1893.205 C 322.537 1895.286 309.516 1889.966 306.293 1888.553 C 305.066 1892.106 304.032 1894.618 304.032 1894.618 C 304.032 1894.618 303.441 1897.543 314.097 1898.839 Z " fill="rgb(128,180,255)"/><path d=" M 461.525 1898.839 L 473.911 1898.839 C 478.061 1898.191 481.124 1897.013 485.38 1896.483 C 491.841 1895.639 494.817 1898.25 495.409 1898.839 L 495.523 1898.956 L 548.139 1898.956 C 549.462 1897.111 548.191 1892.813 546.946 1889.652 C 546.108 1887.493 544.279 1885.864 542.02 1885.216 C 536.441 1883.646 525.442 1882.233 515.369 1873.262 C 509.702 1868.237 488.002 1854.772 488.002 1854.772 L 487.886 1854.752 C 487.409 1854.772 485.14 1855.439 475.271 1863.624 C 470.169 1867.844 461.473 1857.677 461.473 1857.677 C 461.473 1857.677 459.84 1858.992 458.621 1861.465 C 457.641 1863.408 456.926 1866.097 457.491 1869.395 C 458.277 1874.047 455.744 1882.704 453.723 1888.553 C 452.494 1892.106 451.462 1894.618 451.462 1894.618 C 451.462 1894.618 450.871 1897.543 461.525 1898.839 Z " fill="rgb(44,44,44)"/><path d=" M 458.621 1861.465 C 461.579 1863.506 467.82 1867.53 471.96 1868.06 C 477.549 1868.787 488.002 1854.772 488.002 1854.772 L 487.886 1854.752 C 487.409 1854.772 485.14 1855.439 475.271 1863.624 C 470.169 1867.844 461.473 1857.677 461.473 1857.677 C 461.473 1857.677 459.84 1858.992 458.621 1861.465 Z " fill="rgb(128,180,255)"/><path d=" M 461.525 1898.839 L 473.911 1898.839 C 478.061 1898.191 481.124 1897.013 485.38 1896.483 C 491.841 1895.639 494.817 1898.25 495.409 1898.839 L 495.523 1898.956 L 548.139 1898.956 C 549.462 1897.111 548.191 1892.813 546.946 1889.652 C 545.348 1888.259 544.899 1895.698 544.015 1896.895 C 543.133 1898.073 501.092 1897.327 498.665 1895.6 C 496.238 1893.853 488.956 1890.83 478.803 1893.205 C 469.965 1895.286 456.944 1889.966 453.723 1888.553 C 452.494 1892.106 451.462 1894.618 451.462 1894.618 C 451.462 1894.618 450.871 1897.543 461.525 1898.839 Z " fill="rgb(128,180,255)"/><path d=" M 801.453 1721.491 C 792.743 1720.666 804.088 1712.108 797.063 1700.802 C 797.063 1700.802 778.918 1690.359 780.745 1680.015 C 780.745 1680.015 755.038 1641.385 732.985 1606.072 C 742.536 1604.423 753.632 1600.969 765.013 1593.804 C 780.745 1632.434 797.461 1675.873 797.461 1675.873 C 797.461 1675.873 806.669 1688.651 815.5 1701.665 C 818.429 1705.964 805.105 1721.765 801.453 1721.491 Z " fill="rgb(76,75,115)"/><path d=" M 2051.814 1440.835 C 2048.036 1449.943 2022.888 1447.47 2003.497 1434.495 C 1984.247 1421.677 1956.58 1409.802 1940.848 1399.045 C 1929.054 1391.193 1916.82 1361.397 1907.544 1343.043 C 1905.165 1338.352 1902.926 1334.367 1901.087 1331.737 C 1889.713 1328.42 1890.413 1316.839 1879.878 1313.109 C 1867.384 1308.85 1871.162 1301.94 1871.162 1301.94 C 1871.162 1301.94 1880.158 1298.211 1891.112 1299.33 C 1895.05 1299.879 1902.926 1311.048 1907.544 1318.075 C 1911.902 1321.255 1917.1 1325.534 1922.717 1330.501 C 1937.889 1343.73 1955.041 1360.847 1961.918 1369.248 C 1969.914 1379.043 2021.768 1389.8 2035.801 1401.126 C 2060.809 1421.265 2051.814 1440.835 2051.814 1440.835 Z " fill="rgb(233,140,148)"/><path d=" M 1962.078 1580.947 L 2016.431 1877.227 L 2035.242 1878.444 C 2035.242 1878.444 2050.035 1749.403 2037.361 1704.865 C 2024.687 1660.327 2059.23 1604.011 2049.535 1565.381 C 2039.82 1526.751 1962.078 1580.947 1962.078 1580.947 Z " fill="rgb(233,140,148)"/><path d=" M 2024.587 1417.28 L 1977.13 1409.704 C 1974.871 1402.127 1974.232 1391.723 1974.192 1382.537 C 1974.172 1371.113 1975.091 1361.554 1975.091 1361.554 L 2013.392 1357.922 L 2030.404 1356.313 C 2021.049 1373.802 2024.587 1417.28 2024.587 1417.28 Z " fill="rgb(244,179,164)"/><path d=" M 2026.006 1365.499 C 2026.006 1365.499 2000.659 1386.718 1974.192 1382.537 C 1974.172 1371.113 1975.091 1361.554 1975.091 1361.554 L 2013.392 1357.922 L 2026.006 1365.499 Z " fill="rgb(233,140,148)"/><path d=" M 1998.26 1653.928 C 1988.645 1680.172 1980.009 1706.906 1984.347 1728.832 C 1985.606 1735.309 1986.406 1742.003 1986.785 1748.834 C 1987.145 1755.115 1987.165 1761.475 1986.905 1767.874 C 1984.786 1819.518 1964.756 1872.182 1961.658 1880.034 C 1961.398 1880.701 1961.258 1881.035 1961.258 1881.035 L 1944.586 1879.308 L 1937.43 1568.424 C 1937.43 1568.424 2013.512 1538.254 2017.75 1577.826 C 2019.949 1598.279 2008.535 1625.838 1998.26 1653.928 Z " fill="rgb(244,179,164)"/><path d=" M 2043.738 1671.554 C 2043.738 1671.554 2038.88 1672.241 2031.644 1673.007 C 2018.09 1674.46 1996.261 1676.187 1982.747 1674.145 C 1976.311 1673.184 1972.712 1662.741 1971.013 1648.726 C 1967.255 1617.673 1972.872 1569.052 1977.97 1566.893 C 1985.406 1563.772 2051.114 1566.422 2051.114 1566.422 C 2051.114 1566.422 2065.467 1601.263 2043.738 1671.554 Z " fill="rgb(182,100,121)"/><path d=" M 2032.703 1673.007 C 2019.15 1674.46 1997.32 1676.187 1983.807 1674.145 C 1977.37 1673.184 1992.683 1606.327 2008.095 1590.84 C 2013.173 1585.736 2035.142 1580.437 2035.142 1580.437 C 2035.142 1580.437 2045.997 1624.818 2032.703 1673.007 Z " fill="rgb(155,82,101)"/><path d=" M 1937.15 1567.423 C 1937.15 1567.423 1922.997 1628.861 1925.136 1677.443 C 1925.136 1677.443 1957.3 1683.705 1990.164 1677.443 C 1990.164 1677.443 2044.617 1599.693 2040.019 1574.705 C 2035.422 1549.717 1950.943 1559.434 1937.15 1567.423 Z " fill="rgb(182,100,121)"/><path d=" M 1962.997 1354.055 C 1962.997 1354.055 2007.255 1388.504 2028.665 1361.122 C 2050.094 1333.739 2070.225 1319.744 2042.878 1296.582 C 2015.531 1273.439 2001.818 1279.701 1992.403 1287.14 C 1982.987 1294.56 1952.042 1344.398 1962.997 1354.055 Z " fill="rgb(244,179,164)"/><path d=" M 2081.939 1306.887 C 2081.939 1306.887 2079.48 1306.102 2076.662 1306.926 L 2076.662 1306.887 C 2080.24 1300.39 2077.561 1290.34 2077.561 1290.34 C 2078.441 1295.855 2073.383 1302.353 2073.383 1302.353 C 2073.103 1281.919 2021.628 1269.258 2016.871 1267.963 C 2012.113 1266.667 2012.693 1258.874 2012.693 1258.874 C 2002.878 1260.837 1992.463 1273.145 1992.763 1285.158 C 1993.062 1297.151 2003.177 1320.176 2009.714 1320.509 C 2016.271 1320.823 2013.292 1326.025 2008.835 1333.15 C 2004.377 1340.295 2010.174 1359.669 2018.19 1366.48 C 2024.667 1371.957 2028.065 1367.383 2031.863 1365.362 C 2032.803 1364.851 2033.802 1364.459 2034.842 1364.243 C 2049.855 1360.945 2065.467 1346.38 2073.243 1327.811 C 2076.322 1320.431 2076.761 1313.011 2076.741 1309.321 C 2078.021 1308.575 2080.5 1307.24 2081.939 1306.887 Z " fill="rgb(44,44,44)"/><path d=" M 1986.905 1767.874 C 1984.786 1819.518 1964.756 1872.182 1961.658 1880.034 L 1949.244 1879.308 C 1950.823 1877.227 1975.211 1769.444 1986.885 1767.874 L 1986.905 1767.874 Z " fill="rgb(233,140,148)"/><path d=" M 2037.801 1898.878 L 2027.286 1898.878 C 2023.767 1898.387 2021.169 1897.504 2017.57 1897.092 C 2012.073 1896.483 2009.554 1898.426 2009.055 1898.878 L 2008.955 1898.956 L 1964.316 1898.956 C 1963.197 1897.582 1964.276 1894.344 1965.336 1891.969 C 1966.056 1890.359 1967.595 1889.142 1969.514 1888.651 C 1974.252 1887.473 1983.567 1886.413 1992.123 1879.681 C 1996.94 1875.912 2015.331 1865.823 2015.331 1865.823 L 2015.431 1865.803 C 2015.831 1865.803 2017.77 1866.313 2026.146 1872.457 C 2030.464 1875.618 2037.84 1867.982 2037.84 1867.982 C 2037.84 1867.982 2039.22 1868.983 2040.259 1870.828 C 2041.099 1872.3 2041.699 1874.302 2041.219 1876.776 C 2040.559 1880.27 2042.698 1886.767 2044.417 1891.164 C 2045.457 1893.814 2046.336 1895.698 2046.336 1895.698 C 2046.336 1895.698 2046.836 1897.896 2037.801 1898.878 Z " fill="rgb(128,180,255)"/><path d=" M 2040.259 1870.828 C 2037.761 1872.359 2032.463 1875.382 2028.945 1875.794 C 2024.207 1876.324 2015.331 1865.823 2015.331 1865.823 L 2015.431 1865.803 C 2015.831 1865.803 2017.77 1866.313 2026.146 1872.457 C 2030.464 1875.618 2037.84 1867.982 2037.84 1867.982 C 2037.84 1867.982 2039.22 1868.983 2040.259 1870.828 Z " fill="rgb(44,44,44)"/><path d=" M 2037.801 1898.878 L 2027.286 1898.878 C 2023.767 1898.387 2021.169 1897.504 2017.57 1897.092 C 2012.073 1896.483 2009.554 1898.426 2009.055 1898.878 L 2008.955 1898.956 L 1964.316 1898.956 C 1963.197 1897.582 1964.276 1894.344 1965.336 1891.969 C 1966.695 1890.928 1967.075 1896.522 1967.815 1897.406 C 1968.574 1898.309 2004.237 1897.739 2006.296 1896.444 C 2008.355 1895.129 2014.532 1892.852 2023.148 1894.638 C 2030.644 1896.208 2041.679 1892.224 2044.417 1891.164 C 2045.457 1893.814 2046.336 1895.698 2046.336 1895.698 C 2046.336 1895.698 2046.836 1897.896 2037.801 1898.878 Z " fill="rgb(44,44,44)"/><path d=" M 1965.996 1898.878 L 1955.481 1898.878 C 1951.962 1898.387 1949.364 1897.504 1945.746 1897.092 C 1940.268 1896.483 1937.749 1898.426 1937.25 1898.878 L 1937.15 1898.956 L 1892.512 1898.956 C 1891.392 1897.582 1892.472 1894.344 1893.531 1891.969 C 1894.231 1890.359 1895.79 1889.142 1897.709 1888.651 C 1902.447 1887.473 1911.762 1886.413 1920.318 1879.681 C 1925.116 1875.912 1943.527 1865.823 1943.527 1865.823 L 1943.627 1865.803 C 1944.026 1865.803 1945.945 1866.313 1954.321 1872.457 C 1958.659 1875.618 1966.036 1867.982 1966.036 1867.982 C 1966.036 1867.982 1967.415 1868.983 1968.454 1870.828 C 1969.274 1872.3 1969.894 1874.302 1969.414 1876.776 C 1968.734 1880.27 1970.893 1886.767 1972.612 1891.164 C 1973.652 1893.814 1974.531 1895.698 1974.531 1895.698 C 1974.531 1895.698 1975.031 1897.896 1965.996 1898.878 Z " fill="rgb(128,180,255)"/><path d=" M 1968.454 1870.828 C 1965.936 1872.359 1960.638 1875.382 1957.14 1875.794 C 1952.402 1876.324 1943.527 1865.823 1943.527 1865.823 L 1943.627 1865.803 C 1944.026 1865.803 1945.945 1866.313 1954.321 1872.457 C 1958.659 1875.618 1966.036 1867.982 1966.036 1867.982 C 1966.036 1867.982 1967.415 1868.983 1968.454 1870.828 Z " fill="rgb(44,44,44)"/><path d=" M 1965.996 1898.878 L 1955.481 1898.878 C 1951.962 1898.387 1949.364 1897.504 1945.746 1897.092 C 1940.268 1896.483 1937.749 1898.426 1937.25 1898.878 L 1937.15 1898.956 L 1892.512 1898.956 C 1891.392 1897.582 1892.472 1894.344 1893.531 1891.969 C 1894.87 1890.928 1895.27 1896.522 1896.01 1897.406 C 1896.769 1898.309 1932.432 1897.739 1934.491 1896.444 C 1936.55 1895.129 1942.727 1892.852 1951.323 1894.638 C 1958.839 1896.208 1969.874 1892.224 1972.612 1891.164 C 1973.652 1893.814 1974.531 1895.698 1974.531 1895.698 C 1974.531 1895.698 1975.031 1897.896 1965.996 1898.878 Z " fill="rgb(44,44,44)"/><path d=" M 2052.393 1569.837 C 2052.393 1569.837 2019.05 1583.244 1967.295 1574.587 C 1957.82 1572.997 1947.745 1570.681 1937.15 1567.423 L 1943.826 1449.433 L 1947.045 1392.803 C 1947.045 1392.803 1964.896 1387.444 1973.552 1386.914 C 1973.552 1386.914 2009.794 1391.174 2023.847 1387.523 C 2023.847 1387.523 2040.819 1394.55 2047.436 1403.658 C 2054.073 1412.766 2064.767 1499.035 2052.393 1569.837 Z " fill="rgb(76,75,115)"/><path d=" M 1966.935 1574.646 C 1957.5 1572.801 1947.745 1571.191 1937.15 1567.423 L 1944.166 1431.727 L 1965.316 1429.018 C 1965.316 1429.018 1983.527 1517.035 1966.935 1574.646 Z " fill="rgb(58,58,91)"/><path d=" M 1976.391 1440.835 C 1972.452 1449.943 1947.305 1447.47 1928.054 1434.495 C 1926.375 1433.396 1924.696 1432.297 1922.857 1431.178 C 1904.046 1419.597 1879.598 1408.84 1865.265 1399.045 C 1851.791 1389.937 1837.598 1352.014 1828.043 1335.741 C 1827.203 1334.23 1826.364 1332.836 1825.524 1331.737 C 1814.27 1328.282 1814.989 1316.839 1804.455 1313.109 C 1791.941 1308.85 1795.599 1301.94 1795.599 1301.94 C 1795.599 1301.94 1804.734 1298.211 1815.549 1299.33 C 1819.607 1299.879 1827.483 1311.048 1831.981 1318.075 C 1835.06 1320.431 1838.858 1323.316 1842.796 1326.496 C 1858.808 1340.158 1878.898 1360.023 1886.335 1369.248 C 1892.092 1376.295 1920.478 1383.872 1941.268 1391.606 C 1949.424 1394.766 1956.44 1397.946 1960.378 1401.126 C 1985.366 1421.265 1976.391 1440.835 1976.391 1440.835 Z " fill="rgb(244,179,164)"/><path d=" M 1976.391 1440.835 C 1972.452 1449.943 1947.305 1447.47 1928.054 1434.495 C 1926.375 1433.396 1924.696 1432.297 1922.857 1431.197 C 1942.667 1416.711 1942.247 1398.495 1941.268 1391.606 C 1949.424 1394.766 1956.44 1397.946 1960.378 1401.126 C 1985.386 1421.265 1976.391 1440.835 1976.391 1440.835 Z " fill="rgb(76,75,115)"/><path d=" M 1922.717 1330.501 C 1921.038 1335.054 1916.82 1340.295 1907.544 1343.043 C 1905.165 1338.352 1902.926 1334.367 1901.087 1331.737 C 1889.713 1328.42 1890.413 1316.839 1879.878 1313.109 C 1867.384 1308.85 1871.162 1301.94 1871.162 1301.94 C 1871.162 1301.94 1880.158 1298.211 1891.112 1299.33 C 1895.05 1299.879 1902.926 1311.048 1907.544 1318.075 C 1911.902 1321.255 1917.1 1325.534 1922.717 1330.501 Z " fill="rgb(76,75,115)"/><path d=" M 1891.232 1322.531 C 1885.895 1326.594 1871.582 1340.806 1871.582 1340.806 L 1838.638 1298.976 C 1838.638 1298.976 1855.47 1288.514 1861.107 1284.274 C 1866.224 1280.447 1881.237 1266.608 1881.237 1266.608 L 1914.201 1308.438 C 1914.201 1308.438 1896.59 1318.468 1891.232 1322.531 Z " fill="rgb(182,100,121)"/><path d=" M 1891.232 1322.531 C 1885.895 1326.594 1871.582 1340.806 1871.582 1340.806 L 1848.373 1311.343 C 1848.373 1311.343 1865.225 1300.88 1870.862 1296.66 C 1875.96 1292.813 1890.992 1278.974 1890.992 1278.974 L 1914.201 1308.438 C 1914.201 1308.438 1896.59 1318.468 1891.232 1322.531 Z " fill="rgb(155,82,101)"/><path d=" M 1914.201 1308.438 L 1881.237 1266.608 L 1884.655 1264.017 L 1917.599 1305.846 L 1914.201 1308.438 Z " fill="rgb(182,100,121)"/><path d=" M 1868.183 1343.397 L 1835.22 1301.567 L 1838.618 1298.976 L 1871.582 1340.806 L 1868.183 1343.397 Z " fill="rgb(182,100,121)"/><path d=" M 1794.799 1348.461 L 1777.268 1334.407 C 1771.911 1330.128 1771.091 1322.296 1775.469 1317.035 L 1809.972 1275.539 C 1814.45 1270.141 1821.027 1267.334 1827.643 1267.334 C 1829.682 1267.334 1831.741 1267.609 1833.72 1268.139 C 1833.96 1268.198 1834.2 1268.237 1834.44 1268.237 C 1835.32 1268.237 1836.159 1267.825 1836.639 1267.06 C 1836.819 1266.785 1836.999 1266.51 1837.219 1266.255 L 1839.078 1264.037 L 1852.111 1274.479 L 1845.595 1269.258 L 1843.735 1271.476 C 1843.516 1271.731 1843.336 1272.006 1843.156 1272.281 C 1842.776 1272.889 1842.156 1273.282 1841.477 1273.4 C 1841.297 1273.439 1841.137 1273.459 1840.957 1273.459 C 1840.717 1273.459 1840.477 1273.419 1840.237 1273.361 C 1838.258 1272.831 1836.199 1272.556 1834.16 1272.556 C 1827.543 1272.556 1820.967 1275.363 1816.489 1280.761 L 1800.017 1300.566 C 1797.258 1301.273 1795.599 1301.94 1795.599 1301.94 C 1795.599 1301.94 1794.619 1303.766 1795.399 1306.121 L 1781.986 1322.256 C 1780.087 1324.553 1779.167 1327.301 1779.167 1330.049 C 1779.167 1333.641 1780.746 1337.194 1783.785 1339.628 L 1783.785 1339.628 L 1794.799 1348.461 Z " fill="rgb(156,174,212)"/><path d=" M 1795.399 1306.121 C 1794.619 1303.766 1795.599 1301.94 1795.599 1301.94 C 1795.599 1301.94 1797.258 1301.273 1800.017 1300.566 L 1795.399 1306.121 Z " fill="rgb(209,195,210)"/><path d=" M 1802.296 1351.091 C 1799.657 1351.091 1796.998 1350.228 1794.799 1348.461 L 1794.799 1348.461 L 1783.785 1339.628 L 1787.563 1342.671 C 1789.762 1344.437 1792.421 1345.281 1795.079 1345.281 C 1798.538 1345.281 1801.956 1343.829 1804.295 1341.002 L 1817.008 1325.731 C 1818.828 1328.027 1821.027 1330.069 1824.385 1331.345 L 1811.531 1346.793 C 1809.192 1349.619 1805.754 1351.091 1802.296 1351.091 Z  M 1834.08 1319.685 C 1833.34 1319.116 1832.641 1318.586 1831.981 1318.075 C 1830.862 1316.348 1829.542 1314.346 1828.143 1312.324 L 1836.139 1302.706 L 1841.996 1310.145 L 1834.08 1319.685 Z  M 1844.795 1306.789 L 1838.938 1299.349 L 1838.938 1299.349 L 1844.795 1306.789 L 1844.795 1306.789 Z  M 1800.017 1300.566 L 1816.489 1280.761 C 1820.967 1275.363 1827.543 1272.556 1834.16 1272.556 C 1836.199 1272.556 1838.258 1272.831 1840.237 1273.361 C 1840.477 1273.419 1840.717 1273.459 1840.957 1273.459 C 1841.137 1273.459 1841.297 1273.439 1841.477 1273.4 C 1842.156 1273.282 1842.776 1272.889 1843.156 1272.281 C 1843.336 1272.006 1843.516 1271.731 1843.735 1271.476 L 1845.595 1269.258 L 1852.111 1274.479 L 1850.252 1276.697 C 1850.012 1276.992 1849.752 1277.247 1849.473 1277.502 C 1848.973 1277.954 1848.693 1278.582 1848.693 1279.21 C 1848.693 1279.544 1848.773 1279.877 1848.933 1280.191 C 1850.672 1283.45 1851.552 1287.062 1851.552 1290.693 C 1851.552 1290.713 1851.552 1290.752 1851.552 1290.771 C 1846.874 1293.814 1842.036 1296.837 1839.837 1298.211 C 1845.195 1291.164 1845.674 1281.84 1841.716 1274.401 C 1841.536 1274.087 1841.457 1273.753 1841.477 1273.4 C 1841.297 1273.439 1841.137 1273.459 1840.957 1273.459 C 1840.717 1273.459 1840.477 1273.419 1840.237 1273.361 C 1838.258 1272.831 1836.199 1272.556 1834.16 1272.556 C 1827.543 1272.556 1820.967 1275.363 1816.489 1280.761 L 1800.017 1300.566 L 1800.017 1300.566 Z " fill="rgb(171,185,219)"/><path d=" M 1824.385 1331.345 C 1821.027 1330.069 1818.828 1328.027 1817.008 1325.731 L 1828.143 1312.324 C 1829.542 1314.346 1830.862 1316.348 1831.981 1318.075 C 1832.641 1318.586 1833.34 1319.116 1834.08 1319.685 L 1824.385 1331.345 Z " fill="rgb(208,200,217)"/><path d=" M 1844.795 1306.789 L 1838.938 1299.349 L 1839.218 1298.996 C 1839.438 1298.741 1839.637 1298.486 1839.837 1298.211 C 1842.036 1296.837 1846.874 1293.814 1851.552 1290.771 C 1851.532 1295.718 1849.872 1300.684 1846.454 1304.787 L 1844.795 1306.789 Z " fill="rgb(186,173,202)"/><path d=" M 1841.996 1310.145 L 1836.139 1302.706 L 1838.938 1299.349 L 1844.795 1306.789 L 1841.996 1310.145 Z " fill="rgb(186,173,202)"/><path d=" M 1795.079 1345.281 C 1792.421 1345.281 1789.762 1344.437 1787.563 1342.671 L 1783.785 1339.628 C 1780.746 1337.194 1779.167 1333.641 1779.167 1330.049 C 1779.167 1327.301 1780.087 1324.553 1781.986 1322.256 L 1795.399 1306.121 C 1796.119 1308.359 1798.378 1311.048 1804.455 1313.109 C 1811.231 1315.524 1813.35 1321.118 1817.008 1325.731 L 1804.295 1341.002 C 1801.956 1343.829 1798.538 1345.281 1795.079 1345.281 Z  M 1828.143 1312.324 C 1823.825 1306.18 1818.608 1299.742 1815.549 1299.33 C 1814.15 1299.173 1812.791 1299.114 1811.451 1299.114 C 1806.913 1299.114 1802.875 1299.86 1800.017 1300.566 L 1816.489 1280.761 C 1820.967 1275.363 1827.543 1272.556 1834.16 1272.556 C 1836.199 1272.556 1838.258 1272.831 1840.237 1273.361 C 1840.477 1273.419 1840.717 1273.459 1840.957 1273.459 C 1841.137 1273.459 1841.297 1273.439 1841.477 1273.4 C 1841.457 1273.753 1841.536 1274.087 1841.716 1274.401 C 1845.674 1281.84 1845.195 1291.164 1839.837 1298.211 C 1839.078 1298.702 1838.638 1298.976 1838.638 1298.976 L 1838.938 1299.349 L 1838.938 1299.349 L 1838.618 1298.976 L 1835.22 1301.567 L 1836.139 1302.706 L 1828.143 1312.324 Z " fill="rgb(182,193,224)"/><path d=" M 1817.008 1325.731 C 1813.35 1321.118 1811.231 1315.524 1804.455 1313.109 C 1798.378 1311.048 1796.119 1308.359 1795.399 1306.121 L 1800.017 1300.566 C 1802.875 1299.86 1806.913 1299.114 1811.451 1299.114 C 1812.791 1299.114 1814.15 1299.173 1815.549 1299.33 C 1818.608 1299.742 1823.825 1306.18 1828.143 1312.324 L 1817.008 1325.731 Z " fill="rgb(207,204,222)"/><path d=" M 1838.938 1299.349 L 1838.638 1298.976 C 1838.638 1298.976 1839.078 1298.702 1839.837 1298.211 C 1839.637 1298.486 1839.438 1298.741 1839.218 1298.996 L 1838.938 1299.349 Z " fill="rgb(192,185,212)"/><path d=" M 1836.139 1302.706 L 1835.22 1301.567 L 1838.618 1298.976 L 1838.938 1299.349 L 1836.139 1302.706 Z " fill="rgb(192,185,212)"/><path d=" M 1806.973 1279.131 L 1786.463 1303.805 L 1822.966 1333.052 L 1843.456 1308.379 L 1806.973 1279.131 Z " fill="rgb(252,186,100)"/><path d=" M 1841.257 1259.915 L 1838.478 1263.291 L 1852.991 1274.872 L 1855.77 1271.496 L 1841.257 1259.915 Z " fill="rgb(44,44,44)"/><path d=" M 1842.796 1326.496 C 1840.257 1330.226 1835.779 1333.523 1828.043 1335.741 C 1827.203 1334.23 1826.364 1332.836 1825.524 1331.737 C 1814.27 1328.282 1814.989 1316.839 1804.455 1313.109 C 1791.941 1308.85 1795.599 1301.94 1795.599 1301.94 C 1795.599 1301.94 1804.734 1298.211 1815.549 1299.33 C 1819.607 1299.879 1827.483 1311.048 1831.981 1318.075 C 1835.06 1320.431 1838.858 1323.316 1842.796 1326.496 Z " fill="rgb(76,75,115)"/><path d=" M 1685.833 1290.398 C 1680.555 1290.398 1576.956 1285.236 1576.956 1285.236 L 1648.951 1360.631 L 1806.973 1393.667 L 1685.833 1290.398 Z " fill="rgb(229,28,66)"/><path d=" M 1757.498 1386.895 C 1754.059 1397.2 1748.002 1429.274 1748.002 1429.274 L 1664.423 1402.421 C 1664.423 1402.421 1677.437 1373.135 1681.095 1362.339 C 1684.413 1352.544 1691.79 1320.352 1691.79 1320.352 L 1775.369 1347.205 C 1775.369 1347.205 1760.936 1376.57 1757.498 1386.895 Z " fill="rgb(255,209,134)"/><path d=" M 1757.498 1386.895 C 1754.059 1397.2 1748.002 1429.274 1748.002 1429.274 L 1689.131 1410.351 C 1689.131 1410.351 1702.145 1381.065 1705.803 1370.289 C 1709.121 1360.494 1716.498 1328.282 1716.498 1328.282 L 1775.369 1347.205 C 1775.369 1347.205 1760.936 1376.57 1757.498 1386.895 Z " fill="rgb(252,186,100)"/><path d=" M 1693.969 1313.777 L 1691.77 1320.352 L 1775.369 1347.205 L 1777.548 1340.629 L 1693.969 1313.777 Z " fill="rgb(252,186,100)"/><path d=" M 1664.423 1402.421 L 1662.244 1408.977 L 1745.823 1435.849 L 1748.002 1429.274 L 1664.423 1402.421 Z " fill="rgb(220,141,57)"/><path d=" M 1773.31 1363.85 L 1803.495 1409.272 C 1807.053 1414.65 1805.494 1421.932 1800.017 1425.426 L 1781.066 1437.577 C 1775.269 1441.287 1767.433 1439.677 1763.675 1433.985 L 1733.869 1389.113 C 1728.792 1381.477 1729.111 1371.859 1733.889 1364.635 C 1734.509 1363.693 1734.489 1362.437 1733.729 1361.593 C 1733.509 1361.338 1733.309 1361.063 1733.11 1360.788 L 1731.53 1358.393 L 1745.603 1349.364 L 1747.203 1351.759 C 1747.423 1352.073 1747.602 1352.406 1747.742 1352.74 C 1748.182 1353.682 1749.182 1354.232 1750.201 1354.055 C 1758.937 1352.564 1768.192 1356.136 1773.31 1363.85 Z " fill="rgb(236,242,253)"/><path d=" M 1773.31 1363.85 L 1803.495 1409.272 C 1807.053 1414.65 1805.494 1421.932 1800.017 1425.426 L 1788.103 1433.062 C 1782.325 1436.772 1774.489 1435.162 1770.711 1429.47 L 1740.906 1384.598 C 1735.828 1376.962 1736.148 1367.344 1740.926 1360.14 C 1741.166 1359.787 1741.306 1359.394 1741.345 1359.002 C 1741.445 1358.315 1741.246 1357.608 1740.766 1357.078 C 1740.546 1356.823 1740.346 1356.568 1740.166 1356.273 L 1738.567 1353.879 L 1745.603 1349.364 L 1747.203 1351.759 C 1747.423 1352.073 1747.602 1352.406 1747.742 1352.74 C 1748.182 1353.682 1749.182 1354.232 1750.201 1354.055 C 1758.937 1352.564 1768.192 1356.136 1773.31 1363.85 Z " fill="rgb(229,234,245)"/><path d=" M 1789.302 1432.316 L 1792.341 1430.353 C 1792.301 1430.393 1792.261 1430.412 1792.221 1430.432 L 1789.302 1432.316 Z " fill="rgb(159,160,189)"/><path d=" M 1781.266 1435.064 C 1777.168 1435.064 1773.11 1433.082 1770.711 1429.47 L 1740.906 1384.598 C 1738.407 1380.849 1737.227 1376.609 1737.227 1372.408 C 1737.227 1376.609 1738.407 1380.849 1740.906 1384.598 L 1770.711 1429.47 C 1773.11 1433.082 1777.168 1435.064 1781.266 1435.064 C 1783.625 1435.064 1786.004 1434.416 1788.103 1433.062 L 1792.361 1430.353 C 1792.361 1430.353 1792.361 1430.353 1792.341 1430.353 L 1789.302 1432.316 L 1788.103 1433.062 C 1786.004 1434.416 1783.625 1435.064 1781.266 1435.064 Z " fill="rgb(227,233,247)"/><path d=" M 1781.266 1435.064 C 1777.168 1435.064 1773.11 1433.082 1770.711 1429.47 L 1740.906 1384.598 C 1738.407 1380.849 1737.227 1376.609 1737.227 1372.408 C 1737.227 1368.07 1738.507 1363.791 1740.926 1360.14 C 1741.166 1359.787 1741.306 1359.394 1741.345 1359.002 C 1741.565 1359.061 1741.785 1359.1 1742.025 1359.1 C 1742.145 1359.1 1742.265 1359.08 1742.385 1359.061 C 1743.704 1358.845 1745.024 1358.727 1746.343 1358.727 C 1753.819 1358.727 1761.136 1362.3 1765.494 1368.856 L 1795.679 1414.277 C 1799.217 1419.616 1797.718 1426.8 1792.361 1430.353 L 1788.103 1433.062 C 1786.004 1434.416 1783.625 1435.064 1781.266 1435.064 Z " fill="rgb(222,227,242)"/><path d=" M 1775.889 1367.737 L 1736.448 1393.019 L 1754.159 1419.675 L 1793.6 1394.413 L 1775.889 1367.737 Z " fill="rgb(128,180,255)"/><path d=" M 1743.844 1345.026 L 1728.192 1355.096 L 1730.631 1358.727 L 1746.263 1348.657 L 1743.844 1345.026 Z " fill="rgb(128,180,255)"/><path d=" M 1669.321 1344.633 L 1680.515 1397.73 C 1681.855 1404.011 1677.697 1410.234 1671.28 1411.529 L 1649.111 1416.044 C 1642.354 1417.418 1635.657 1413.099 1634.258 1406.465 L 1623.201 1353.996 C 1621.316 1345.065 1625.202 1336.232 1632.319 1331.227 C 1633.258 1330.559 1633.698 1329.382 1633.318 1328.322 C 1633.198 1328.008 1633.118 1327.694 1633.038 1327.36 L 1632.459 1324.553 L 1648.931 1321.216 L 1649.51 1324.003 C 1649.59 1324.376 1649.63 1324.749 1649.67 1325.103 C 1649.71 1326.143 1650.43 1327.026 1651.449 1327.222 C 1660.145 1328.95 1667.422 1335.604 1669.321 1344.633 Z " fill="rgb(236,242,253)"/><path d=" M 1669.321 1344.633 L 1680.515 1397.73 C 1681.855 1404.011 1677.697 1410.234 1671.28 1411.529 L 1657.347 1414.375 C 1650.59 1415.749 1643.893 1411.431 1642.494 1404.777 L 1631.439 1352.328 C 1629.56 1343.397 1633.438 1334.544 1640.555 1329.558 C 1640.915 1329.303 1641.194 1328.989 1641.374 1328.636 C 1641.714 1328.047 1641.794 1327.321 1641.554 1326.653 C 1641.434 1326.339 1641.354 1326.025 1641.274 1325.691 L 1640.695 1322.884 L 1648.931 1321.216 L 1649.51 1324.003 C 1649.59 1324.376 1649.63 1324.749 1649.67 1325.103 C 1649.71 1326.143 1650.43 1327.026 1651.449 1327.222 C 1660.145 1328.95 1667.422 1335.604 1669.321 1344.633 Z " fill="rgb(229,234,245)"/><path d=" M 1654.828 1414.63 C 1648.991 1414.63 1643.713 1410.587 1642.494 1404.777 L 1631.439 1352.328 C 1631.119 1350.817 1630.959 1349.325 1630.959 1347.853 C 1630.939 1340.531 1634.638 1333.72 1640.555 1329.558 C 1640.915 1329.303 1641.194 1328.989 1641.374 1328.636 C 1641.634 1328.852 1641.954 1329.009 1642.314 1329.087 C 1651.01 1330.815 1658.286 1337.469 1660.185 1346.479 L 1671.38 1399.595 C 1672.719 1405.876 1668.561 1412.098 1662.144 1413.394 L 1657.347 1414.375 C 1656.507 1414.532 1655.667 1414.63 1654.828 1414.63 Z " fill="rgb(222,227,242)"/><path d=" M 1670.28 1349.168 L 1624.163 1358.55 L 1630.74 1389.721 L 1676.857 1380.339 L 1670.28 1349.168 Z " fill="rgb(155,82,101)"/><path d=" M 1648.891 1316.525 L 1630.58 1320.293 L 1631.479 1324.553 L 1649.79 1320.784 L 1648.891 1316.525 Z " fill="rgb(252,186,100)"/><path d=" M 1861.207 1694.991 L 1843.356 1806.445 L 1838.158 1838.578 L 1827.903 1903 L 1689.111 1903 C 1689.111 1903 1670.86 1891.969 1647.112 1877.482 C 1606.659 1852.514 1550.749 1817.751 1545.131 1811.548 C 1541.477 1807.544 1535.156 1777.473 1528.975 1743.534 C 1520.266 1695.129 1511.838 1638.578 1511.838 1638.578 L 1562.691 1545.32 L 1518.862 1442.288 L 1576.736 1285.236 L 1648.651 1360.631 L 1806.833 1393.608 L 1861.207 1694.991 Z " fill="rgb(255,77,103)"/><path d=" M 1654.868 1674.479 L 1639.075 1762.397 L 1757.598 1681.369 L 1654.868 1674.479 Z " fill="rgb(255,41,72)"/><path d=" M 1843.136 1806.445 L 1827.683 1903 L 1688.891 1903 C 1688.891 1903 1670.64 1891.969 1646.892 1877.482 L 1635.377 1844.231 L 1768.832 1784.794 L 1784.844 1783.95 L 1843.136 1806.445 Z " fill="rgb(255,41,72)"/><path d=" M 1861.207 1694.991 L 1843.356 1806.445 L 1838.158 1838.578 C 1829.163 1834.161 1766.513 1802.441 1769.052 1784.794 C 1771.711 1765.891 1861.207 1694.991 1861.207 1694.991 Z " fill="rgb(229,28,66)"/><path d=" M 1545.131 1811.548 C 1545.131 1811.548 1629.42 1836.536 1635.557 1844.309 C 1641.714 1852.063 1659.266 1884.824 1659.266 1884.824 L 1545.131 1811.548 Z " fill="rgb(229,28,66)"/><path d=" M 1639.075 1762.397 L 1635.557 1844.309 L 1769.052 1784.794 L 1861.207 1694.991 L 1776.908 1585.678 L 1736.528 1690.85 L 1639.075 1762.397 Z " fill="rgb(255,41,72)"/><path d=" M 1654.868 1674.479 C 1654.868 1674.479 1721.595 1655.498 1727.752 1646.881 C 1733.889 1638.264 1776.908 1585.678 1776.908 1585.678 C 1776.908 1585.678 1765.494 1671.024 1757.598 1681.369 C 1749.701 1691.713 1654.868 1674.479 1654.868 1674.479 Z " fill="rgb(229,28,66)"/><path d=" M 1600.197 1612.648 L 1528.975 1743.534 C 1520.266 1695.129 1511.838 1638.578 1511.838 1638.578 L 1552.154 1591.959 L 1600.197 1612.648 Z " fill="rgb(255,41,72)"/><path d=" M 1600.197 1612.648 C 1600.197 1612.648 1561.567 1597.749 1511.838 1638.578 L 1562.691 1545.32 L 1600.197 1612.648 Z " fill="rgb(229,28,66)"/><path d=" M 1518.862 1442.288 L 1636.437 1472.457 L 1685.613 1546.027 L 1518.862 1442.288 Z " fill="rgb(229,28,66)"/><path d=" M 1445.188 884.592 C 1445.094 882.109 1443.137 855.343 1401.62 853.946 C 1401.62 853.946 1422.036 856.334 1425.564 865.148 C 1425.564 865.148 1411.663 854.258 1400.34 857.762 C 1389.02 861.263 1382.371 880.739 1382.305 887.144 C 1382.237 893.551 1388.526 914.201 1395.713 915.958 C 1398.433 916.623 1401.568 916.444 1404.414 915.967 C 1402.503 918.898 1400.63 922.133 1398.839 925.743 C 1382.271 959.136 1399.355 991.771 1413.382 988.165 C 1422.377 985.853 1424.922 1000.924 1424.922 1000.924 L 1512.309 931.455 C 1512.309 931.455 1480.211 866.237 1445.188 884.592 Z " fill="rgb(44,44,44)"/><path d=" M 1689.251 1270.397 C 1685.033 1266.255 1659.625 1267.217 1659.625 1267.217 C 1659.625 1267.217 1645.572 1261.701 1628.281 1254.261 C 1604.271 1243.78 1574.067 1229.706 1567.467 1222.541 C 1552.154 1205.837 1533.751 1149.841 1516.473 1112.876 C 1514.928 1109.427 1513.383 1106.117 1511.838 1102.943 C 1511.698 1102.669 1511.556 1102.254 1511.276 1101.978 C 1510.432 1100.46 1509.731 1099.082 1509.029 1097.84 L 1508.747 1097.426 C 1505.517 1091.356 1502.146 1086.53 1499.054 1083.356 L 1499.054 1083.218 C 1495.262 1079.22 1491.61 1077.563 1488.239 1078.943 C 1488.239 1078.943 1481.636 1082.254 1474.894 1090.116 C 1474.05 1090.807 1473.488 1091.631 1472.927 1092.462 C 1468.855 1097.565 1464.919 1104.323 1462.532 1112.876 C 1460.705 1119.359 1459.721 1126.806 1460.143 1135.498 C 1460.705 1149.704 1467.869 1167.497 1478.124 1185.43 C 1478.546 1186.267 1478.966 1187.091 1479.53 1187.915 C 1499.194 1221.717 1529.397 1255.498 1547.8 1266.53 C 1559.88 1273.851 1590.221 1278.268 1615.789 1280.741 C 1632.779 1282.527 1647.811 1283.371 1653.988 1283.784 C 1656.667 1286.669 1676.057 1308.477 1683.354 1302.117 C 1691.37 1295.365 1693.469 1274.538 1689.251 1270.397 Z " fill="rgb(233,140,148)"/><path d=" M 1481.816 1171.553 C 1480.119 1180.798 1477.319 1188.72 1473.946 1196.219 C 1471.138 1202.5 1467.933 1208.467 1464.637 1214.67 C 1454.974 1232.944 1433.532 1241.326 1431.453 1277.07 C 1430.741 1289.378 1432.321 1304.944 1437.476 1325.26 C 1462.854 1425.407 1262.372 1340.079 1273.708 1314.15 C 1296.245 1262.604 1326.736 1233.435 1327.764 1190.33 L 1327.742 1189.996 C 1327.638 1187.915 1327.562 1182.309 1327.52 1174.905 C 1327.414 1156.796 1327.478 1127.919 1327.658 1113.308 C 1327.658 1112.964 1327.67 1112.632 1327.67 1112.308 C 1327.754 1106.049 1327.732 1101.52 1327.53 1100.321 C 1343.98 1041.569 1376.634 1042.516 1387.768 1043.11 C 1391.894 1043.328 1396.22 1043.756 1399.773 1044.182 C 1406.923 1040.527 1419.733 1022.741 1427.157 992.99 L 1429.66 994.146 L 1471.761 1013.579 C 1471.761 1013.579 1467.286 1027.022 1463.989 1039.903 C 1461.41 1049.973 1459.567 1059.699 1461.115 1062.427 C 1464.433 1063.75 1466.418 1064.583 1466.418 1064.583 L 1466.428 1064.624 C 1467.116 1066.322 1490.448 1124.659 1481.816 1171.553 Z " fill="rgb(244,179,164)"/><path d=" M 1473.946 1196.219 C 1471.138 1202.5 1467.933 1208.467 1464.637 1214.67 C 1454.974 1232.944 1433.532 1241.326 1431.453 1277.07 C 1430.805 1277.11 1430.148 1277.149 1429.48 1277.169 C 1351 1280.309 1327.742 1189.996 1327.742 1189.996 C 1327.638 1187.915 1327.562 1182.309 1327.52 1174.905 L 1468.719 1180.329 C 1468.719 1180.329 1471.391 1186.718 1473.946 1196.219 Z " fill="rgb(233,140,148)"/><path d=" M 1475.611 1870.926 L 1460.203 1878.817 C 1460.203 1878.817 1376.432 1765.342 1366.505 1668.747 C 1364.734 1651.494 1365.317 1634.789 1369.145 1619.361 C 1369.145 1619.361 1367.47 1609.821 1364.66 1594.059 C 1362.051 1579.298 1358.445 1559.12 1354.321 1536.154 C 1344.827 1483.293 1332.547 1415.69 1322.992 1366.009 L 1327.998 1364.439 L 1435.419 1330.402 C 1435.419 1330.402 1470.076 1429.548 1450.648 1579.396 C 1448.803 1593.588 1446.468 1608.231 1443.583 1623.306 C 1441.462 1634.338 1441.144 1649.393 1442.026 1666.667 C 1446.098 1745.634 1475.611 1870.926 1475.611 1870.926 Z " fill="rgb(244,179,164)"/><path d=" M 1366.973 1607.073 C 1425.216 1444.211 1416.614 1401.616 1416.614 1401.616 L 1345.889 1423.346 C 1354.902 1499.565 1351.708 1518.075 1364.798 1594.825 L 1366.973 1607.073 Z " fill="rgb(233,140,148)"/><path d=" M 1452.379 1401.616 C 1452.537 1403.285 1452.499 1405.954 1450.792 1405.915 C 1445.426 1405.797 1430.863 1405.366 1416.62 1406.798 C 1411.965 1407.27 1407.033 1407.898 1401.953 1408.722 C 1395.239 1409.841 1372.408 1411.804 1364.146 1412.471 C 1362.247 1412.628 1361.123 1412.726 1361.123 1412.726 L 1393.288 1312.403 L 1433.588 1301.999 C 1433.588 1301.999 1444.297 1318.664 1452.379 1401.616 Z " fill="rgb(76,75,115)"/><path d=" M 1416.62 1406.798 C 1411.965 1407.27 1407.033 1407.898 1401.953 1408.722 C 1395.239 1409.841 1372.408 1411.804 1364.146 1412.471 L 1400.702 1362.908 C 1408.794 1375.274 1416.748 1391.39 1416.62 1406.798 Z " fill="rgb(58,58,91)"/><path d=" M 1403.485 1331.502 C 1403.485 1331.502 1399.625 1366.657 1392.658 1414.375 C 1384.852 1467.884 1373.122 1537.233 1358.551 1590.526 C 1350.84 1618.713 1342.347 1642.405 1333.193 1656.911 C 1330.055 1661.897 1326.63 1670.22 1323.056 1680.819 C 1302.004 1743.338 1276.095 1884.804 1276.095 1884.804 L 1264.281 1889.495 C 1264.281 1889.495 1218.753 1762.358 1258.204 1659.129 C 1262.224 1648.628 1267.123 1638.362 1273.04 1628.488 C 1273.72 1627.35 1274.186 1626.113 1274.028 1624.798 L 1274.016 1624.759 C 1273.498 1620.46 1272.225 1609.684 1270.772 1594.55 C 1266.754 1552.799 1261.322 1477.875 1266.202 1414.238 C 1266.508 1410.253 1266.848 1406.327 1267.241 1402.46 C 1270.752 1367.423 1277.772 1336.86 1290.422 1318.743 L 1403.485 1331.502 Z " fill="rgb(244,179,164)"/><path d=" M 1335.666 1403.363 C 1335.666 1403.363 1335.368 1406.72 1334.72 1412.628 C 1331.466 1442.582 1319.366 1538.038 1292.141 1595.629 C 1286.712 1607.112 1280.687 1617.104 1274.016 1624.759 C 1273.498 1620.46 1272.225 1609.684 1270.772 1594.55 C 1266.754 1552.799 1261.322 1477.875 1266.202 1414.238 C 1266.508 1410.253 1266.848 1406.327 1267.241 1402.46 L 1335.666 1403.363 Z " fill="rgb(233,140,148)"/><path d=" M 1413.97 1306.848 L 1415.995 1323.905 L 1394.349 1414.454 C 1394.083 1414.395 1293.245 1409.959 1264.611 1414.454 C 1254.671 1416.024 1262.903 1411.725 1260.796 1378.513 C 1256.481 1310.499 1289.357 1282.115 1289.357 1282.115 C 1289.357 1282.115 1380.03 1315.7 1413.97 1306.848 Z " fill="rgb(76,75,115)"/><path d=" M 1471.765 1013.58 C 1471.765 1013.58 1467.289 1027.02 1463.991 1039.905 C 1439.385 1033.164 1431.913 1007.764 1429.664 994.148 L 1471.765 1013.58 Z " fill="rgb(233,140,148)"/><path d=" M 1516.619 1112.815 C 1514.498 1106.567 1500.321 1082.286 1500.321 1082.286 C 1500.321 1082.286 1491.394 1074.205 1466.418 1064.583 L 1466.428 1064.624 C 1466.83 1066.061 1477.447 1103.842 1473.574 1111.902 C 1469.63 1120.109 1395.055 1093.626 1390.983 1087.586 C 1387.716 1082.745 1387.62 1057.106 1387.716 1047.109 C 1387.736 1044.63 1387.768 1043.11 1387.768 1043.11 C 1387.768 1043.11 1359.918 1039.402 1344.276 1045.631 C 1344.276 1045.631 1350.449 1058.804 1352.73 1073.351 C 1352.941 1074.725 1353.121 1076.111 1353.259 1077.496 C 1353.555 1080.433 1353.651 1083.367 1353.483 1086.222 C 1353.047 1093.48 1346.133 1099.135 1336.885 1105.758 C 1334.001 1107.821 1330.882 1109.975 1327.67 1112.308 C 1327.67 1112.632 1327.658 1112.964 1327.658 1113.308 C 1327.404 1133.896 1327.372 1182.788 1327.742 1189.996 L 1327.764 1190.33 C 1341.115 1190.192 1372.136 1190.546 1403.551 1195.551 C 1413.688 1197.161 1423.881 1199.281 1433.52 1202.029 C 1444.996 1205.267 1455.695 1209.409 1464.637 1214.67 C 1465.007 1214.886 1465.378 1215.102 1465.738 1215.337 C 1465.738 1215.337 1479.196 1189.27 1493.97 1158.015 C 1494.5 1156.878 1494.988 1155.753 1495.422 1154.621 C 1500.161 1142.282 1499.362 1129.598 1497.763 1118.242 C 1506.099 1112.424 1516.619 1112.815 1516.619 1112.815 Z " fill="rgb(129,227,165)"/><path d=" M 1476.949 1027.811 C 1476.949 1027.811 1418.074 1014.432 1427.123 978.558 C 1436.173 942.686 1434.669 916.8 1472.641 923.825 C 1510.612 930.85 1514.434 946.31 1514.38 959.004 C 1514.326 971.7 1492.495 1030.367 1476.949 1027.811 Z " fill="rgb(244,179,164)"/><path d=" M 1465.738 1215.337 C 1465.378 1215.102 1465.007 1214.886 1464.637 1214.67 C 1455.695 1209.409 1444.996 1205.267 1433.52 1202.029 C 1423.881 1199.281 1413.688 1197.161 1403.551 1195.551 C 1372.136 1190.546 1341.115 1190.192 1327.764 1190.33 L 1327.742 1189.996 C 1327.372 1182.788 1327.404 1133.896 1327.658 1113.308 C 1327.658 1112.964 1327.67 1112.632 1327.67 1112.308 C 1330.882 1109.975 1334.001 1107.821 1336.885 1105.758 C 1374.607 1125.491 1445.408 1167.594 1465.738 1215.337 Z " fill="rgb(93,215,130)"/><path d=" M 1517.691 938.637 C 1511.362 925.635 1503.914 926.33 1499.254 928.634 C 1471.589 903.501 1444.457 924.033 1444.457 924.033 C 1434.014 948.809 1411.379 958.929 1411.379 958.929 C 1411.379 958.929 1420.422 968.025 1446.638 967.823 C 1454.644 967.762 1462.694 964.153 1470.02 959.179 C 1455.891 973.153 1439.323 981.66 1439.323 981.66 C 1472.137 975.494 1494.142 938.191 1496.395 934.228 C 1499.176 938.26 1504.493 946.842 1504.941 954.085 C 1505.549 963.933 1502.098 983.055 1507.84 983.778 C 1507.84 983.778 1527.184 958.136 1517.691 938.637 Z " fill="rgb(44,44,44)"/><path d=" M 1254.751 1898.839 L 1267.471 1898.839 C 1271.733 1898.171 1274.88 1896.974 1279.249 1896.405 C 1285.886 1895.561 1288.943 1898.23 1289.548 1898.839 L 1289.666 1898.956 L 1343.704 1898.956 C 1345.063 1897.052 1343.758 1892.636 1342.481 1889.397 C 1341.619 1887.179 1339.742 1885.511 1337.421 1884.863 C 1331.69 1883.234 1320.393 1881.781 1310.048 1872.575 C 1304.229 1867.413 1281.942 1853.594 1281.942 1853.594 L 1281.826 1853.555 C 1281.334 1853.574 1279.006 1854.281 1268.869 1862.682 C 1263.629 1867.02 1254.697 1856.558 1254.697 1856.558 C 1254.697 1856.558 1253.02 1857.912 1251.769 1860.444 C 1250.761 1862.446 1250.028 1865.214 1250.609 1868.59 C 1251.415 1873.38 1248.812 1882.252 1246.737 1888.278 C 1245.476 1891.91 1244.416 1894.501 1244.416 1894.501 C 1244.416 1894.501 1243.809 1897.504 1254.751 1898.839 Z " fill="rgb(44,44,44)"/><path d=" M 1251.769 1860.444 C 1254.805 1862.545 1261.216 1866.686 1265.468 1867.236 C 1271.209 1867.982 1281.942 1853.594 1281.942 1853.594 L 1281.826 1853.555 C 1281.334 1853.574 1279.006 1854.281 1268.869 1862.682 C 1263.629 1867.02 1254.697 1856.558 1254.697 1856.558 C 1254.697 1856.558 1253.02 1857.912 1251.769 1860.444 Z " fill="rgb(255,41,72)"/><path d=" M 1254.751 1898.839 L 1267.471 1898.839 C 1271.733 1898.171 1274.88 1896.974 1279.249 1896.405 C 1285.886 1895.561 1288.943 1898.23 1289.548 1898.839 L 1289.666 1898.956 L 1343.704 1898.956 C 1345.063 1897.052 1343.758 1892.636 1342.481 1889.397 C 1340.839 1887.964 1340.378 1895.619 1339.47 1896.836 C 1338.562 1898.053 1295.388 1897.288 1292.895 1895.502 C 1290.402 1893.715 1282.922 1890.594 1272.495 1893.048 C 1263.421 1895.188 1250.048 1889.731 1246.737 1888.278 C 1245.476 1891.91 1244.416 1894.501 1244.416 1894.501 C 1244.416 1894.501 1243.809 1897.504 1254.751 1898.839 Z " fill="rgb(255,41,72)"/><path d=" M 1603.145 1302.667 C 1603.145 1302.667 1579.828 1286.257 1565.921 1289.437 C 1553.559 1292.185 1527.148 1286.669 1521.953 1285.57 C 1515.77 1282.252 1508.325 1278.268 1500.461 1273.851 C 1481.495 1263.369 1459.721 1250.532 1444.832 1239.913 C 1436.263 1233.847 1429.8 1228.469 1427.553 1224.602 C 1424.043 1218.674 1420.109 1209.291 1415.753 1197.71 C 1413.506 1191.645 1411.119 1185.014 1408.728 1177.979 C 1404.516 1166.394 1400.302 1153.841 1395.946 1141.291 C 1388.08 1118.393 1379.652 1095.357 1371.646 1077.563 C 1366.449 1066.39 1361.389 1057.149 1356.614 1051.494 C 1352.821 1046.942 1324.024 1051.08 1323.744 1091.08 C 1323.602 1093.29 1323.744 1095.634 1323.884 1098.115 C 1324.165 1105.15 1325.569 1113.704 1327.678 1123.083 C 1331.048 1138.808 1336.667 1157.014 1343.69 1175.498 C 1345.657 1180.464 1347.624 1185.568 1349.731 1190.664 C 1364.902 1227.645 1384.428 1262.133 1400.862 1273.851 C 1401.566 1274.401 1402.127 1274.813 1402.831 1275.225 C 1409.714 1279.504 1419.829 1283.784 1431.487 1287.768 C 1448.063 1293.304 1467.729 1298.27 1485.287 1302.392 L 1485.429 1302.392 C 1495.684 1304.61 1505.095 1306.671 1512.961 1308.202 C 1512.961 1308.202 1514.646 1308.614 1517.597 1309.164 C 1525.043 1310.95 1540.354 1314.817 1554.823 1320.333 C 1575.051 1328.184 1587.695 1315.229 1596.684 1311.5 C 1605.674 1307.927 1603.145 1302.667 1603.145 1302.667 Z " fill="rgb(244,179,164)"/><path d=" M 1444.984 1898.839 L 1457.702 1898.839 C 1461.964 1898.171 1465.111 1896.974 1469.482 1896.405 C 1476.117 1895.561 1479.174 1898.23 1479.779 1898.839 L 1479.899 1898.956 L 1533.935 1898.956 C 1535.294 1897.052 1533.991 1892.636 1532.712 1889.397 C 1531.85 1887.179 1529.973 1885.511 1527.654 1884.863 C 1521.923 1883.234 1510.624 1881.781 1500.281 1872.575 C 1494.46 1867.413 1472.175 1853.594 1472.175 1853.594 L 1472.057 1853.555 C 1471.567 1853.574 1469.237 1854.281 1459.1 1862.682 C 1453.86 1867.02 1444.928 1856.558 1444.928 1856.558 C 1444.928 1856.558 1443.251 1857.912 1442 1860.444 C 1440.994 1862.446 1440.259 1865.214 1440.84 1868.59 C 1441.648 1873.38 1439.045 1882.252 1436.968 1888.278 C 1435.709 1891.91 1434.647 1894.501 1434.647 1894.501 C 1434.647 1894.501 1434.04 1897.504 1444.984 1898.839 Z " fill="rgb(44,44,44)"/><path d=" M 1442 1860.444 C 1445.038 1862.545 1451.447 1866.686 1455.701 1867.236 C 1461.438 1867.982 1472.175 1853.594 1472.175 1853.594 L 1472.057 1853.555 C 1471.567 1853.574 1469.237 1854.281 1459.1 1862.682 C 1453.86 1867.02 1444.928 1856.558 1444.928 1856.558 C 1444.928 1856.558 1443.251 1857.912 1442 1860.444 Z " fill="rgb(255,41,72)"/><path d=" M 1444.984 1898.839 L 1457.702 1898.839 C 1461.964 1898.171 1465.111 1896.974 1469.482 1896.405 C 1476.117 1895.561 1479.174 1898.23 1479.779 1898.839 L 1479.899 1898.956 L 1533.935 1898.956 C 1535.294 1897.052 1533.991 1892.636 1532.712 1889.397 C 1531.07 1887.964 1530.609 1895.619 1529.701 1896.836 C 1528.793 1898.053 1485.621 1897.288 1483.128 1895.502 C 1480.633 1893.715 1473.153 1890.594 1462.728 1893.048 C 1453.65 1895.188 1440.279 1889.731 1436.968 1888.278 C 1435.709 1891.91 1434.647 1894.501 1434.647 1894.501 C 1434.647 1894.501 1434.04 1897.504 1444.984 1898.839 Z " fill="rgb(255,41,72)"/><path d=" M 1372.486 1077.62 C 1344.939 1070.3 1323.692 1091.035 1323.692 1091.035 C 1324.038 1051.097 1344.276 1045.631 1344.276 1045.631 C 1352.574 1042.319 1362.571 1056.168 1372.486 1077.62 Z " fill="rgb(129,227,165)"/><path d=" M 1598.389 1312.265 C 1589.262 1316.073 1576.422 1329.303 1555.884 1321.275 C 1541.191 1315.661 1525.645 1311.716 1518.085 1309.89 C 1515.09 1309.321 1513.379 1308.889 1513.379 1308.889 C 1505.391 1307.358 1495.834 1305.238 1485.421 1302.981 C 1493.978 1292.558 1498.828 1279.328 1500.683 1273.851 C 1508.671 1278.346 1516.23 1282.429 1522.504 1285.805 C 1527.784 1286.944 1554.601 1292.558 1567.151 1289.751 C 1581.272 1286.512 1604.95 1303.275 1604.95 1303.275 C 1604.95 1303.275 1607.517 1308.614 1598.389 1312.265 Z " fill="rgb(76,75,115)"/><path d=" M 1683.354 1302.117 C 1676.057 1308.477 1656.667 1286.669 1653.988 1283.784 C 1647.811 1283.371 1632.779 1282.527 1615.789 1280.741 C 1621.126 1272.183 1626.042 1259.915 1628.281 1254.261 C 1645.572 1261.701 1659.625 1267.217 1659.625 1267.217 C 1659.625 1267.217 1685.033 1266.255 1689.251 1270.397 C 1693.469 1274.538 1691.37 1295.365 1683.354 1302.117 Z " fill="rgb(76,75,115)"/><path d=" M 697.162 1833.396 L 713.6 1807.289 C 715.347 1810.43 717.072 1813.492 718.752 1816.436 L 709.614 1830.942 C 705.448 1831.747 701.286 1832.571 697.162 1833.396 Z  M 752.403 1792.018 C 751.064 1789.623 749.205 1787.483 746.896 1785.776 C 746.922 1785.717 746.948 1785.677 746.972 1785.619 C 747.124 1785.285 747.296 1784.971 747.493 1784.657 L 749.187 1781.968 L 757.073 1786.757 L 755.38 1789.446 C 755.182 1789.76 755.01 1790.074 754.86 1790.408 C 754.532 1791.134 753.906 1791.645 753.179 1791.88 C 753.079 1791.919 752.979 1791.939 752.877 1791.959 C 752.721 1791.998 752.563 1792.018 752.403 1792.018 Z " fill="rgb(191,129,179)"/><path d=" M 718.752 1816.436 C 717.072 1813.492 715.347 1810.43 713.6 1807.289 L 719.051 1798.652 C 723.789 1791.134 732.049 1786.973 740.483 1786.973 C 741.634 1786.973 742.79 1787.051 743.939 1787.209 C 744.077 1787.228 744.213 1787.248 744.349 1787.248 C 745.403 1787.248 746.404 1786.698 746.896 1785.776 C 749.205 1787.483 751.064 1789.623 752.403 1792.018 C 752.355 1792.018 752.307 1792.018 752.259 1792.018 C 752.249 1792.018 752.239 1792.037 752.229 1792.037 C 752.213 1792.037 752.195 1792.018 752.179 1792.018 C 752.163 1792.018 752.145 1792.018 752.129 1792.018 C 752.045 1792.018 751.959 1792.018 751.875 1791.998 C 751.859 1791.998 751.841 1791.998 751.825 1791.998 L 751.825 1791.998 C 751.761 1791.998 751.697 1791.978 751.635 1791.978 C 751.607 1791.978 751.579 1791.978 751.552 1791.959 C 751.476 1791.959 751.4 1791.939 751.324 1791.939 C 750.39 1791.821 749.453 1791.782 748.517 1791.762 C 748.469 1791.762 748.421 1791.762 748.373 1791.762 L 748.373 1791.762 L 748.373 1791.762 C 748.229 1791.762 748.089 1791.762 747.945 1791.762 C 745.191 1791.821 742.46 1792.312 739.871 1793.215 C 734.674 1795.021 730.046 1798.495 726.938 1803.442 L 718.752 1816.436 Z " fill="rgb(191,111,164)"/><path d=" M 699.673 1872.32 L 691.905 1867.609 C 685.426 1863.663 683.403 1855.243 687.411 1848.883 L 697.162 1833.396 C 701.286 1832.571 705.448 1831.747 709.614 1830.942 L 695.295 1853.672 C 693.902 1855.871 693.238 1858.344 693.236 1860.778 C 693.232 1865.312 695.521 1869.748 699.673 1872.32 Z " fill="rgb(190,183,178)"/><path d=" M 719.993 1882.409 C 717.642 1882.409 715.267 1881.801 713.132 1880.505 L 699.791 1872.398 L 702.226 1873.871 L 713.132 1880.505 C 715.267 1881.801 717.642 1882.409 719.993 1882.409 C 724.393 1882.409 728.705 1880.25 731.177 1876.324 L 763.212 1825.485 C 764.183 1823.934 764.961 1822.325 765.549 1820.676 L 765.549 1820.676 C 764.961 1822.325 764.183 1823.934 763.212 1825.485 L 731.177 1876.324 C 728.705 1880.25 724.393 1882.409 719.993 1882.409 Z " fill="rgb(215,184,147)"/><path d=" M 764.959 1791.547 L 757.073 1786.757 L 757.073 1786.757 L 764.959 1791.547 Z " fill="rgb(217,108,149)"/><path d=" M 752.753 1822.874 L 754.464 1820.166 C 759.907 1811.529 759.216 1800.792 753.593 1792.94 C 753.359 1792.606 753.221 1792.253 753.179 1791.88 C 753.079 1791.919 752.979 1791.939 752.877 1791.959 C 752.979 1791.939 753.079 1791.919 753.179 1791.88 C 753.906 1791.645 754.532 1791.134 754.86 1790.408 C 755.01 1790.074 755.182 1789.76 755.38 1789.446 L 757.073 1786.757 L 764.959 1791.547 L 763.268 1794.236 C 763.044 1794.589 762.798 1794.923 762.534 1795.217 C 762.124 1795.688 761.906 1796.277 761.9 1796.866 C 761.896 1797.337 762.038 1797.828 762.338 1798.24 C 765.349 1802.441 766.944 1807.485 766.944 1812.569 C 766.944 1815.298 766.488 1818.026 765.549 1820.676 C 761.263 1821.402 756.995 1822.129 752.753 1822.874 Z " fill="rgb(172,144,202)"/><path d=" M 719.993 1882.409 C 717.642 1882.409 715.267 1881.801 713.132 1880.505 L 702.226 1873.871 L 704.387 1875.186 C 706.52 1876.481 708.896 1877.109 711.245 1877.109 C 715.647 1877.109 719.959 1874.931 722.432 1871.005 L 752.753 1822.874 C 756.995 1822.129 761.263 1821.402 765.549 1820.676 C 764.961 1822.325 764.183 1823.934 763.212 1825.485 L 731.177 1876.324 C 728.705 1880.25 724.393 1882.409 719.993 1882.409 Z " fill="rgb(171,182,201)"/><path d=" M 718.752 1816.436 L 718.752 1816.436 L 726.938 1803.442 C 730.046 1798.495 734.674 1795.021 739.871 1793.215 C 734.674 1795.021 730.048 1798.495 726.938 1803.442 L 718.752 1816.436 Z " fill="rgb(172,132,191)"/><path d=" M 752.229 1792.037 L 752.229 1792.037 C 752.239 1792.037 752.249 1792.018 752.259 1792.018 C 752.249 1792.018 752.239 1792.037 752.229 1792.037 Z  M 751.635 1791.978 C 751.607 1791.978 751.579 1791.978 751.552 1791.959 C 751.579 1791.978 751.607 1791.978 751.635 1791.978 Z  M 751.324 1791.939 C 750.39 1791.821 749.451 1791.782 748.517 1791.762 C 749.453 1791.782 750.39 1791.821 751.324 1791.939 Z  M 747.945 1791.762 C 748.089 1791.762 748.229 1791.762 748.373 1791.762 L 748.373 1791.762 C 748.229 1791.762 748.089 1791.762 747.945 1791.762 Z " fill="rgb(172,132,191)"/><path d=" M 739.871 1793.215 C 742.46 1792.312 745.191 1791.821 747.945 1791.762 C 745.191 1791.821 742.46 1792.312 739.871 1793.215 Z  M 752.229 1792.037 C 752.213 1792.037 752.195 1792.018 752.179 1792.018 C 752.195 1792.018 752.213 1792.037 752.229 1792.037 L 752.229 1792.037 Z " fill="rgb(196,141,185)"/><path d=" M 752.403 1792.018 L 752.403 1792.018 C 752.563 1792.018 752.721 1791.998 752.877 1791.959 C 752.721 1791.998 752.563 1792.018 752.403 1792.018 Z " fill="rgb(196,154,196)"/><path d=" M 702.226 1873.871 L 699.791 1872.398 C 699.751 1872.379 699.713 1872.359 699.673 1872.32 L 702.226 1873.871 Z " fill="rgb(212,192,173)"/><path d=" M 709.614 1830.942 L 718.752 1816.436 C 721.082 1820.499 723.329 1824.366 725.442 1827.899 C 720.125 1828.901 714.861 1829.921 709.614 1830.942 Z  M 750.428 1823.287 C 751.983 1817.064 753.383 1810.626 754.474 1805.326 C 755.422 1800.694 754.628 1796.002 752.403 1792.018 C 752.563 1792.018 752.721 1791.998 752.877 1791.959 C 752.979 1791.939 753.079 1791.919 753.179 1791.88 C 753.221 1792.253 753.359 1792.606 753.593 1792.94 C 759.216 1800.792 759.907 1811.529 754.464 1820.166 L 752.753 1822.874 C 751.973 1823.012 751.204 1823.149 750.428 1823.287 Z " fill="rgb(182,165,212)"/><path d=" M 725.442 1827.899 C 723.329 1824.366 721.082 1820.499 718.752 1816.436 L 726.938 1803.442 C 730.048 1798.495 734.674 1795.021 739.871 1793.215 C 742.46 1792.312 745.191 1791.821 747.945 1791.762 C 748.089 1791.762 748.229 1791.762 748.373 1791.762 C 748.421 1791.762 748.469 1791.762 748.517 1791.762 C 749.451 1791.782 750.39 1791.821 751.324 1791.939 C 751.4 1791.939 751.476 1791.959 751.552 1791.959 C 751.579 1791.978 751.607 1791.978 751.635 1791.978 C 751.697 1791.978 751.761 1791.998 751.825 1791.998 L 751.825 1791.998 C 751.841 1791.998 751.859 1791.998 751.875 1791.998 C 751.959 1792.018 752.045 1792.018 752.129 1792.018 C 752.145 1792.018 752.163 1792.018 752.179 1792.018 C 752.195 1792.018 752.213 1792.037 752.229 1792.037 L 752.229 1792.037 L 752.229 1792.037 C 752.239 1792.037 752.249 1792.018 752.259 1792.018 C 752.307 1792.018 752.355 1792.018 752.403 1792.018 C 754.628 1796.002 755.422 1800.694 754.474 1805.326 C 753.383 1810.626 751.983 1817.064 750.428 1823.287 C 742.02 1824.798 733.682 1826.329 725.442 1827.899 Z " fill="rgb(182,156,204)"/><path d=" M 711.245 1877.109 C 708.896 1877.109 706.52 1876.481 704.387 1875.186 L 702.226 1873.871 L 699.673 1872.32 C 695.521 1869.748 693.232 1865.312 693.236 1860.778 C 693.238 1858.344 693.902 1855.871 695.295 1853.672 L 709.614 1830.942 C 714.861 1829.921 720.125 1828.901 725.442 1827.899 C 733.682 1826.329 742.02 1824.798 750.428 1823.287 C 751.204 1823.149 751.973 1823.012 752.753 1822.874 L 722.432 1871.005 C 719.959 1874.931 715.647 1877.109 711.245 1877.109 Z " fill="rgb(182,191,211)"/><path d=" M 716.307 1803.01 L 697.504 1832.846 L 741.666 1859.679 L 760.467 1829.823 L 716.307 1803.01 Z " fill="rgb(58,58,91)"/><path d=" M 750.982 1777.158 L 748.423 1781.241 L 765.98 1791.861 L 768.539 1787.778 L 750.982 1777.158 Z " fill="rgb(58,58,91)"/><path d=" M 2853.242 1898.309 C 2852.762 1898.544 2851.962 1898.76 2850.863 1898.956 L 2753.87 1898.956 C 2754.65 1895.619 2757.648 1888.867 2769.443 1886.983 C 2784.755 1884.549 2811.302 1875.794 2817.239 1856.558 C 2817.419 1855.93 2817.599 1855.302 2817.759 1854.654 C 2822.437 1834.083 2856.66 1860.955 2856.66 1860.955 C 2856.66 1860.955 2856.76 1861.759 2856.9 1863.114 C 2857.68 1870.593 2859.739 1895.129 2853.242 1898.309 Z " fill="rgb(44,44,44)"/><path d=" M 2965.607 1898.309 C 2965.147 1898.544 2964.327 1898.76 2963.248 1898.956 L 2866.255 1898.956 C 2867.015 1895.619 2870.034 1888.867 2881.808 1886.983 C 2895.921 1884.745 2919.509 1877.149 2927.825 1860.955 C 2928.825 1858.992 2929.624 1856.872 2930.124 1854.654 C 2934.822 1834.083 2969.045 1860.955 2969.045 1860.955 C 2969.045 1860.955 2969.205 1862.329 2969.425 1864.566 C 2970.285 1873.321 2971.744 1895.305 2965.607 1898.309 Z " fill="rgb(44,44,44)"/><path d=" M 2918.59 1339.255 C 2918.59 1339.255 2906.656 1556.784 2898.919 1660.091 C 2898.919 1660.229 2898.919 1660.641 2898.779 1661.328 C 2898.779 1662.564 2898.779 1663.821 2898.64 1665.057 C 2896.681 1688.376 2893.722 1711.264 2890.224 1732.915 L 2890.224 1733.19 C 2889.664 1736.369 2889.084 1739.549 2888.524 1742.71 C 2877.01 1810.449 2861.418 1862.309 2861.418 1862.309 C 2828.834 1869.061 2812.682 1853.201 2812.682 1853.201 C 2812.682 1853.201 2805.785 1786.031 2804.106 1743.946 C 2803.126 1719.822 2793.151 1592.096 2784.855 1488.22 C 2778.678 1411.666 2776.299 1347.813 2776.299 1347.813 L 2918.59 1339.255 Z " fill="rgb(58,58,91)"/><path d=" M 2918.59 1339.255 C 2918.59 1339.255 2906.656 1556.784 2898.919 1660.091 C 2898.919 1660.229 2898.919 1660.641 2898.779 1661.328 C 2897.94 1669.062 2892.602 1712.501 2890.224 1732.915 L 2890.224 1733.19 C 2889.664 1736.369 2889.084 1739.549 2888.524 1742.71 L 2784.855 1488.22 C 2778.678 1411.666 2776.299 1347.813 2776.299 1347.813 L 2918.59 1339.255 Z " fill="rgb(44,44,44)"/><path d=" M 2785.795 1335.408 C 2785.795 1335.408 2851.902 1532.031 2886.665 1654.065 C 2921.189 1775.333 2921.189 1859.816 2921.189 1859.816 C 2921.189 1859.816 2975.442 1869.964 2980.3 1860.974 C 2980.3 1860.974 2996.392 1623.856 2963.628 1565.656 C 2945.137 1532.758 2932.463 1441.13 2936.381 1410.469 C 2940.299 1379.809 2943.498 1318.37 2943.498 1318.37 L 2785.795 1335.408 Z " fill="rgb(58,58,91)"/><path d=" M 2778.498 1031.517 C 2778.498 1031.517 2733.96 1085.313 2695.899 1090.139 C 2695.899 1090.139 2699.257 1076.071 2709.932 1062.001 C 2707.413 1058.413 2705.314 1055.104 2703.195 1052.069 C 2693.92 1037.589 2689.582 1028.897 2689.582 1028.897 L 2706.434 995.518 L 2716.689 975.104 C 2737.198 1022.828 2778.498 1031.517 2778.498 1031.517 Z " fill="rgb(244,179,164)"/><path d=" M 2690.381 1428.489 L 2689.942 1440.187 C 2689.942 1440.187 2666.773 1454.693 2685.364 1476.972 C 2685.364 1476.972 2693.88 1485.746 2699.177 1479.406 C 2704.474 1473.046 2701.236 1474.833 2708.952 1466 C 2716.669 1457.166 2718.368 1446.096 2712.551 1439.265 L 2710.252 1430.255 L 2690.381 1428.489 Z " fill="rgb(76,75,115)"/><path d=" M 2702.316 1439.147 C 2691.521 1435.025 2681.586 1427.841 2681.586 1427.841 C 2681.586 1427.841 2708.632 1323.63 2710.032 1313.443 C 2711.431 1303.275 2690.441 1159.501 2690.441 1159.501 L 2777.519 1097.418 C 2777.519 1097.418 2772.841 1295.541 2768.783 1321.255 C 2762.046 1363.772 2719.067 1441.797 2719.067 1441.797 C 2719.067 1441.797 2710.791 1442.366 2702.316 1439.147 Z " fill="rgb(255,41,72)"/><path d=" M 2941.059 1327.124 C 2921.548 1349.207 2902.158 1367.128 2877.29 1381.34 C 2848.084 1398.437 2810.603 1414.768 2797.089 1411.961 C 2785.035 1409.448 2780.337 1404.914 2778.938 1404.482 C 2777.819 1404.207 2772.781 1377.198 2751.571 1330.442 C 2750.732 1328.655 2749.732 1326.575 2749.173 1324.788 L 2748.753 1324.101 C 2740.477 1305.886 2732.181 1286.433 2724.045 1267.138 C 2706.194 1224.504 2690.601 1182.714 2685.824 1157.748 C 2680.066 1128.367 2687.223 1104.088 2695.239 1085.056 L 2701.976 1069.882 C 2714.63 1066.985 2726.424 1060.778 2735.839 1049.466 C 2745.954 1037.19 2757.189 1023.244 2760.287 1023.793 C 2792.871 1030.691 2828.974 1073.606 2858.459 1130.161 C 2862.397 1137.332 2866.055 1144.781 2869.574 1152.365 C 2873.772 1161.471 2877.71 1170.713 2881.508 1180.229 C 2898.64 1223.267 2918.03 1259.542 2931.663 1284.372 C 2934.182 1288.926 2936.581 1293.205 2938.68 1296.915 C 2942.478 1303.962 2945.557 1309.478 2947.536 1313.345 C 2949.355 1316.917 2943.737 1324.239 2941.059 1327.124 Z " fill="rgb(255,77,103)"/><path d=" M 2931.663 1284.372 C 2842.867 1258.305 2800.587 1117.606 2800.587 1117.606 L 2829.253 1104.641 C 2829.253 1104.641 2841.328 1114.711 2858.459 1130.161 C 2862.397 1137.332 2866.055 1144.781 2869.574 1152.365 C 2873.772 1161.471 2877.71 1170.713 2881.508 1180.229 C 2898.64 1223.267 2918.03 1259.542 2931.663 1284.372 Z " fill="rgb(255,41,72)"/><path d=" M 2948.755 1199.771 C 2945.517 1196.788 2940.399 1196.945 2937.361 1200.105 L 2385.031 1776.314 L 2311.866 1775.784 C 2308.988 1775.765 2304.45 1778.925 2301.771 1782.792 C 2299.353 1786.266 2299.253 1789.171 2301.332 1789.741 L 2192.205 1895.325 C 2190.666 1896.817 2189.926 1898.603 2190.546 1899.29 C 2190.726 1899.467 2190.966 1899.565 2191.285 1899.565 C 2192.125 1899.565 2193.364 1898.937 2194.504 1897.838 L 2306.049 1789.898 L 2320.482 1789.996 L 2222.25 1895.894 C 2220.811 1897.465 2220.291 1899.133 2221.111 1899.643 C 2221.271 1899.742 2221.451 1899.781 2221.671 1899.781 C 2222.61 1899.781 2224.049 1898.976 2225.229 1897.7 L 2325.12 1790.035 L 2342.591 1790.153 L 2248.877 1896.228 C 2247.478 1897.838 2247.058 1899.467 2247.958 1899.879 L 2248.438 1899.977 C 2249.417 1899.977 2250.956 1899.094 2252.136 1897.739 L 2347.149 1790.192 L 2364.101 1790.31 L 2274.405 1896.562 C 2273.045 1898.171 2272.726 1899.761 2273.705 1900.095 L 2274.085 1900.154 C 2275.124 1900.154 2276.724 1899.192 2277.923 1897.779 L 2368.599 1790.33 L 2381.113 1790.428 L 2306.849 1897.386 C 2305.709 1899.035 2305.769 1900.389 2306.989 1900.389 C 2308.208 1900.389 2310.127 1899.074 2311.267 1897.425 L 2385.53 1790.467 L 2396.945 1790.545 L 2338.274 1898.211 C 2337.514 1899.624 2337.754 1900.605 2338.773 1900.605 L 2339.253 1900.566 C 2340.672 1900.252 2342.531 1898.682 2343.431 1897.052 L 2401.443 1790.565 L 2418.394 1790.683 L 2363.861 1898.525 C 2363.181 1899.879 2363.441 1900.782 2364.421 1900.802 C 2364.601 1900.802 2364.821 1900.762 2365.04 1900.703 C 2366.5 1900.311 2368.339 1898.682 2369.158 1897.092 L 2422.932 1790.722 L 2440.424 1790.84 L 2390.548 1898.878 C 2389.948 1900.154 2390.268 1900.978 2391.208 1900.978 C 2391.408 1900.978 2391.667 1900.939 2391.947 1900.86 C 2393.467 1900.37 2395.266 1898.701 2395.985 1897.131 L 2445.041 1790.879 L 2458.235 1790.977 C 2458.635 1790.977 2459.075 1790.899 2459.554 1790.781 L 2420.793 1899.447 C 2420.393 1900.546 2420.753 1901.194 2421.593 1901.194 C 2421.893 1901.214 2422.272 1901.116 2422.692 1900.939 C 2424.272 1900.272 2425.991 1898.505 2426.53 1896.994 L 2465.791 1786.894 C 2466.711 1786.011 2467.59 1785.03 2468.31 1783.97 C 2471.009 1780.103 2470.869 1776.923 2468.01 1776.903 L 2407.04 1776.471 L 2949.095 1210.96 C 2952.133 1207.8 2951.993 1202.755 2948.755 1199.771 Z " fill="rgb(44,44,44)"/><path d=" M 2878.469 1246.587 L 2875.351 1257.893 C 2875.351 1257.893 2849.424 1266.863 2862.417 1292.715 C 2862.417 1292.715 2868.674 1303.157 2875.311 1298.132 C 2881.928 1293.127 2878.369 1294.148 2887.925 1287.258 C 2897.48 1280.368 2901.678 1269.965 2897.58 1262.015 L 2897.42 1252.73 L 2878.469 1246.587 Z " fill="rgb(76,75,115)"/><path d=" M 2883.947 1267.177 C 2873.112 1263.173 2870.913 1252.789 2870.913 1252.789 C 2870.913 1252.789 2899.099 1143.868 2889.784 1139.196 C 2880.468 1134.521 2769.163 1118.456 2769.163 1118.456 C 2769.163 1118.456 2735.699 1111.525 2736.799 1081.778 C 2738.258 1041.836 2760.147 1024.365 2760.147 1024.365 C 2760.147 1024.365 2930.184 1086.708 2944.637 1108.538 C 2966.306 1141.304 2903.377 1266.137 2903.377 1266.137 C 2903.377 1266.137 2894.402 1271.064 2883.947 1267.177 Z " fill="rgb(255,77,103)"/><path d=" M 2726.244 995.932 C 2726.244 995.932 2722.586 1036.898 2703.195 1052.069 C 2693.92 1037.589 2689.582 1028.897 2689.582 1028.897 L 2706.434 995.518 L 2726.244 995.932 Z " fill="rgb(233,140,148)"/><path d=" M 2679.107 1032.672 C 2679.107 1032.672 2738.198 1016.766 2727.543 980.786 C 2716.888 944.808 2717.348 918.525 2679.167 927.16 C 2640.986 935.793 2637.767 951.606 2638.347 964.463 C 2638.927 977.32 2663.475 1035.879 2679.107 1032.672 Z " fill="rgb(244,179,164)"/><path d=" M 2728.283 983.273 C 2728.283 983.273 2705.554 937.318 2652.6 954.122 C 2633.369 960.223 2632.49 955.051 2618.876 938.67 C 2618.876 938.67 2653.859 914.006 2683.385 907.643 C 2745.315 894.289 2731.061 973.877 2728.283 983.273 Z " fill="rgb(44,44,44)"/></g></g></svg>