<?xml version="1.0" encoding="UTF-8" standalone="no"?><!-- Generator: Gravit.io --><svg xmlns="http://www.w3.org/2000/svg" xmlns:xlink="http://www.w3.org/1999/xlink" style="isolation:isolate" viewBox="0 0 407.1 452.6" width="407.1pt" height="452.6pt"><defs><clipPath id="_clipPath_CD3r99pkDbDTyxtXAE2d9AOnfskE0QKf"><rect width="407.1" height="452.6"/></clipPath></defs><g clip-path="url(#_clipPath_CD3r99pkDbDTyxtXAE2d9AOnfskE0QKf)"><g><path d=" M 407.085 0 L 407.085 293.8 L 299.765 401.12 C 231.195 469.7 120.015 469.7 51.435 401.12 C -17.145 332.54 -17.145 221.36 51.435 152.79 L 204.215 0 L 407.085 0 Z " fill="rgb(254,254,254)"/><path d=" M 100.406 194.121 L 54.25 194.121 C 52.495 194.121 51.071 192.698 51.071 190.943 C 51.071 189.187 52.495 187.764 54.25 187.764 L 100.406 187.764 C 102.162 187.764 103.585 189.187 103.585 190.943 C 103.585 192.698 102.162 194.121 100.406 194.121 Z " fill="rgb(247,179,174)"/><path d=" M 286.283 194.121 L 267.127 194.121 C 265.371 194.121 263.948 192.698 263.948 190.943 C 263.948 189.187 265.371 187.764 267.127 187.764 L 286.283 187.764 C 288.038 187.764 289.462 189.187 289.462 190.943 C 289.462 192.698 288.038 194.121 286.283 194.121 Z " fill="rgb(254,239,160)"/><path d=" M 332.882 194.121 L 302.726 194.121 C 300.97 194.121 299.547 192.698 299.547 190.943 C 299.547 189.187 300.97 187.764 302.726 187.764 L 332.882 187.764 C 334.637 187.764 336.061 189.187 336.061 190.943 C 336.061 192.698 334.637 194.121 332.882 194.121 Z " fill="rgb(83,195,201)"/><path d=" M 354.717 240.472 L 354.715 239.972 L 66.493 240.711 C 62.372 240.711 58.644 239.041 55.942 236.34 C 53.241 233.638 51.572 229.91 51.571 225.788 C 51.572 221.666 53.241 217.938 55.942 215.236 C 58.644 212.535 62.372 210.865 66.494 210.865 L 354.718 210.126 C 358.839 210.127 362.567 211.796 365.269 214.497 C 367.97 217.199 369.639 220.927 369.64 225.049 C 369.639 229.171 367.97 232.899 365.269 235.601 C 362.567 238.302 358.839 239.971 354.717 239.972 L 354.717 240.472 L 354.717 240.972 C 363.511 240.971 370.639 233.843 370.64 225.049 C 370.639 216.255 363.511 209.127 354.717 209.126 L 66.493 209.865 C 57.7 209.866 50.572 216.994 50.571 225.788 C 50.572 234.582 57.7 241.711 66.494 241.711 L 354.718 240.972 L 354.717 240.472 Z " fill="rgb(215,215,214)"/><path d=" M 344.398 228.045 C 341.768 225.416 341.768 221.136 344.398 218.507 C 345.713 217.193 347.439 216.536 349.167 216.536 C 350.894 216.536 352.62 217.193 353.936 218.507 C 356.565 221.136 356.565 225.416 353.936 228.045 C 352.661 229.319 350.968 230.02 349.166 230.02 C 347.365 230.02 345.671 229.319 344.398 228.045 Z  M 360.082 233.063 L 355.942 228.921 C 358.839 225.442 358.696 220.271 355.435 217.009 C 351.977 213.551 346.355 213.554 342.898 217.009 C 339.443 220.465 339.443 226.087 342.898 229.543 C 344.573 231.218 346.799 232.14 349.166 232.14 C 351.263 232.14 353.225 231.381 354.814 230.053 L 358.951 234.192 L 360.082 233.063 Z " fill="rgb(245,153,147)"/><path d=" M 261.911 416.38 L 261.911 429.91 C 232.961 446.27 200.361 453.77 168.071 452.4 L 168.071 416.38 L 261.911 416.38 Z " fill="rgb(53,99,156)"/><path d=" M 214.458 441.5 L 214.458 448.093 L 215.458 448.093 L 215.458 441.5" fill="rgb(58,58,58)"/><path d=" M 203.624 442 L 226.291 442 L 226.291 441 L 203.624 441" fill="rgb(58,58,58)"/><path d=" M 210.552 416.38 L 210.552 430.162 C 210.552 433.847 213.538 436.833 217.223 436.833 L 217.723 436.833 L 217.723 416.38 L 216.723 416.38 L 216.723 436.333 L 217.223 436.333 L 217.223 435.833 C 215.655 435.833 214.24 435.199 213.213 434.172 C 212.186 433.144 211.552 431.73 211.552 430.162 L 211.552 416.38 L 210.552 416.38 Z " fill="rgb(58,58,58)"/><path d=" M 177.052 416.38 L 177.052 425.854 C 177.051 428.335 176.047 430.576 174.421 432.203 C 172.794 433.829 170.552 434.833 168.071 434.833 L 168.071 435.833 C 173.583 435.833 178.051 431.365 178.052 425.854 L 178.052 416.38 L 177.052 416.38 Z " fill="rgb(58,58,58)"/><path d=" M 251.932 416.38 L 251.932 425.854 C 251.931 428.95 253.343 431.72 255.557 433.549 L 256.195 432.779 C 254.2 431.129 252.932 428.642 252.932 425.854 L 252.932 416.38 L 251.932 416.38 Z " fill="rgb(58,58,58)"/><path d=" M 144.193 194.121 L 115.037 194.121 C 113.281 194.121 111.858 192.698 111.858 190.943 C 111.858 189.187 113.281 187.764 115.037 187.764 L 144.193 187.764 C 145.948 187.764 147.372 189.187 147.372 190.943 C 147.372 192.698 145.948 194.121 144.193 194.121 Z " fill="rgb(254,239,160)"/><path d=" M 263.948 420.38 C 231.899 428.975 198.152 428.975 166.104 420.38 L 166.104 259.812 L 263.948 259.812 L 263.948 420.38 Z " fill="rgb(238,83,92)"/><path d=" M 263.819 411.428 C 247.837 415.715 231.431 417.858 215.026 417.858 C 198.621 417.858 182.215 415.715 166.234 411.428 L 165.975 412.394 C 182.041 416.703 198.534 418.858 215.026 418.858 C 231.518 418.858 248.011 416.703 264.078 412.394 L 263.819 411.428 Z " fill="rgb(58,58,58)"/><path d=" M 185.019 393.769 L 231.513 340.93 L 230.762 340.269 L 184.268 393.108" fill="rgb(58,58,58)"/><path d=" M 212.325 393.721 L 231.55 365.684 L 230.725 365.119 L 211.5 393.156" fill="rgb(58,58,58)"/><path d=" M 219.818 288.58 L 210.165 288.58 C 196.941 288.58 186.223 277.86 186.223 264.638 L 186.223 259.812 L 243.76 259.812 L 243.76 264.638 C 243.76 277.86 233.041 288.58 219.818 288.58 Z " fill="rgb(236,144,100)"/><path d=" M 199.188 208.116 L 177.648 208.116 L 177.648 174.119 L 199.188 174.119 L 199.188 208.116 Z " fill="rgb(58,58,58)"/><path d=" M 252.335 208.116 L 216.136 208.116 L 216.136 159.396 C 216.136 153.727 220.732 149.13 226.403 149.13 L 242.067 149.13 C 247.738 149.13 252.335 153.727 252.335 159.396 L 252.335 208.116 Z " fill="rgb(58,58,58)"/><path d=" M 214.991 282.1 C 203.403 282.1 194.01 272.706 194.01 261.117 L 194.01 234.517 C 194.01 222.929 203.403 213.535 214.991 213.535 C 226.579 213.535 235.974 222.929 235.974 234.517 L 235.974 261.117 C 235.974 272.706 226.579 282.1 214.991 282.1 Z " fill="rgb(236,144,100)"/><path d=" M 194.01 239.59 C 194.01 239.59 199.043 254.385 214.991 254.385 L 214.991 254.21 L 215.061 254.385 C 231.01 254.385 236.043 239.59 236.043 239.59 L 194.01 239.59 Z " fill="rgb(58,58,58)"/><path d=" M 185.804 211.84 L 182.096 211.84 C 177.202 211.84 173.236 207.874 173.236 202.98 C 173.236 198.088 177.202 194.121 182.096 194.121 L 185.804 194.121 C 190.696 194.121 194.663 198.088 194.663 202.98 C 194.663 207.874 190.696 211.84 185.804 211.84 Z " fill="rgb(218,134,93)"/><path d=" M 247.888 211.84 L 244.179 211.84 C 239.286 211.84 235.319 207.874 235.319 202.98 C 235.319 198.088 239.286 194.121 244.179 194.121 L 247.888 194.121 C 252.78 194.121 256.747 198.088 256.747 202.98 C 256.747 207.873 252.78 211.84 247.888 211.84 Z " fill="rgb(218,134,93)"/><path d=" M 223.011 158.806 C 221.812 165.153 208.592 167.984 193.484 165.128 C 178.378 162.273 167.103 154.813 168.303 148.466 C 169.502 142.119 182.722 139.288 197.829 142.142 C 212.937 144.998 224.211 152.458 223.011 158.806 Z " fill="rgb(58,58,58)"/><path d=" M 245.417 208.271 L 245.427 208.22 C 245.489 207.932 245.846 206.508 246.872 205.152 C 247.905 203.795 249.558 202.495 252.363 202.329 L 252.307 201.331 C 248.988 201.513 246.97 203.222 245.853 204.856 C 244.727 206.491 244.442 208.049 244.433 208.09 L 245.417 208.271 Z " fill="rgb(58,58,58)"/><path d=" M 185.549 208.09 C 185.54 208.049 185.255 206.491 184.13 204.856 C 183.013 203.222 180.995 201.513 177.677 201.331 L 177.62 202.329 C 180.61 202.506 182.296 203.973 183.307 205.424 C 183.807 206.149 184.125 206.87 184.316 207.406 C 184.411 207.674 184.475 207.895 184.514 208.047 L 184.555 208.22 L 184.566 208.271 L 185.549 208.09 Z " fill="rgb(58,58,58)"/><path d=" M 214.991 247.757 C 197.848 247.757 183.95 233.86 183.95 216.716 L 183.95 189.245 C 183.95 172.102 197.848 158.204 214.991 158.204 C 232.136 158.204 246.033 172.102 246.033 189.245 L 246.033 216.716 C 246.033 233.86 232.136 247.757 214.991 247.757 Z " fill="rgb(236,144,100)"/><path d=" M 214.557 209.453 C 214.556 209.458 213.834 211.413 213.111 213.699 C 212.749 214.843 212.386 216.069 212.112 217.182 C 211.839 218.298 211.651 219.285 211.648 220.02 C 211.653 220.354 211.676 220.641 211.832 220.927 C 212.095 221.384 212.5 221.725 212.941 222.006 C 214.263 222.835 216.012 223.162 216.04 223.172 L 216.232 222.191 L 216.112 222.165 C 215.83 222.103 215.093 221.92 214.365 221.615 C 213.634 221.317 212.933 220.865 212.7 220.431 C 212.693 220.431 212.644 220.269 212.648 220.02 C 212.646 219.457 212.817 218.497 213.083 217.421 C 213.482 215.801 214.086 213.89 214.59 212.39 C 214.842 211.639 215.068 210.991 215.232 210.531 C 215.395 210.07 215.495 209.8 215.495 209.799 L 214.557 209.453 Z " fill="rgb(58,58,58)"/><path d=" M 233.091 167.018 C 233.091 176.862 216.728 184.841 196.543 184.841 C 176.358 184.841 159.996 176.862 159.996 167.018 C 159.996 157.174 176.358 149.194 196.543 149.194 C 216.728 149.194 233.091 157.174 233.091 167.018 Z " fill="rgb(58,58,58)"/><path d=" M 238.657 164.565 C 242.396 168.165 239.366 177.377 231.891 185.14 C 224.415 192.904 215.324 196.28 211.586 192.68 C 207.849 189.081 210.878 179.869 218.354 172.105 C 225.829 164.342 234.919 160.966 238.657 164.565 Z " fill="rgb(58,58,58)"/><path d=" M 206.671 200.521 C 206.671 202.316 201.369 203.771 198.229 203.771 C 195.091 203.771 194.01 202.316 194.01 200.521 C 194.01 198.726 197.847 197.271 200.986 197.271 C 204.126 197.271 206.671 198.726 206.671 200.521 Z " fill="rgb(58,58,58)"/><path d=" M 206.671 213.575 C 206.671 215.755 205.438 217.522 203.917 217.522 C 202.395 217.522 201.163 215.755 201.163 213.575 C 201.163 211.394 202.395 209.626 203.917 209.626 C 205.438 209.626 206.671 211.394 206.671 213.575 Z " fill="rgb(61,49,49)"/><path d=" M 228.82 213.575 C 228.82 215.755 227.587 217.522 226.065 217.522 C 224.545 217.522 223.313 215.755 223.313 213.575 C 223.313 211.394 224.545 209.626 226.065 209.626 C 227.587 209.626 228.82 211.394 228.82 213.575 Z " fill="rgb(61,49,49)"/><path d=" M 223.313 200.521 C 223.313 202.316 228.613 203.771 231.753 203.771 C 234.893 203.771 235.974 202.316 235.974 200.521 C 235.974 198.726 232.137 197.271 228.997 197.271 C 225.858 197.271 223.313 198.726 223.313 200.521 Z " fill="rgb(58,58,58)"/><path d=" M 204.432 227.597 C 204.432 233.429 209.159 236.955 214.991 236.955 C 220.823 236.955 225.552 233.429 225.552 227.597 L 204.432 227.597 Z " fill="rgb(254,254,254)"/><path d=" M 248.293 175.211 C 251.985 184.012 251.335 192.675 246.841 194.561 C 242.347 196.445 235.711 190.839 232.02 182.038 C 228.327 173.236 228.978 164.574 233.472 162.688 C 237.966 160.803 244.602 166.41 248.293 175.211 Z " fill="rgb(58,58,58)"/><path d=" M 166.105 313.319 L 151.766 394.583 C 150.079 404.143 140.963 410.523 131.404 408.837 L 124.738 407.661 L 142.13 309.089 L 166.105 313.319 Z " fill="rgb(218,134,93)"/><path d=" M 288.285 342.55 L 288.285 411.64 C 280.565 418.12 272.425 423.82 263.945 428.76 L 263.945 342.55 L 288.285 342.55 Z " fill="rgb(236,144,100)"/><path d=" M 288.287 342.552 L 288.287 357.523 C 283.829 358.438 275.995 359.507 263.942 359.507 L 263.942 342.552 L 288.287 342.552 Z " fill="rgb(218,134,93)"/><path d=" M 263.948 352.293 L 263.948 259.812 C 279.979 259.812 292.974 272.807 292.974 288.836 L 292.974 349.096 C 292.974 349.096 284.75 352.293 263.948 352.293 Z " fill="rgb(238,83,92)"/><path d=" M 166.105 352.293 L 166.105 259.812 C 150.074 259.812 137.079 272.807 137.079 288.836 L 137.079 349.096 C 137.079 349.096 145.303 352.293 166.105 352.293 Z " fill="rgb(238,83,92)"/><path d=" M 173.567 309.892 L 159.438 307.018 L 168.457 262.665 L 182.587 265.539 L 173.567 309.892 Z " fill="rgb(58,58,58)"/><path d=" M 160.201 366.644 L 149.575 364.483 C 147.062 363.972 145.439 361.52 145.949 359.006 L 156.59 306.683 C 157.102 304.169 159.554 302.546 162.067 303.057 L 172.693 305.218 C 175.207 305.729 176.831 308.181 176.319 310.694 L 165.679 363.019 C 165.167 365.532 162.715 367.155 160.201 366.644 Z " fill="rgb(83,195,201)"/><path d=" M 176.395 259.812 C 149.45 254.332 132.05 228.046 137.529 201.102 C 143.009 174.157 169.294 156.756 196.238 162.236 C 223.184 167.716 240.584 194.001 235.104 220.945 C 229.625 247.89 203.34 265.291 176.395 259.812 Z  M 198.494 151.145 C 165.424 144.419 133.163 165.776 126.438 198.846 C 119.712 231.916 141.069 264.178 174.14 270.902 C 207.21 277.628 239.471 256.271 246.195 223.201 C 252.921 190.131 231.564 157.87 198.494 151.145 Z " fill="rgb(250,177,72)"/><clipPath id="_clipPath_ii1nV7xWmD1n1AJgnZIy6zD4UmjLLBjT"><path d=" M 194.01 259.812 L 176.395 259.812 C 164.222 257.336 153.998 250.616 146.951 241.505 L 194.01 241.384 L 194.01 259.812 Z  M 146.198 240.506 C 140.044 232.127 136.517 221.856 136.521 211.058 C 136.521 210.934 136.521 210.81 136.522 210.686 L 177.54 210.581 C 178.871 211.38 180.43 211.84 182.096 211.84 L 183.95 211.84 L 183.95 216.716 C 183.95 225.77 187.826 233.919 194.01 239.593 L 194.01 240.384 L 146.198 240.506 Z  M 136.54 209.686 C 136.62 206.849 136.944 203.978 137.529 201.102 C 138.019 198.696 138.674 196.365 139.481 194.121 L 144.193 194.121 C 145.948 194.121 147.372 192.698 147.372 190.943 C 147.372 189.187 145.948 187.764 144.193 187.764 L 142.283 187.764 C 146.478 179.814 152.705 173.27 160.151 168.668 C 161.238 174.445 167.978 179.424 177.648 182.278 L 177.648 195.316 C 175.01 196.851 173.236 199.709 173.236 202.98 C 173.236 205.604 174.377 207.962 176.189 209.584 L 136.54 209.686 Z " fill-rule="evenodd" fill="rgb(255,255,255)"/></clipPath><g clip-path="url(#_clipPath_ii1nV7xWmD1n1AJgnZIy6zD4UmjLLBjT)"><path d=" M 136.517 168.668 L 194.01 168.668 L 194.01 259.812 L 136.517 259.812 L 136.517 168.668 Z " fill="rgb(254,254,254)"/></g><path d=" M 146.951 241.505 C 146.697 241.176 146.444 240.841 146.198 240.506 L 194.01 240.384 L 194.01 241.384 L 146.951 241.505 Z  M 136.522 210.686 C 136.525 210.352 136.531 210.02 136.54 209.686 L 176.189 209.584 C 176.606 209.957 177.058 210.291 177.54 210.581 L 136.522 210.686 Z " fill="rgb(216,216,215)"/><path d=" M 144.193 194.121 L 139.481 194.121 C 140.273 191.917 141.212 189.794 142.283 187.764 L 144.193 187.764 C 145.948 187.764 147.372 189.187 147.372 190.943 C 147.372 192.698 145.948 194.121 144.193 194.121 Z " fill="rgb(252,240,164)"/><path d=" M 186.223 260.82 C 182.98 260.81 179.694 260.482 176.395 259.812 L 176.395 259.812 L 194.01 259.812 L 186.223 259.812 L 186.223 260.82 Z " fill="rgb(239,91,98)"/><path d=" M 186.368 260.82 C 186.32 260.82 186.271 260.82 186.223 260.82 L 186.223 259.812 L 194.01 259.812 L 194.01 260.226 C 191.505 260.618 188.952 260.82 186.368 260.82 Z " fill="rgb(237,150,107)"/><path d=" M 177.648 195.316 L 177.648 182.278 C 179.774 182.905 182.04 183.429 184.42 183.837 C 184.111 185.594 183.95 187.4 183.95 189.245 L 183.95 194.121 L 182.096 194.121 C 180.475 194.121 178.955 194.556 177.648 195.316 Z " fill="rgb(65,65,65)"/><path d=" M 194.01 260.226 L 194.01 259.812 L 194.01 241.384 L 194.01 240.384 L 194.01 239.593 L 194.011 239.594 C 194.095 239.838 198.379 252.074 211.277 254.101 C 206 257.162 200.151 259.264 194.01 260.226 Z " fill="rgb(237,150,107)"/><path d=" M 211.277 254.101 C 198.379 252.074 194.095 239.838 194.011 239.594 C 199.536 244.664 206.902 247.757 214.991 247.757 C 216.851 247.757 218.672 247.594 220.442 247.28 C 217.655 249.899 214.577 252.187 211.277 254.101 Z " fill="rgb(65,65,65)"/><path d=" M 183.95 211.84 L 182.096 211.84 C 180.43 211.84 178.871 211.38 177.54 210.581 C 177.058 210.291 176.606 209.957 176.189 209.584 C 174.377 207.962 173.236 205.604 173.236 202.98 C 173.236 199.709 175.01 196.851 177.648 195.316 C 178.955 194.556 180.475 194.121 182.096 194.121 L 183.95 194.121 L 183.95 204.603 C 182.802 203.05 180.824 201.504 177.677 201.331 L 177.62 202.329 C 180.61 202.506 182.296 203.973 183.307 205.424 C 183.568 205.803 183.78 206.181 183.95 206.532 L 183.95 211.84 Z " fill="rgb(219,140,102)"/><path d=" M 183.95 206.532 C 183.78 206.181 183.568 205.803 183.307 205.424 C 182.296 203.973 180.61 202.506 177.62 202.329 L 177.677 201.331 C 180.824 201.504 182.802 203.05 183.95 204.603 L 183.95 206.532 Z " fill="rgb(65,65,65)"/><path d=" M 214.991 247.757 C 206.902 247.757 199.536 244.664 194.011 239.594 L 194.01 239.593 C 187.826 233.919 183.95 225.77 183.95 216.716 L 183.95 211.84 L 183.95 206.532 L 183.95 204.603 L 183.95 194.121 L 183.95 189.245 C 183.95 187.4 184.111 185.594 184.42 183.837 C 188.213 184.487 192.294 184.841 196.543 184.841 C 201.498 184.841 206.223 184.36 210.532 183.489 C 210.629 183.586 210.726 183.683 210.823 183.781 C 209.535 187.578 209.688 190.853 211.586 192.68 C 212.602 193.658 214.012 194.121 215.679 194.121 C 216.52 194.121 217.425 194.003 218.378 193.774 C 220.175 196.965 221.612 200.373 222.653 203.958 C 223.301 206.157 223.79 208.415 224.149 210.74 C 223.633 211.458 223.313 212.463 223.313 213.575 C 223.313 215.11 223.923 216.44 224.815 217.093 C 224.851 217.681 224.881 218.274 224.905 218.872 C 225.124 218.403 225.329 217.927 225.52 217.445 C 225.696 217.496 225.879 217.522 226.065 217.522 C 227.587 217.522 228.82 215.755 228.82 213.575 C 228.82 212.035 228.206 210.702 227.309 210.05 C 227.553 207.76 227.542 205.423 227.29 203.107 C 228.796 203.524 230.458 203.771 231.753 203.771 C 233.619 203.771 234.758 203.257 235.375 202.463 C 235.862 205.25 236.114 208.1 236.113 210.989 C 236.112 214.272 235.784 217.604 235.104 220.945 C 232.972 231.431 227.688 240.471 220.442 247.28 C 218.672 247.594 216.851 247.757 214.991 247.757 Z  M 204.432 227.597 C 204.432 233.429 209.159 236.955 214.991 236.955 C 220.823 236.955 225.552 233.429 225.552 227.597 L 204.432 227.597 Z  M 214.557 209.453 C 214.556 209.458 213.834 211.413 213.111 213.699 C 212.749 214.843 212.386 216.069 212.112 217.182 C 211.839 218.298 211.651 219.285 211.648 220.02 C 211.653 220.354 211.676 220.641 211.832 220.927 C 212.095 221.384 212.5 221.725 212.941 222.006 C 214.263 222.835 216.012 223.162 216.04 223.172 L 216.232 222.191 L 216.112 222.165 C 215.83 222.103 215.093 221.92 214.365 221.615 C 213.634 221.317 212.933 220.865 212.7 220.431 C 212.693 220.431 212.644 220.269 212.648 220.02 C 212.646 219.457 212.817 218.497 213.083 217.421 C 213.482 215.801 214.086 213.89 214.59 212.39 C 214.842 211.639 215.068 210.991 215.232 210.531 C 215.395 210.07 215.495 209.8 215.495 209.799 L 214.557 209.453 Z  M 203.917 209.626 C 202.395 209.626 201.163 211.394 201.163 213.575 C 201.163 215.755 202.395 217.522 203.917 217.522 C 205.438 217.522 206.671 215.755 206.671 213.575 C 206.671 211.394 205.438 209.626 203.917 209.626 Z  M 200.986 197.271 C 197.847 197.271 194.01 198.726 194.01 200.521 C 194.01 202.316 195.091 203.771 198.229 203.771 C 201.369 203.771 206.671 202.316 206.671 200.521 C 206.671 198.726 204.126 197.271 200.986 197.271 Z  M 234.561 198.684 C 233.159 197.831 230.944 197.271 228.997 197.271 C 227.997 197.271 227.057 197.419 226.241 197.678 C 225.65 195.554 224.857 193.48 223.876 191.495 C 225.886 190.346 227.949 188.845 229.943 187.033 C 231.954 190.687 233.514 194.602 234.561 198.684 Z " fill="rgb(237,150,107)"/><path d=" M 216.04 223.172 C 216.012 223.162 214.263 222.835 212.941 222.006 C 212.5 221.725 212.095 221.384 211.832 220.927 C 211.676 220.641 211.653 220.354 211.648 220.02 C 211.651 219.285 211.839 218.298 212.112 217.182 C 212.386 216.069 212.749 214.843 213.111 213.699 C 213.834 211.413 214.556 209.458 214.557 209.453 L 215.495 209.799 C 215.495 209.8 215.395 210.07 215.232 210.531 C 215.068 210.991 214.842 211.639 214.59 212.39 C 214.086 213.89 213.482 215.801 213.083 217.421 C 212.817 218.497 212.646 219.457 212.648 220.02 C 212.644 220.269 212.693 220.431 212.7 220.431 C 212.933 220.865 213.634 221.317 214.365 221.615 C 215.093 221.92 215.83 222.103 216.112 222.165 L 216.232 222.191 L 216.04 223.172 Z " fill="rgb(65,65,65)"/><path d=" M 196.543 184.841 C 192.294 184.841 188.213 184.487 184.42 183.837 C 182.04 183.429 179.774 182.905 177.648 182.278 C 167.978 179.424 161.238 174.445 160.151 168.668 C 167.853 163.908 176.861 161.227 186.265 161.227 C 189.554 161.227 192.89 161.555 196.238 162.236 C 204.493 163.915 211.852 167.546 217.931 172.551 C 216.047 174.567 214.462 176.67 213.215 178.739 C 212.073 177.895 210.881 177.122 209.648 176.429 C 205.136 173.9 200.068 172.42 195.045 172.42 C 194.751 172.42 194.457 172.425 194.164 172.435 C 198.957 174.693 203.252 177.23 207.018 180.326 C 208.247 181.329 209.419 182.384 210.532 183.489 C 206.223 184.36 201.498 184.841 196.543 184.841 Z " fill="rgb(65,65,65)"/><path d=" M 215.679 194.121 C 214.012 194.121 212.602 193.658 211.586 192.68 C 209.688 190.853 209.535 187.578 210.823 183.781 C 213.004 185.984 214.952 188.38 216.651 190.942 C 217.259 191.866 217.835 192.81 218.378 193.774 C 217.425 194.003 216.52 194.121 215.679 194.121 Z  M 223.876 191.495 C 223.218 190.163 222.475 188.871 221.653 187.631 C 219.38 184.201 216.502 181.171 213.215 178.739 C 214.462 176.67 216.047 174.567 217.931 172.551 C 222.835 176.587 226.905 181.514 229.943 187.033 C 227.949 188.845 225.886 190.346 223.876 191.495 Z " fill="rgb(65,65,65)"/><path d=" M 198.229 203.771 C 195.091 203.771 194.01 202.316 194.01 200.521 C 194.01 198.726 197.847 197.271 200.986 197.271 C 204.126 197.271 206.671 198.726 206.671 200.521 C 206.671 202.316 201.369 203.771 198.229 203.771 Z " fill="rgb(65,65,65)"/><path d=" M 203.917 217.522 C 202.395 217.522 201.163 215.755 201.163 213.575 C 201.163 211.394 202.395 209.626 203.917 209.626 C 205.438 209.626 206.671 211.394 206.671 213.575 C 206.671 215.755 205.438 217.522 203.917 217.522 Z " fill="rgb(68,55,55)"/><path d=" M 226.065 217.522 C 225.879 217.522 225.696 217.496 225.52 217.445 C 226.447 215.098 227.037 212.603 227.309 210.05 C 228.206 210.702 228.82 212.035 228.82 213.575 C 228.82 215.755 227.587 217.522 226.065 217.522 Z  M 224.815 217.093 C 223.923 216.44 223.313 215.11 223.313 213.575 C 223.313 212.463 223.633 211.458 224.149 210.74 C 224.467 212.802 224.683 214.918 224.815 217.093 Z " fill="rgb(68,55,55)"/><path d=" M 231.753 203.771 C 230.458 203.771 228.796 203.524 227.29 203.107 C 227.288 203.09 227.286 203.073 227.284 203.056 C 227.083 201.245 226.732 199.444 226.241 197.678 C 227.057 197.419 227.997 197.271 228.997 197.271 C 230.944 197.271 233.159 197.831 234.561 198.684 C 234.881 199.928 235.153 201.189 235.375 202.463 C 234.758 203.257 233.619 203.771 231.753 203.771 Z " fill="rgb(65,65,65)"/><path d=" M 214.991 236.955 C 209.159 236.955 204.432 233.429 204.432 227.597 L 225.552 227.597 C 225.552 233.429 220.823 236.955 214.991 236.955 Z " fill="rgb(254,254,254)"/><path d=" M 224.905 218.872 C 224.881 218.274 224.851 217.681 224.815 217.093 C 225.035 217.254 225.271 217.373 225.52 217.445 C 225.329 217.927 225.124 218.403 224.905 218.872 Z  M 224.149 210.74 C 223.79 208.415 223.301 206.157 222.653 203.958 C 221.612 200.373 220.175 196.965 218.378 193.774 C 220.093 193.362 221.961 192.589 223.876 191.495 C 224.857 193.48 225.65 195.554 226.241 197.678 C 224.494 198.233 223.313 199.298 223.313 200.521 C 223.313 201.576 225.143 202.514 227.29 203.107 C 227.542 205.423 227.553 207.76 227.309 210.05 C 226.935 209.779 226.513 209.626 226.065 209.626 C 225.32 209.626 224.645 210.051 224.149 210.74 Z  M 210.823 183.781 C 210.726 183.683 210.629 183.586 210.532 183.489 C 210.673 183.461 210.815 183.431 210.956 183.402 C 210.91 183.529 210.865 183.655 210.823 183.781 Z " fill="rgb(236,192,171)"/><path d=" M 210.532 183.489 C 209.419 182.384 208.247 181.329 207.018 180.326 C 203.252 177.23 198.957 174.693 194.164 172.435 C 194.457 172.425 194.751 172.42 195.045 172.42 C 200.068 172.42 205.136 173.9 209.648 176.429 C 210.881 177.122 212.073 177.895 213.215 178.739 C 212.255 180.332 211.496 181.904 210.956 183.402 C 210.815 183.431 210.673 183.461 210.532 183.489 Z " fill="rgb(148,147,147)"/><path d=" M 218.378 193.774 C 217.835 192.81 217.259 191.866 216.651 190.942 C 214.952 188.38 213.004 185.984 210.823 183.781 C 210.865 183.655 210.91 183.529 210.956 183.402 C 211.496 181.904 212.255 180.332 213.215 178.739 C 216.502 181.171 219.38 184.201 221.653 187.631 C 222.475 188.871 223.218 190.163 223.876 191.495 C 221.961 192.589 220.093 193.362 218.378 193.774 Z " fill="rgb(148,147,147)"/><path d=" M 225.52 217.445 C 225.271 217.373 225.035 217.254 224.815 217.093 C 224.683 214.918 224.467 212.802 224.149 210.74 C 224.645 210.051 225.32 209.626 226.065 209.626 C 226.513 209.626 226.935 209.779 227.309 210.05 C 227.037 212.603 226.447 215.098 225.52 217.445 Z " fill="rgb(149,139,140)"/><path d=" M 227.29 203.107 C 225.143 202.514 223.313 201.576 223.313 200.521 C 223.313 199.298 224.494 198.233 226.241 197.678 C 226.732 199.444 227.083 201.245 227.284 203.056 C 227.286 203.073 227.288 203.09 227.29 203.107 Z " fill="rgb(148,147,147)"/><path d=" M 186.368 260.82 C 183.079 260.82 179.743 260.492 176.395 259.812 C 152.792 255.012 136.513 234.246 136.521 211.058 C 136.517 221.856 140.044 232.127 146.198 240.506 C 146.444 240.841 146.697 241.176 146.951 241.505 C 153.998 250.616 164.222 257.336 176.395 259.812 L 176.395 259.812 C 179.694 260.482 182.98 260.81 186.223 260.82 C 186.271 260.82 186.32 260.82 186.368 260.82 C 188.952 260.82 191.505 260.618 194.01 260.226 C 200.151 259.264 206 257.162 211.277 254.101 C 214.577 252.187 217.655 249.899 220.442 247.28 C 227.688 240.471 232.972 231.431 235.104 220.945 C 235.784 217.604 236.112 214.272 236.113 210.989 C 236.112 214.272 235.784 217.604 235.104 220.945 C 230.306 244.542 209.549 260.82 186.368 260.82 Z " fill="rgb(251,181,80)"/><path d=" M 125.216 408.896 L 125.216 408.896 C 118.497 407.529 114.157 400.975 115.524 394.256 L 135.383 296.608 L 160.958 295.438 L 139.855 399.204 C 138.488 405.923 131.935 410.262 125.216 408.896 Z " fill="rgb(236,144,100)"/><path d=" M 163.514 287.308 L 150.32 284.625 C 143.69 283.276 137.223 287.559 135.875 294.188 L 135.383 296.608 L 160.58 301.732 L 163.514 287.308 Z " fill="rgb(236,144,100)"/><path d=" M 154.116 324.752 L 142.796 322.449 L 148.792 292.964 L 160.113 295.267 C 168.255 296.922 173.514 304.865 171.857 313.008 C 170.202 321.149 162.259 326.408 154.116 324.752 Z " fill="rgb(236,144,100)"/><path d=" M 263.442 295.439 L 263.448 352.293 L 264.448 352.293 L 264.442 295.438" fill="rgb(58,58,58)"/><path d=" M 369.088 193.549 L 354.097 193.549 C 353.518 193.549 353.044 194.022 353.044 194.601 C 353.044 195.18 353.518 195.653 354.097 195.653 L 369.088 195.653 C 369.666 195.653 370.14 195.18 370.14 194.601 C 370.14 194.022 369.666 193.549 369.088 193.549 Z  M 369.088 189.906 L 354.097 189.906 C 353.518 189.906 353.044 190.379 353.044 190.958 C 353.044 191.536 353.518 192.01 354.097 192.01 L 369.088 192.01 C 369.666 192.01 370.14 191.536 370.14 190.958 C 370.14 190.379 369.666 189.906 369.088 189.906 Z  M 354.097 188.143 L 369.088 188.143 C 369.666 188.143 370.14 187.669 370.14 187.09 C 370.14 186.512 369.666 186.039 369.088 186.039 L 354.097 186.039 C 353.518 186.039 353.044 186.512 353.044 187.09 C 353.044 187.669 353.518 188.143 354.097 188.143 Z " fill="rgb(215,215,214)"/></g></g></svg>